<svg xmlns="http://www.w3.org/2000/svg" width="70.44" height="58.178" viewBox="0 0 70.44 58.178">
  <g id="Icon_feather-camera" data-name="Icon feather-camera" transform="translate(0 -3)">
    <path id="Path_1065" data-name="Path 1065" d="M68.94,53.547a6.131,6.131,0,0,1-6.131,6.131H7.631A6.131,6.131,0,0,1,1.5,53.547V19.827A6.131,6.131,0,0,1,7.631,13.7H19.893l6.131-9.2H44.416l6.131,9.2H62.809a6.131,6.131,0,0,1,6.131,6.131Z" transform="translate(0 0)" fill="none" stroke="#fff" stroke-linecap="round" stroke-linejoin="round" stroke-width="3"/>
    <path id="Path_1066" data-name="Path 1066" d="M36.524,25.762A12.262,12.262,0,1,1,24.262,13.5,12.262,12.262,0,0,1,36.524,25.762Z" transform="translate(10.958 9.393)" fill="none" stroke="#fff" stroke-linecap="round" stroke-linejoin="round" stroke-width="3"/>
  </g>
</svg>
