<svg id="menu_logo" xmlns="http://www.w3.org/2000/svg" width="45" height="24" viewBox="0 0 45 24">
  <path id="Path_1" data-name="Path 1" d="M69.9,12.251c-.338-.61-.963-1.1-1.168-1.78a2.065,2.065,0,0,1,.082-1.014c.074-.3.238-.576.318-.878a.549.549,0,0,0,0-.377.856.856,0,0,0-.775-.458c-.613,0-.946.583-1.2,1.059-.319.6-.746,1.866-1.112,2.436a16.251,16.251,0,0,1-2.062,2.768,1.3,1.3,0,0,1-1.953-.255c-.678-1.082-.638-.578.012-1.422a7.738,7.738,0,0,0,.52-.762,18.878,18.878,0,0,0,3.073-7.33,7.406,7.406,0,0,0-.125-2.794A1.6,1.6,0,0,0,62.731.516a6.593,6.593,0,0,0-1.578,2.12,17.39,17.39,0,0,0-1.928,8.085c.04,2.083-1.071,2.649-2.662,3.527.246-1.461.489-2.692.641-3.933.052-.434.194-1.418-.067-1.653-1.011-.909-2.945-.556-4.21.252a5.954,5.954,0,0,0-2.48,3.713,5.416,5.416,0,0,1-.352,1.287,3.092,3.092,0,0,1-1.8.613c-.152-.026-.191-.8-.152-1.12.12-.991.257-1.862.426-2.848.123-.715.483-1.511-.307-1.993a1.99,1.99,0,0,0-2.4.454,5.567,5.567,0,0,0-1.788,2.246.021.021,0,0,1,0-.009c.131-1.072.214-1.742.357-2.885-1.1-.244-1.765.073-2.01,1.064a17.385,17.385,0,0,0-.564,2.934,2.62,2.62,0,0,1-1.361,2c-.5.363-.95.131-1.065-.439a4.067,4.067,0,0,1,.026-1.4c.168-1.093.433-2.169.571-3.263.126-.989-.814-1.443-1.649-.572a1.3,1.3,0,0,0-.321.611,30.823,30.823,0,0,0-.671,3.773c-.112,1.1-.092,2.273,1.005,2.973a2.1,2.1,0,0,0,2.353-.073l.012-.007.013-.009c.153-.1.989-.667,1.138-1.284a1.739,1.739,0,0,0,.563,1.415l0,0c.851.578,1.291.174,1.775-1.316a13.621,13.621,0,0,1,.787-2.1c.334-.67.984-1.382,1.413-2.079a.113.113,0,0,1,.208.072c-.122,1.2-.365,2.4-.414,3.608-.066,1.669.937,2.437,2.534,1.961a15.616,15.616,0,0,0,1.954-.89c.949,1.161,2.511.966,3.783.343a.014.014,0,0,1,.02.013.014.014,0,0,1,0,.009c-.912,1.058-2.015,1.741-2.864,2.806a8.19,8.19,0,0,0-1.587,2.39,2.951,2.951,0,0,0-.02,2A1.918,1.918,0,0,0,51.861,24a3.19,3.19,0,0,0,2.6-2.067,34.6,34.6,0,0,0,1.783-5.59l1.838-1.169.015-.009c.478-.313.962-.619,1.438-.936a.238.238,0,0,1,.086-.036.236.236,0,0,1,.178.036.233.233,0,0,1,.065.066c1.485,2.3,3.075,2.7,5.066.971a9.142,9.142,0,0,0,1.309-1.556c.354-.481.644-1.009,1.126-1.787a3.326,3.326,0,0,1,1.231,2.144.15.15,0,0,1,0,.069.155.155,0,0,1-.028.064.152.152,0,0,1-.121.061c-.431,0-.645,0-.861,0-.712.02-1.221.341-1.276,1.059a1.059,1.059,0,0,0,.959,1.15,3.47,3.47,0,0,0,1.7-.136C70.813,15.721,70.8,13.881,69.9,12.251ZM54,18.765c-.034.12-.308,1.019-.356,1.134-.178.431-.281.692-.469,1.118a3.63,3.63,0,0,1-.676,1.031.557.557,0,0,1-.8.07c-.583-.6.049-1.639.428-2.154a6.668,6.668,0,0,1,.89-.967c.086-.08,1.206-1.252,1.215-1.2A4.314,4.314,0,0,1,54,18.765Zm.4-5.136a1.116,1.116,0,0,1-.6.506.783.783,0,0,1-1.052-.356,1.543,1.543,0,0,1-.185-.63A3.255,3.255,0,0,1,55.3,9.783,36.024,36.024,0,0,1,54.394,13.629Zm6.821-2.887a20.4,20.4,0,0,1,2.244-9.127c1.27,2,.182,6.252-2.2,9.143a.024.024,0,0,1-.026.007.024.024,0,0,1-.012-.009A.026.026,0,0,1,61.215,10.742Z" transform="translate(-25.492 0)" fill="#e53935"/>
  <path id="Path_2" data-name="Path 2" d="M11.407,5.455a9.99,9.99,0,0,0-1.984-.391,14.194,14.194,0,0,0-7.088.694A3.379,3.379,0,0,0,.3,10.315c.308.671.761,1.01,1.479.729.666-.261.669-.724.466-1.393-.456-1.5-.03-2.3,1.556-2.594,1.56-.288,3.173-.287,5.052-.435-.2,1.743-.266,3.094-.538,4.4-.091.441-.637.86-1.071,1.145a26.871,26.871,0,0,0-3.766,2.454,5.7,5.7,0,0,0-1.928,3.243c-.324,2.227,1.39,4.113,3.58,3.535a4.971,4.971,0,0,0,2.4-1.487,10.1,10.1,0,0,0,1.781-3.544c.705-2.486,1.31-6.181,1.886-8.705.15-.656.342-.392.706-.961C12.344,6.015,12.2,5.717,11.407,5.455ZM6.031,18.74c-.459.586-1.072,1.136-1.863.735-.854-.432-.778-1.255-.511-2.04.657-1.936,2.226-2.812,4.159-3.655A10.117,10.117,0,0,1,6.031,18.74Z" transform="translate(0 -3.352)" fill="#e53935"/>
  <path id="Path_3" data-name="Path 3" d="M43.056,14.195a1.49,1.49,0,0,1-1.7,1.386,1.182,1.182,0,0,1-1.215-1.3,1.5,1.5,0,0,1,1.7-1.381C42.588,12.991,43.1,13.349,43.056,14.195Z" transform="translate(-27.327 -8.737)" fill="#e53935"/>
</svg>
