<svg xmlns="http://www.w3.org/2000/svg" width="18.216" height="18.215" viewBox="0 0 18.216 18.215">
  <g id="noun-dashboard-5542925" transform="translate(-83.797 -13.804)">
    <path id="Path_53" data-name="Path 53" d="M90.393,21.542H85.139A1.144,1.144,0,0,1,84,20.4V15.146A1.144,1.144,0,0,1,85.139,14h5.254a1.144,1.144,0,0,1,1.142,1.142V20.4a1.143,1.143,0,0,1-1.142,1.142Zm-5.254-6.89a.494.494,0,0,0-.494.494V20.4a.494.494,0,0,0,.494.494h5.254a.494.494,0,0,0,.494-.494V15.146a.494.494,0,0,0-.494-.494Z" transform="translate(0)" fill="#707070" stroke="#707070" stroke-width="0.4"/>
    <path id="Path_54" data-name="Path 54" d="M397.293,21.542h-5.254A1.144,1.144,0,0,1,390.9,20.4V15.146A1.144,1.144,0,0,1,392.039,14h5.254a1.144,1.144,0,0,1,1.142,1.142V20.4a1.144,1.144,0,0,1-1.142,1.142Zm-5.254-6.89a.494.494,0,0,0-.494.494V20.4a.494.494,0,0,0,.494.494h5.254a.494.494,0,0,0,.494-.494V15.146a.494.494,0,0,0-.494-.494Z" transform="translate(-296.623)" fill="#707070" stroke="#707070" stroke-width="0.4"/>
    <path id="Path_55" data-name="Path 55" d="M90.393,328.432H85.139A1.144,1.144,0,0,1,84,327.29v-5.254a1.144,1.144,0,0,1,1.142-1.142h5.254a1.144,1.144,0,0,1,1.142,1.142v5.254a1.144,1.144,0,0,1-1.142,1.142Zm-5.254-6.89a.494.494,0,0,0-.494.494v5.254a.494.494,0,0,0,.494.494h5.254a.494.494,0,0,0,.494-.494v-5.254a.494.494,0,0,0-.494-.494Z" transform="translate(0 -296.613)" fill="#707070" stroke="#707070" stroke-width="0.4"/>
    <path id="Path_56" data-name="Path 56" d="M397.293,328.432h-5.254a1.144,1.144,0,0,1-1.142-1.142v-5.254a1.144,1.144,0,0,1,1.142-1.142h5.254a1.144,1.144,0,0,1,1.142,1.142v5.254a1.144,1.144,0,0,1-1.142,1.142Zm-5.254-6.89a.494.494,0,0,0-.494.494v5.254a.494.494,0,0,0,.494.494h5.254a.494.494,0,0,0,.494-.494v-5.254a.494.494,0,0,0-.494-.494Z" transform="translate(-296.623 -296.613)" fill="#707070" stroke="#707070" stroke-width="0.4"/>
  </g>
</svg>
