<svg id="logo" xmlns="http://www.w3.org/2000/svg" width="75" height="40" viewBox="0 0 97.979 52.319">
  <path id="Path_1" data-name="Path 1" d="M107.98,26.706c-.733-1.329-2.089-2.408-2.535-3.881a4.522,4.522,0,0,1,.177-2.211c.161-.652.516-1.255.69-1.913a1.2,1.2,0,0,0,0-.821,1.856,1.856,0,0,0-1.683-1c-1.329,0-2.053,1.272-2.6,2.31-.692,1.314-1.619,4.067-2.413,5.31a35.414,35.414,0,0,1-4.474,6.034,2.811,2.811,0,0,1-4.238-.557c-1.47-2.359-1.384-1.26.026-3.1a16.873,16.873,0,0,0,1.128-1.66c3.1-4.959,5.838-10.1,6.669-15.979a16.216,16.216,0,0,0-.271-6.091c-.8-3.2-3.512-4.115-6.024-2.023a14.369,14.369,0,0,0-3.424,4.621,38.048,38.048,0,0,0-4.184,17.624c.087,4.542-2.325,5.775-5.778,7.69.535-3.184,1.062-5.868,1.391-8.574.114-.945.421-3.092-.146-3.6-2.195-1.981-6.391-1.212-9.136.55-2.961,1.9-4.491,4.755-5.383,8.095a11.848,11.848,0,0,1-.764,2.8c-.326.643-3.147,1.464-3.9,1.336-.329-.057-.415-1.75-.329-2.442.26-2.16.557-4.059.924-6.209.268-1.558,1.049-3.295-.667-4.344-1.9-1.168-3.833-.21-5.2.989-1.42,1.243-3.336,3-3.88,4.9a.046.046,0,0,1,0-.019c.284-2.338.465-3.8.775-6.29-2.382-.532-3.831.159-4.362,2.318a38.051,38.051,0,0,0-1.223,6.4C47,29.122,45.666,30.248,44.2,31.314c-1.092.792-2.062.286-2.312-.957a8.9,8.9,0,0,1,.057-3.048c.364-2.382.94-4.729,1.24-7.114.273-2.156-1.767-3.146-3.579-1.247a2.838,2.838,0,0,0-.7,1.333,67.468,67.468,0,0,0-1.455,8.225c-.243,2.407-.2,4.955,2.182,6.481,1.867,1.2,3.524.728,5.107-.159l.026-.015a.193.193,0,0,0,.028-.019c.332-.213,2.146-1.454,2.47-2.8a3.8,3.8,0,0,0,1.221,3.085l.006.006c1.846,1.26,2.8.379,3.852-2.869a29.777,29.777,0,0,1,1.708-4.586c.724-1.46,2.135-3.012,3.067-4.532a.245.245,0,0,1,.452.156c-.265,2.624-.793,5.234-.9,7.865-.142,3.638,2.034,5.312,5.5,4.275a33.815,33.815,0,0,0,4.241-1.941c2.059,2.532,5.45,2.106,8.21.747a.03.03,0,0,1,.037.009.03.03,0,0,1,0,.038c-1.979,2.307-4.373,3.8-6.216,6.116-1.4,1.765-2.679,3.075-3.444,5.21a6.46,6.46,0,0,0-.043,4.363,4.16,4.16,0,0,0,3.889,2.381c2.588,0,4.622-2.312,5.632-4.506A75.663,75.663,0,0,0,78.34,35.626l3.99-2.548.032-.02c1.037-.683,2.087-1.349,3.12-2.04a.516.516,0,0,1,.187-.078.51.51,0,0,1,.528.223c3.223,5.02,6.673,5.878,11,2.116a19.908,19.908,0,0,0,2.84-3.391c.769-1.049,1.4-2.2,2.445-3.9,1.151,1.154,1.643,1.159,2.671,4.673a.328.328,0,0,1,.008.151.337.337,0,0,1-.06.139.328.328,0,0,1-.116.1.324.324,0,0,1-.146.035c-.935,0-1.4-.011-1.868,0-1.545.044-2.649.744-2.77,2.309a2.307,2.307,0,0,0,2.081,2.507,7.5,7.5,0,0,0,3.687-.3C109.968,34.271,109.939,30.259,107.98,26.706Zm-34.51,14.2c-.073.261-.668,2.222-.773,2.472-.386.939-.611,1.508-1.018,2.437a7.916,7.916,0,0,1-1.467,2.248,1.2,1.2,0,0,1-1.729.154c-1.265-1.314.106-3.572.929-4.7a14.512,14.512,0,0,1,1.932-2.109c.186-.175,2.617-2.729,2.636-2.608A9.439,9.439,0,0,1,73.47,40.908Zm.865-11.2a2.426,2.426,0,0,1-1.31,1.1,1.7,1.7,0,0,1-2.283-.776,3.375,3.375,0,0,1-.4-1.374c-.089-3.667,1.979-6.284,5.964-7.337A78.825,78.825,0,0,1,74.336,29.711Zm14.8-6.294a44.628,44.628,0,0,1,4.87-19.9c2.757,4.351.395,13.628-4.779,19.932a.051.051,0,0,1-.057.014.053.053,0,0,1-.025-.019A.056.056,0,0,1,89.139,23.417Z" transform="translate(-11.293 0)" fill="#e53935"/>
  <path id="Path_2" data-name="Path 2" d="M25.064,6.1a21.949,21.949,0,0,0-4.359-.86c-5.3-.627-10.565-.491-15.573,1.525C.747,8.538-1.1,12.965.658,16.782c.677,1.474,1.672,2.218,3.249,1.6,1.463-.573,1.469-1.592,1.025-3.06-1-3.3-.067-5.054,3.418-5.7,3.427-.632,6.973-.63,11.1-.955-.429,3.829-.584,6.8-1.182,9.678-.2.968-1.4,1.89-2.354,2.516-2.855,1.874-5.768,3.085-8.275,5.391A12.518,12.518,0,0,0,3.4,33.379c-.713,4.893,3.053,9.037,7.866,7.768a10.922,10.922,0,0,0,5.276-3.267,22.187,22.187,0,0,0,3.912-7.787c1.549-5.462,2.878-13.581,4.143-19.126.33-1.442.752-.861,1.55-2.111C27.121,7.336,26.8,6.68,25.064,6.1ZM13.252,35.293c-1.008,1.288-2.356,2.5-4.092,1.614-1.876-.95-1.71-2.757-1.123-4.481,1.444-4.253,4.891-6.179,9.139-8.03C16.527,28.685,15.621,32.261,13.252,35.293Z" transform="translate(0 -1.485)" fill="#e53935"/>
  <path id="Path_3" data-name="Path 3" d="M46.542,15.758A3.273,3.273,0,0,1,42.814,18.8c-1.682-.18-2.712-1.057-2.669-2.854a3.3,3.3,0,0,1,3.736-3.035C45.514,13.113,46.638,13.9,46.542,15.758Z" transform="translate(-12.256 -3.846)" fill="#e53935"/>
</svg>
