<svg xmlns="http://www.w3.org/2000/svg" width="19.931" height="19.933" viewBox="0 0 19.931 19.933">
  <g id="noun-financial-insights-4263875" transform="translate(-125.798 -55.794)">
    <path id="Path_178" data-name="Path 178" d="M217.229,65.859a3.786,3.786,0,0,1,1.327,2.368,1.434,1.434,0,0,0-.013,2.8,1.432,1.432,0,0,0,.777,2.39,2.185,2.185,0,0,0,4.368,0,1.432,1.432,0,0,0,.777-2.39,1.434,1.434,0,0,0-.013-2.8,3.815,3.815,0,0,1,1.342-2.384,5.858,5.858,0,0,0-4.662-9.835,5.9,5.9,0,0,0-5.48,5.615,5.82,5.82,0,0,0,1.579,4.237Zm4.274,9.18a1.7,1.7,0,0,1-1.694-1.593H223.2a1.7,1.7,0,0,1-1.694,1.593Zm1.917-2.081h-3.835a.946.946,0,1,1,0-1.893h3.835a.946.946,0,1,1,0,1.893ZM225.1,69.63a.947.947,0,0,1-.947.946h-5.3a.946.946,0,1,1,0-1.893h5.3a.948.948,0,0,1,.947.947Zm-3.94-13.136a5.37,5.37,0,0,1,4.275,9.016,4.307,4.307,0,0,0-1.47,2.685h-4.918a4.222,4.222,0,0,0-1.461-2.671,5.335,5.335,0,0,1-1.447-3.884,5.411,5.411,0,0,1,5.022-5.146Z" transform="translate(-85.739 0)" fill="#707070" stroke="#707070" stroke-width="0.4"/>
    <path id="Path_179" data-name="Path 179" d="M494.72,97.332a.244.244,0,0,0,.333.089l1.887-1.089a.244.244,0,1,0-.244-.423L494.809,97A.244.244,0,0,0,494.72,97.332Z" transform="translate(-352.615 -38.142)" fill="#707070" stroke="#707070" stroke-width="0.4"/>
    <path id="Path_180" data-name="Path 180" d="M515.248,187.15H513.07a.244.244,0,0,0,0,.488h2.179a.244.244,0,1,0,0-.488Z" transform="translate(-369.963 -125.436)" fill="#707070" stroke="#707070" stroke-width="0.4"/>
    <path id="Path_181" data-name="Path 181" d="M495.431,253.738a.244.244,0,0,0,.089.334l1.887,1.089a.244.244,0,0,0,.244-.423l-1.887-1.089a.244.244,0,0,0-.333.089Z" transform="translate(-353.296 -189.005)" fill="#707070" stroke="#707070" stroke-width="0.4"/>
    <path id="Path_182" data-name="Path 182" d="M153.079,97l-1.887-1.089a.244.244,0,1,0-.244.423l1.887,1.089a.244.244,0,0,0,.244-.423Z" transform="translate(-23.744 -38.144)" fill="#707070" stroke="#707070" stroke-width="0.4"/>
    <path id="Path_183" data-name="Path 183" d="M126.243,187.635h2.179a.244.244,0,0,0,0-.488h-2.179a.244.244,0,1,0,0,.488Z" transform="translate(0 -125.433)" fill="#707070" stroke="#707070" stroke-width="0.4"/>
    <path id="Path_184" data-name="Path 184" d="M150.364,255.183a.242.242,0,0,0,.122-.033l1.887-1.089a.244.244,0,1,0-.244-.423l-1.887,1.089a.244.244,0,0,0,.122.456Z" transform="translate(-23.069 -188.994)" fill="#707070" stroke="#707070" stroke-width="0.4"/>
    <path id="Path_188" data-name="Path 188" d="M287,119.9a.456.456,0,0,0,.645,0l.86-.86.86.86a.456.456,0,1,0,.645-.645l-.86-.86.86-.86a.456.456,0,1,0-.645-.645l-.86.86-.86-.86a.456.456,0,1,0-.645.645l.86.86-.86.86A.455.455,0,0,0,287,119.9Z" transform="translate(-152.745 -56.192)" fill="#707070" stroke="#707070" stroke-width="0.4"/>
  </g>
</svg>
