<svg xmlns="http://www.w3.org/2000/svg" width="17.499" height="18.505" viewBox="0 0 17.499 18.505">
  <g id="noun-cogwheel-5542931" transform="translate(-3.639 -2.951)">
    <path id="Path_6" data-name="Path 6" d="M10.045,18.5H7.453a.642.642,0,0,1-.633-.534L6.448,15.8a6.988,6.988,0,0,1-2.213-1.279l-2.071.767A.641.641,0,0,1,1.385,15l-1.3-2.246a.642.642,0,0,1,.146-.815l1.7-1.411a6.949,6.949,0,0,1,0-2.557L.232,6.563a.642.642,0,0,1-.146-.815L1.385,3.5a.642.642,0,0,1,.779-.281l2.071.767A7,7,0,0,1,6.448,2.709L6.82.534A.642.642,0,0,1,7.453,0h2.592a.642.642,0,0,1,.633.534l.372,2.175a6.991,6.991,0,0,1,2.213,1.279l2.071-.767a.642.642,0,0,1,.779.281l1.3,2.246a.642.642,0,0,1-.146.815l-1.7,1.411a6.948,6.948,0,0,1,0,2.557l1.7,1.411a.642.642,0,0,1,.146.815L16.114,15a.641.641,0,0,1-.779.281l-2.071-.767A6.994,6.994,0,0,1,11.051,15.8l-.372,2.175A.643.643,0,0,1,10.045,18.5Zm-2.05-1.284H9.5L9.85,15.2a.642.642,0,0,1,.456-.509,5.69,5.69,0,0,0,2.37-1.369.641.641,0,0,1,.669-.14l1.929.714.756-1.308-1.582-1.313a.642.642,0,0,1-.213-.648,5.691,5.691,0,0,0,0-2.74.642.642,0,0,1,.213-.648l1.582-1.313-.756-1.308-1.929.714a.642.642,0,0,1-.669-.14,5.7,5.7,0,0,0-2.37-1.369.643.643,0,0,1-.456-.509L9.5,1.285H7.995L7.648,3.311a.642.642,0,0,1-.456.509,5.7,5.7,0,0,0-2.37,1.369.642.642,0,0,1-.669.14L2.225,4.614,1.47,5.922,3.051,7.235a.642.642,0,0,1,.213.648,5.691,5.691,0,0,0,0,2.74.642.642,0,0,1-.213.648L1.47,12.584l.756,1.308,1.929-.714a.641.641,0,0,1,.669.14,5.7,5.7,0,0,0,2.37,1.369.643.643,0,0,1,.456.509Zm.755-4.644a3.324,3.324,0,1,1,3.324-3.324A3.328,3.328,0,0,1,8.749,12.577Zm0-5.364a2.04,2.04,0,1,0,2.04,2.04A2.042,2.042,0,0,0,8.749,7.213Z" transform="translate(3.639 2.951)" fill="#707070"/>
  </g>
</svg>
