<svg xmlns="http://www.w3.org/2000/svg" width="18.41" height="17.2" viewBox="0 0 18.41 17.2">
  <g id="noun-products-1375582" transform="translate(-114.599 -61.4)">
    <path id="Path_138" data-name="Path 138" d="M132.619,64.662,130.79,62.11a1.22,1.22,0,0,0-.978-.51H117.648a1.19,1.19,0,0,0-.978.51l-1.829,2.552a.3.3,0,0,0-.042.128v12.5A1.1,1.1,0,0,0,115.9,78.4h15.63a1.112,1.112,0,0,0,1.106-1.106V64.79a.141.141,0,0,0-.021-.128Zm-2.807-2.637a.817.817,0,0,1,.638.319l1.595,2.233H126.24l-.723-2.552Zm-7.4,0h2.658l.787,2.786v3.828a.021.021,0,0,1-.021.021h-.021l-2.084-1.127-2.084,1.148h-.021a.021.021,0,0,1-.021-.021V64.832Zm-5.4.319a.758.758,0,0,1,.638-.319h4.317l-.723,2.552h-5.827Zm15.226,14.95a.685.685,0,0,1-.681.681H115.9a.685.685,0,0,1-.681-.681V65h5.954v3.636a.446.446,0,0,0,.213.383.428.428,0,0,0,.234.064.41.41,0,0,0,.213-.064L123.73,68l1.893,1.021a.436.436,0,0,0,.659-.383V65h5.954Z" fill="#e53935" stroke="#e53935" stroke-width="0.4"/>
    <path id="Path_139" data-name="Path 139" d="M305.2,140h3.4v.425h-3.4Z" transform="translate(-183.171 -75.423)" fill="#e53935" stroke="#e53935" stroke-width="0.4"/>
  </g>
</svg>
