<svg xmlns="http://www.w3.org/2000/svg" width="22" height="22" viewBox="0 0 22 22">
  <g id="be" transform="translate(-56 -180)">
    <g id="group" transform="translate(4 37)">
      <rect id="base" width="22" height="22" transform="translate(52 143)" fill="#fff" opacity="0"/>
      <g id="noun-benchmark-4521119" transform="translate(44.114 130.241)">
        <path id="Path_8066" data-name="Path 8066" d="M9.942,28.206h2.037a.405.405,0,0,1,.4.4v3.473a.405.405,0,0,1-.4.4H9.942a.405.405,0,0,1-.4-.4V28.611a.405.405,0,0,1,.4-.4ZM26.811,15.03A1.221,1.221,0,0,0,25.718,16.8L22.19,19.951a1.221,1.221,0,0,0-1.749.467l-2.979-.625a1.221,1.221,0,1,0-2.345.543L11.692,23a1.219,1.219,0,1,0,.4.508l3.425-2.667a1.221,1.221,0,0,0,1.817-.42l2.979.625a1.221,1.221,0,1,0,2.311-.618l3.528-3.156a1.221,1.221,0,1,0,.663-2.246Zm-1.018,4.643h2.037a.405.405,0,0,1,.4.4V32.083a.405.405,0,0,1-.4.4H25.792a.405.405,0,0,1-.4-.4V20.078a.405.405,0,0,1,.4-.4Zm-5.283,5.673h2.037a.405.405,0,0,1,.4.4v6.333a.405.405,0,0,1-.4.4H20.509a.405.405,0,0,1-.4-.4V25.75a.405.405,0,0,1,.4-.4Zm-5.283-1.94h2.037a.405.405,0,0,1,.4.4v8.273a.405.405,0,0,1-.4.4H15.226a.405.405,0,0,1-.4-.4V23.81A.405.405,0,0,1,15.226,23.406Z" transform="translate(0 0)" fill="#fff" fill-rule="evenodd"/>
      </g>
    </g>
  </g>
</svg>
