<svg xmlns="http://www.w3.org/2000/svg" width="24.507" height="18.438" viewBox="0 0 24.507 18.438">
  <path id="Path_8099" data-name="Path 8099" d="M110.674,109.158c-8.783,0-12.056-8.455-12.192-8.81a1.219,1.219,0,0,1,0-.764c.136-.382,3.409-8.865,12.192-8.865s12.056,8.456,12.192,8.81a1.219,1.219,0,0,1,0,.764C122.73,100.676,119.457,109.158,110.674,109.158Zm-10.01-9.219c.682,1.527,3.628,7.01,10.01,7.01s9.3-5.482,10.01-7.037c-.709-1.5-3.628-7.01-10.01-7.01S101.373,98.412,100.664,99.939Zm10.01,4.091a4.091,4.091,0,1,1,4.091-4.091A4.086,4.086,0,0,1,110.674,104.031Zm0-6a1.909,1.909,0,1,0,1.909,1.909A1.9,1.9,0,0,0,110.674,98.03Z" transform="translate(-98.42 -90.72)" fill="#fff"/>
</svg>
