<svg xmlns="http://www.w3.org/2000/svg" width="27" height="27" viewBox="0 0 27 27">
  <g id="Group_57103" data-name="Group 57103" transform="translate(70 -3715)">
    <g id="noun-target-5960587" transform="translate(-69.724 3715.276)">
      <rect id="Rectangle_1851" data-name="Rectangle 1851" width="27" height="27" transform="translate(-0.276 -0.276)" fill="none"/>
      <path id="Path_9400" data-name="Path 9400" d="M16.806,5A11.806,11.806,0,1,1,5,16.806,11.812,11.812,0,0,1,16.806,5Zm0,1.816a9.99,9.99,0,1,0,9.99,9.99,9.994,9.994,0,0,0-9.99-9.99Zm0,3.633a6.357,6.357,0,1,0,6.357,6.357,6.36,6.36,0,0,0-6.357-6.357Zm0,1.816a4.541,4.541,0,1,1-4.541,4.541A4.543,4.543,0,0,1,16.806,12.265Z" transform="translate(-3.666 -3.666)" fill="#fff" stroke="#fff" stroke-width="0.2" fill-rule="evenodd"/>
    </g>
  </g>
</svg>
