<svg xmlns="http://www.w3.org/2000/svg" width="32" height="32" viewBox="0 0 32 32">
  <g id="Group_56811" data-name="Group 56811" transform="translate(-0.485)">
    <rect id="Rectangle_1654" data-name="Rectangle 1654" width="32" height="32" rx="4" transform="translate(0.485)" fill="#e80f88"/>
    <g id="Group_56810" data-name="Group 56810" transform="translate(5 5)">
      <rect id="base" width="22" height="22" transform="translate(0.485)" fill="#f2f2f2" opacity="0"/>
      <path id="ic_round-dashboard" d="M4,13h6a1,1,0,0,0,1-1V4a1,1,0,0,0-1-1H4A1,1,0,0,0,3,4v8A1,1,0,0,0,4,13Zm0,8h6a1,1,0,0,0,1-1V16a1,1,0,0,0-1-1H4a1,1,0,0,0-1,1v4A1,1,0,0,0,4,21Zm10,0h6a1,1,0,0,0,1-1V12a1,1,0,0,0-1-1H14a1,1,0,0,0-1,1v8A1,1,0,0,0,14,21ZM13,4V8a1,1,0,0,0,1,1h6a1,1,0,0,0,1-1V4a1,1,0,0,0-1-1H14A1,1,0,0,0,13,4Z" transform="translate(-0.413 -1)" fill="#fff"/>
    </g>
  </g>
</svg>
