<svg xmlns="http://www.w3.org/2000/svg" width="22" height="22" viewBox="0 0 22 22">
  <g id="da" transform="translate(-56 -138)">
    <g id="Group_56770" data-name="Group 56770" transform="translate(26 -38)">
      <rect id="base" width="22" height="22" transform="translate(30 176)" fill="#f2f2f2" opacity="0"/>
      <path id="ic_round-dashboard" d="M4,13h6a1,1,0,0,0,1-1V4a1,1,0,0,0-1-1H4A1,1,0,0,0,3,4v8A1,1,0,0,0,4,13Zm0,8h6a1,1,0,0,0,1-1V16a1,1,0,0,0-1-1H4a1,1,0,0,0-1,1v4A1,1,0,0,0,4,21Zm10,0h6a1,1,0,0,0,1-1V12a1,1,0,0,0-1-1H14a1,1,0,0,0-1,1v8A1,1,0,0,0,14,21ZM13,4V8a1,1,0,0,0,1,1h6a1,1,0,0,0,1-1V4a1,1,0,0,0-1-1H14A1,1,0,0,0,13,4Z" transform="translate(29 175)" fill="#fff"/>
    </g>
  </g>
</svg>
