<svg xmlns="http://www.w3.org/2000/svg" width="18.876" height="28.81" viewBox="0 0 18.876 28.81">
  <g id="noun-goal-1903933" transform="translate(0.489 0.433)">
    <g id="noun-hand-3907358" transform="translate(0 0)">
      <g id="Group_56818" data-name="Group 56818">
        <g id="Group_56817" data-name="Group 56817">
          <path id="Path_8103" data-name="Path 8103" d="M33.951,46.451a8.323,8.323,0,0,1-4.605-1.414,13.089,13.089,0,0,1-4.719-5.973l-1.351-2.894a2.089,2.089,0,0,1,3.711-1.914l.156.282V26.066a2.007,2.007,0,0,1,2-2h.141a2.007,2.007,0,0,1,2,2v4.093a2,2,0,0,1,3.016.991,1.994,1.994,0,0,1,1.24-.431A2.245,2.245,0,0,1,37.761,32.6a1.993,1.993,0,0,1,1.155-.367,2.151,2.151,0,0,1,2.148,2.149v5.254c0,.009,0,.018,0,.027a8.108,8.108,0,0,1-2.549,5.15A6.847,6.847,0,0,1,33.951,46.451ZM25.16,34.059a1.186,1.186,0,0,0-.571.146,1.227,1.227,0,0,0-.517,1.594l1.351,2.894a12.307,12.307,0,0,0,4.405,5.61l0,0c2.573,1.722,6.056,1.657,8.1-.152a7.336,7.336,0,0,0,2.254-4.535V34.381a1.272,1.272,0,0,0-1.27-1.271,1.128,1.128,0,0,0-1.126,1.127v2.422a.439.439,0,1,1-.878,0v-3.7A1.364,1.364,0,0,0,35.55,31.6a1.128,1.128,0,0,0-1.126,1.127V35.84a.439.439,0,0,1-.878,0V31.817a1.126,1.126,0,1,0-2.252,0v3.606a.439.439,0,1,1-.878,0V26.066a1.128,1.128,0,0,0-1.126-1.127h-.141a1.128,1.128,0,0,0-1.126,1.127v10.17a.439.439,0,0,1-.823.213l-.979-1.767A1.212,1.212,0,0,0,25.16,34.059Z" transform="translate(-23.078 -18.475)" fill="#fff" stroke="#fff" stroke-width="0.8"/>
          <path id="Path_8105" data-name="Path 8105" d="M.9,7a.567.567,0,0,1-.523-.348A4.8,4.8,0,0,1,0,4.782,4.754,4.754,0,0,1,4.714,0,4.754,4.754,0,0,1,9.428,4.782a4.86,4.86,0,0,1-.095.957A.567.567,0,1,1,8.22,5.515a3.715,3.715,0,0,0,.073-.733A3.618,3.618,0,0,0,4.714,1.135,3.618,3.618,0,0,0,1.135,4.782a3.673,3.673,0,0,0,.286,1.43A.568.568,0,0,1,.9,7Z" transform="matrix(0.996, 0.087, -0.087, 0.996, 1.679, 0)" fill="#fff" stroke="#fff" stroke-width="0.8"/>
        </g>
      </g>
    </g>
  </g>
</svg>
