<svg xmlns="http://www.w3.org/2000/svg" width="22" height="22" viewBox="0 0 22 22">
  <g id="kn" transform="translate(-56 -306)">
    <g id="group" transform="translate(4 163)">
      <rect id="base" width="22" height="22" transform="translate(52 143)" fill="#fff" opacity="0"/>
      <path id="heroicons-solid_light-bulb" d="M13.086,3.676a1.176,1.176,0,1,0-2.352,0V4.852a1.176,1.176,0,1,0,2.352,0Zm5.478,3.243A1.176,1.176,0,0,0,16.9,5.256l-.832.832a1.176,1.176,0,0,0,1.663,1.663Zm2.756,4.991a1.176,1.176,0,0,1-1.176,1.176H18.967a1.176,1.176,0,1,1,0-2.352h1.176a1.176,1.176,0,0,1,1.176,1.176ZM6.087,7.751A1.176,1.176,0,1,0,7.751,6.087l-.832-.832A1.176,1.176,0,0,0,5.256,6.919ZM6.029,11.91a1.176,1.176,0,0,1-1.176,1.176H3.676a1.176,1.176,0,1,1,0-2.352H4.852A1.176,1.176,0,0,1,6.029,11.91Zm3.529,7.057V17.791h4.7v1.176a2.352,2.352,0,1,1-4.7,0Zm4.7-2.352a1.4,1.4,0,0,1,.561-1.01A4.7,4.7,0,1,0,9,15.6a1.388,1.388,0,0,1,.56,1.01h4.706Z" transform="translate(51.09 142.09)" fill="#fff"/>
    </g>
  </g>
</svg>
