<svg xmlns="http://www.w3.org/2000/svg" xmlns:xlink="http://www.w3.org/1999/xlink" width="238" height="238" viewBox="0 0 238 238">
  <defs>
    <clipPath id="clip-path">
      <path id="Path_7745" data-name="Path 7745" d="M47.578,48H191.1V195.19H47.578Zm0,0" transform="translate(-47.578 -48)" fill="#570026"/>
    </clipPath>
  </defs>
  <g id="logo" transform="translate(-44.147 492.853)">
    <circle id="Ellipse_1" data-name="Ellipse 1" cx="119" cy="119" r="119" transform="translate(44.147 -492.853)" fill="#fff"/>
    <g id="Smaller_Logo_Dark_BG" data-name="Smaller Logo Dark BG" transform="translate(69.164 -447.492)">
      <g id="Group_54662" data-name="Group 54662" transform="translate(16.669 0)" clip-path="url(#clip-path)">
        <path id="Path_7744" data-name="Path 7744" d="M101.3,50.6q3.492-.869,7.049-1.4t7.152-.709q3.59-.188,7.185-.023t7.156.672q3.563.508,7.059,1.354t6.89,2.031q3.393,1.182,6.656,2.68t6.366,3.311q3.1,1.808,6.012,3.9t5.6,4.465q2.692,2.372,5.136,4.985t4.629,5.453q2.181,2.845,4.071,5.875t3.473,6.237q1.592,3.206,2.852,6.542t2.2,6.788q.176.633.336,1.294l-1.131.389c-.117-.459-.233-.918-.36-1.382q-.917-3.415-2.178-6.723t-2.828-6.482q-1.578-3.171-3.455-6.176t-4.048-5.81q-2.174-2.81-4.6-5.393t-5.109-4.92q-2.678-2.337-5.572-4.4t-5.979-3.839q-3.086-1.774-6.329-3.241t-6.62-2.615q-3.373-1.141-6.843-1.957t-7.008-1.289q-3.534-.473-7.1-.6t-7.124.088q-3.561.223-7.082.779t-6.97,1.465c.182-.45.355-.895.514-1.354ZM48.709,139.3c.094.38.192.75.295,1.131q.926,3.422,2.183,6.741t2.842,6.5q1.578,3.178,3.468,6.19t4.062,5.824q2.181,2.81,4.623,5.4T71.311,176q2.692,2.338,5.6,4.405t6,3.84q3.092,1.773,6.348,3.236t6.642,2.6q3.387,1.14,6.867,1.947t7.026,1.271q3.548.465,7.12.579c2.379.078,4.763.042,7.137-.112s4.745-.421,7.1-.806,4.679-.882,6.984-1.488c-.187.445-.365.9-.533,1.353q-3.493.883-7.059,1.423t-7.166.738q-3.6.194-7.2.042t-7.176-.649q-3.569-.5-7.077-1.345t-6.909-2.017q-3.408-1.175-6.68-2.671t-6.39-3.306q-3.106-1.8-6.03-3.9t-5.623-4.466q-2.7-2.372-5.156-4.989t-4.642-5.463Q58.3,163.381,56.4,160.34t-3.487-6.25q-1.592-3.207-2.861-6.557t-2.2-6.8c-.093-.348-.182-.7-.271-1.043Zm0,0" transform="translate(-47.578 -47.926)" fill="#570026" fill-rule="evenodd"/>
      </g>
      <g id="Group_54665" data-name="Group 54665" transform="translate(0 65.747)">
        <g id="Group_54664" data-name="Group 54664">
          <g id="Group_54663" data-name="Group 54663">
            <path id="Path_7746" data-name="Path 7746" d="M10.579,1.015A5.768,5.768,0,0,1,9.1,1.782a6.286,6.286,0,0,1-2.188.374,6.486,6.486,0,0,1-3.328-.823A5.712,5.712,0,0,1,1.435-.892,6.434,6.434,0,0,1,.688-3.977a6.988,6.988,0,0,1,.748-3.272A5.514,5.514,0,0,1,3.53-9.493a5.93,5.93,0,0,1,3.085-.8,6.834,6.834,0,0,1,2.057.3,7.19,7.19,0,0,1,1.664.748L9.382-6.987a4.413,4.413,0,0,0-2.674-.991,3.231,3.231,0,0,0-1.758.524,3.67,3.67,0,0,0-1.29,1.4,4.066,4.066,0,0,0-.467,1.945,4.582,4.582,0,0,0,.449,2.075A3.367,3.367,0,0,0,4.913-.649a3.778,3.778,0,0,0,1.945.486,4.362,4.362,0,0,0,1.608-.28,3.657,3.657,0,0,0,1.122-.692Zm0,0" transform="translate(-0.688 10.297)" fill="#570026"/>
          </g>
        </g>
      </g>
      <g id="Group_54668" data-name="Group 54668" transform="translate(24.805 65.747)">
        <g id="Group_54667" data-name="Group 54667">
          <g id="Group_54666" data-name="Group 54666">
            <path id="Path_7747" data-name="Path 7747" d="M.688-4.052a6.059,6.059,0,0,1,.841-3.1A6.3,6.3,0,0,1,3.791-9.437a6.005,6.005,0,0,1,3.123-.86A5.887,5.887,0,0,1,10-9.437a6.439,6.439,0,0,1,2.3,2.281,5.988,5.988,0,0,1,.86,3.1A6,6,0,0,1,12.3-.929,6.463,6.463,0,0,1,10,1.333a6.029,6.029,0,0,1-3.085.823,6.078,6.078,0,0,1-3.123-.823A6.322,6.322,0,0,1,1.529-.929,6.077,6.077,0,0,1,.688-4.052Zm2.487,0a3.937,3.937,0,0,0,.5,1.963,3.814,3.814,0,0,0,1.365,1.4,3.71,3.71,0,0,0,1.945.524,3.462,3.462,0,0,0,1.87-.524,3.753,3.753,0,0,0,1.328-1.4,4.073,4.073,0,0,0,.486-1.963,3.919,3.919,0,0,0-.5-1.982A3.747,3.747,0,0,0,8.821-7.455a3.633,3.633,0,0,0-1.907-.524,3.58,3.58,0,0,0-1.888.524A3.831,3.831,0,0,0,3.66-6.034,4,4,0,0,0,3.174-4.052Zm0,0" transform="translate(-0.688 10.297)" fill="#570026"/>
          </g>
        </g>
      </g>
      <g id="Group_54671" data-name="Group 54671" transform="translate(52.675 65.878)">
        <g id="Group_54670" data-name="Group 54670">
          <g id="Group_54669" data-name="Group 54669">
            <path id="Path_7748" data-name="Path 7748" d="M3.725-10.187V-.315H9.446V2H1.313V-10.187Zm0,0" transform="translate(-1.313 10.188)" fill="#570026"/>
          </g>
        </g>
      </g>
      <g id="Group_54674" data-name="Group 54674" transform="translate(76.194 65.878)">
        <g id="Group_54673" data-name="Group 54673">
          <g id="Group_54672" data-name="Group 54672">
            <path id="Path_7749" data-name="Path 7749" d="M3.5-2.5a2,2,0,0,0,.355,1.122,2.762,2.762,0,0,0,.935.86A2.478,2.478,0,0,0,6.027-.2,2.724,2.724,0,0,0,7.336-.521a2.6,2.6,0,0,0,.935-.86A2.092,2.092,0,0,0,8.607-2.5v-7.685h2.375v7.741a4.256,4.256,0,0,1-.673,2.356A4.587,4.587,0,0,1,8.514,1.555a5.326,5.326,0,0,1-2.487.58,5.313,5.313,0,0,1-2.487-.58A4.566,4.566,0,0,1,1.764-.091a4.319,4.319,0,0,1-.654-2.356v-7.741H3.5Zm0,0" transform="translate(-1.109 10.188)" fill="#570026"/>
          </g>
        </g>
      </g>
      <g id="Group_54677" data-name="Group 54677" transform="translate(102.088 65.376)">
        <g id="Group_54676" data-name="Group 54676">
          <g id="Group_54675" data-name="Group 54675">
            <path id="Path_7750" data-name="Path 7750" d="M13.877-10.609v12.7H11.465V-3.729L7.5,1.918H7.464L3.631-3.355V2.087H1.313v-12.7h.019L7.52-1.84l6.32-8.769Zm0,0" transform="translate(-1.313 10.609)" fill="#570026"/>
          </g>
        </g>
      </g>
      <g id="Group_54680" data-name="Group 54680" transform="translate(130.926 65.878)">
        <g id="Group_54679" data-name="Group 54679">
          <g id="Group_54678" data-name="Group 54678">
            <path id="Path_7751" data-name="Path 7751" d="M7.595-4.429a3.894,3.894,0,0,1,1.5,1.178,2.681,2.681,0,0,1,.542,1.664,3.144,3.144,0,0,1-1.215,2.73A5.146,5.146,0,0,1,5.37,2H1.313V-10.187H4.9A5.155,5.155,0,0,1,7.932-9.4,2.612,2.612,0,0,1,9.053-7.121a3.189,3.189,0,0,1-.393,1.608A2.892,2.892,0,0,1,7.595-4.429ZM3.725-5.2H5.183a1.261,1.261,0,0,0,1.01-.411,1.442,1.442,0,0,0,.374-1.01,1.122,1.122,0,0,0-.411-.935,1.838,1.838,0,0,0-1.141-.318H3.725ZM5.258-.24A2.491,2.491,0,0,0,6.623-.577a1.127,1.127,0,0,0,.524-1.01q0-1.29-2.057-1.29H3.725V-.24Zm0,0" transform="translate(-1.313 10.188)" fill="#570026"/>
          </g>
        </g>
      </g>
      <g id="Group_54683" data-name="Group 54683" transform="translate(154.428 65.878)">
        <g id="Group_54682" data-name="Group 54682">
          <g id="Group_54681" data-name="Group 54681">
            <path id="Path_7752" data-name="Path 7752" d="M3.5-2.5a2,2,0,0,0,.355,1.122,2.762,2.762,0,0,0,.935.86A2.478,2.478,0,0,0,6.027-.2,2.724,2.724,0,0,0,7.336-.521a2.6,2.6,0,0,0,.935-.86A2.092,2.092,0,0,0,8.607-2.5v-7.685h2.375v7.741a4.256,4.256,0,0,1-.673,2.356A4.587,4.587,0,0,1,8.514,1.555a5.326,5.326,0,0,1-2.487.58,5.313,5.313,0,0,1-2.487-.58A4.566,4.566,0,0,1,1.764-.091a4.319,4.319,0,0,1-.654-2.356v-7.741H3.5Zm0,0" transform="translate(-1.109 10.188)" fill="#570026"/>
          </g>
        </g>
      </g>
      <g id="Group_54686" data-name="Group 54686" transform="translate(179.406 65.803)">
        <g id="Group_54685" data-name="Group 54685">
          <g id="Group_54684" data-name="Group 54684">
            <path id="Path_7753" data-name="Path 7753" d="M7.991-7.221A5.95,5.95,0,0,0,5.224-8.1a2.115,2.115,0,0,0-1.234.318,1.058,1.058,0,0,0-.43.935A1.26,1.26,0,0,0,4.2-5.819,7.816,7.816,0,0,0,5.9-5a7.066,7.066,0,0,1,1.458.729A3.113,3.113,0,0,1,8.384-3.145,3.591,3.591,0,0,1,8.8-1.35,3.34,3.34,0,0,1,8.309.408,3.339,3.339,0,0,1,6.87,1.679a4.967,4.967,0,0,1-2.244.467,7.765,7.765,0,0,1-2.188-.318,6.613,6.613,0,0,1-2-.991L1.5-1.032a5.637,5.637,0,0,0,1.44.767A4.289,4.289,0,0,0,4.4.034,2.621,2.621,0,0,0,5.729-.284,1.151,1.151,0,0,0,6.29-1.35Q6.29-2.282,4.514-3a14.515,14.515,0,0,1-1.739-.785,3.461,3.461,0,0,1-1.2-1.084,3.077,3.077,0,0,1-.5-1.795A3.274,3.274,0,0,1,2.1-9.184,4.285,4.285,0,0,1,4.869-10.25a6.915,6.915,0,0,1,2.262.318,7.67,7.67,0,0,1,1.776.86Zm0,0" transform="translate(-0.438 10.25)" fill="#570026"/>
          </g>
        </g>
      </g>
      <g id="Group_54689" data-name="Group 54689" transform="translate(37.357 98.632)">
        <g id="Group_54688" data-name="Group 54688">
          <g id="Group_54687" data-name="Group 54687">
            <path id="Path_7754" data-name="Path 7754" d="M4.489-4.812v.879h-2.9V-2.4h2.58v.9H1.591V.068H4.6V.946H.656V-4.812Zm0,0" transform="translate(-0.656 4.813)" fill="#570026"/>
          </g>
        </g>
      </g>
      <g id="Group_54692" data-name="Group 54692" transform="translate(45.153 98.632)">
        <g id="Group_54691" data-name="Group 54691">
          <g id="Group_54690" data-name="Group 54690">
            <path id="Path_7755" data-name="Path 7755" d="M4.018.946,2.6-1.223,1.344.946H.2L2.092-2.027.278-4.812H1.456L2.8-2.737,4.018-4.812H5.139L3.307-1.97,5.2.946Zm0,0" transform="translate(-0.203 4.813)" fill="#570026"/>
          </g>
        </g>
      </g>
      <g id="Group_54695" data-name="Group 54695" transform="translate(54.314 98.632)">
        <g id="Group_54694" data-name="Group 54694">
          <g id="Group_54693" data-name="Group 54693">
            <path id="Path_7756" data-name="Path 7756" d="M2.283-4.812a2.174,2.174,0,0,1,1.533.5,1.7,1.7,0,0,1,.561,1.346,2.156,2.156,0,0,1-.206.935,1.57,1.57,0,0,1-.636.711,2.121,2.121,0,0,1-1.122.262H1.591v2H.656V-4.812Zm.131,2.879A1.008,1.008,0,0,0,3.031-2.1a.972.972,0,0,0,.318-.393,1.058,1.058,0,0,0,.112-.449,1.063,1.063,0,0,0-.243-.673.9.9,0,0,0-.785-.318H1.591v2Zm0,0" transform="translate(-0.656 4.813)" fill="#570026"/>
          </g>
        </g>
      </g>
      <g id="Group_54698" data-name="Group 54698" transform="translate(62.28 98.632)">
        <g id="Group_54697" data-name="Group 54697">
          <g id="Group_54696" data-name="Group 54696">
            <path id="Path_7757" data-name="Path 7757" d="M1.591-4.812V.068H4.433V.946H.656V-4.812Zm0,0" transform="translate(-0.656 4.813)" fill="#570026"/>
          </g>
        </g>
      </g>
      <g id="Group_54701" data-name="Group 54701" transform="translate(70.039 98.576)">
        <g id="Group_54700" data-name="Group 54700">
          <g id="Group_54699" data-name="Group 54699">
            <path id="Path_7758" data-name="Path 7758" d="M.359-1.924A2.844,2.844,0,0,1,.752-3.382,3.037,3.037,0,0,1,1.837-4.448a2.8,2.8,0,0,1,1.477-.411,2.774,2.774,0,0,1,1.458.411A2.9,2.9,0,0,1,5.838-3.364a2.746,2.746,0,0,1,.411,1.44A2.875,2.875,0,0,1,5.857-.447,2.9,2.9,0,0,1,4.772.619a2.844,2.844,0,0,1-1.458.393A2.954,2.954,0,0,1,1.837.638,3.037,3.037,0,0,1,.752-.428,2.906,2.906,0,0,1,.359-1.924Zm.954,0A2.028,2.028,0,0,0,1.575-.9,2.191,2.191,0,0,0,2.3-.148a1.953,1.953,0,0,0,1.028.28,1.905,1.905,0,0,0,.991-.262,2.059,2.059,0,0,0,.711-.748,2.056,2.056,0,0,0,.28-1.047,1.965,1.965,0,0,0-.28-1.028A2.07,2.07,0,0,0,4.3-3.7a1.836,1.836,0,0,0-.991-.28,1.954,1.954,0,0,0-1.028.28,2.058,2.058,0,0,0-.711.748A2.041,2.041,0,0,0,1.313-1.924Zm0,0" transform="translate(-0.359 4.859)" fill="#570026"/>
          </g>
        </g>
      </g>
      <g id="Group_54704" data-name="Group 54704" transform="translate(80.284 98.632)">
        <g id="Group_54703" data-name="Group 54703">
          <g id="Group_54702" data-name="Group 54702">
            <path id="Path_7759" data-name="Path 7759" d="M3.816.946l-1.309-2H1.591v2H.656V-4.812H2.283a2.288,2.288,0,0,1,1.552.5,1.68,1.68,0,0,1,.58,1.346,2.247,2.247,0,0,1-.224.991,1.523,1.523,0,0,1-.711.692L4.882.946ZM1.591-1.933h.823a.954.954,0,0,0,.785-.3,1.065,1.065,0,0,0,.262-.692,1.188,1.188,0,0,0-.093-.449.951.951,0,0,0-.337-.393.977.977,0,0,0-.6-.168H1.591Zm0,0" transform="translate(-0.656 4.813)" fill="#570026"/>
          </g>
        </g>
      </g>
      <g id="Group_54707" data-name="Group 54707" transform="translate(88.716 98.632)">
        <g id="Group_54706" data-name="Group 54706">
          <g id="Group_54705" data-name="Group 54705">
            <path id="Path_7760" data-name="Path 7760" d="M4.489-4.812v.879h-2.9V-2.4h2.58v.9H1.591V.068H4.6V.946H.656V-4.812Zm0,0" transform="translate(-0.656 4.813)" fill="#570026"/>
          </g>
        </g>
      </g>
      <g id="Group_54710" data-name="Group 54710" transform="translate(102.351 98.389)">
        <g id="Group_54709" data-name="Group 54709">
          <g id="Group_54708" data-name="Group 54708">
            <path id="Path_7761" data-name="Path 7761" d="M4.326.986,3.859.369A1.834,1.834,0,0,1,3.2.893a2.344,2.344,0,0,1-.954.187A2.139,2.139,0,0,1,1.279.856,1.8,1.8,0,0,1,.587.238a1.7,1.7,0,0,1-.243-.9A1.5,1.5,0,0,1,.755-1.706,2.336,2.336,0,0,1,1.8-2.361l-.15-.206a2.124,2.124,0,0,1-.43-1.122,1.281,1.281,0,0,1,.168-.636,1.261,1.261,0,0,1,.486-.5,1.625,1.625,0,0,1,.785-.187,2.03,2.03,0,0,1,.86.187,2.079,2.079,0,0,1,.673.486l-.467.617a2.709,2.709,0,0,0-.486-.393.892.892,0,0,0-.43-.131.663.663,0,0,0-.486.187.606.606,0,0,0-.168.449.773.773,0,0,0,.131.43c.084.14.131.215.131.224L3.765-1.183l.486-1.271h.841l-.785,2L5.392.986ZM2.382.257a1.053,1.053,0,0,0,.991-.524L2.288-1.725a1.142,1.142,0,0,0-.711.337.918.918,0,0,0-.28.673A.892.892,0,0,0,1.615,0,1.148,1.148,0,0,0,2.382.257Zm0,0" transform="translate(-0.344 5.016)" fill="#570026"/>
          </g>
        </g>
      </g>
      <g id="Group_54713" data-name="Group 54713" transform="translate(117.32 98.632)">
        <g id="Group_54712" data-name="Group 54712">
          <g id="Group_54711" data-name="Group 54711">
            <path id="Path_7762" data-name="Path 7762" d="M1.591-4.812V.946H.656V-4.812Zm0,0" transform="translate(-0.656 4.813)" fill="#570026"/>
          </g>
        </g>
      </g>
      <g id="Group_54716" data-name="Group 54716" transform="translate(122.957 98.426)">
        <g id="Group_54715" data-name="Group 54715">
          <g id="Group_54714" data-name="Group 54714">
            <path id="Path_7763" data-name="Path 7763" d="M5.742-4.779V1.186H5.723L1.572-2.834,1.591.98H.656V-4.984H.712L4.845-.908l-.019-3.87Zm0,0" transform="translate(-0.656 4.984)" fill="#570026"/>
          </g>
        </g>
      </g>
      <g id="Group_54719" data-name="Group 54719" transform="translate(132.76 98.632)">
        <g id="Group_54718" data-name="Group 54718">
          <g id="Group_54717" data-name="Group 54717">
            <path id="Path_7764" data-name="Path 7764" d="M.656-4.812H2.3a3.448,3.448,0,0,1,1.795.43,2.611,2.611,0,0,1,1.028,1.1,3.32,3.32,0,0,1,.318,1.421A2.746,2.746,0,0,1,5.05-.381,2.733,2.733,0,0,1,4,.61,3.075,3.075,0,0,1,2.582.946H.656ZM2.414.068A2.484,2.484,0,0,0,3.5-.157a1.792,1.792,0,0,0,.729-.692,2.094,2.094,0,0,0,.262-1.066,2.126,2.126,0,0,0-.28-1.141,1.692,1.692,0,0,0-.729-.654,2.07,2.07,0,0,0-.935-.224H1.591v4Zm0,0" transform="translate(-0.656 4.813)" fill="#570026"/>
          </g>
        </g>
      </g>
      <g id="Group_54722" data-name="Group 54722" transform="translate(141.835 98.632)">
        <g id="Group_54721" data-name="Group 54721">
          <g id="Group_54720" data-name="Group 54720">
            <path id="Path_7765" data-name="Path 7765" d="M1.51-1.129a1.177,1.177,0,0,0,.168.617,1.356,1.356,0,0,0,.467.467,1.332,1.332,0,0,0,.673.168,1.325,1.325,0,0,0,.654-.168,1.223,1.223,0,0,0,.486-.449,1.2,1.2,0,0,0,.187-.636V-4.812h.9v3.7a2.086,2.086,0,0,1-.3,1.1,2,2,0,0,1-.8.748A2.363,2.363,0,0,1,2.819,1,2.466,2.466,0,0,1,1.678.741a1.967,1.967,0,0,1-.8-.748,2.163,2.163,0,0,1-.28-1.1v-3.7H1.51Zm0,0" transform="translate(-0.594 4.813)" fill="#570026"/>
          </g>
        </g>
      </g>
      <g id="Group_54725" data-name="Group 54725" transform="translate(150.748 98.632)">
        <g id="Group_54724" data-name="Group 54724">
          <g id="Group_54723" data-name="Group 54723">
            <path id="Path_7766" data-name="Path 7766" d="M1.591-4.812V.068H4.433V.946H.656V-4.812Zm0,0" transform="translate(-0.656 4.813)" fill="#570026"/>
          </g>
        </g>
      </g>
      <g id="Group_54728" data-name="Group 54728" transform="translate(158.547 98.576)">
        <g id="Group_54727" data-name="Group 54727">
          <g id="Group_54726" data-name="Group 54726">
            <path id="Path_7767" data-name="Path 7767" d="M5.3.432a2.042,2.042,0,0,1-.823.411,3.91,3.91,0,0,1-1.084.168A3.4,3.4,0,0,1,1.8.657,2.646,2.646,0,0,1,.733-.353a2.745,2.745,0,0,1-.374-1.44A3.332,3.332,0,0,1,.752-3.457,2.744,2.744,0,0,1,1.837-4.5a3.148,3.148,0,0,1,1.477-.355,3.92,3.92,0,0,1,.954.112,3.354,3.354,0,0,1,.785.3l-.3.86a2.347,2.347,0,0,0-.636-.243,2.514,2.514,0,0,0-.673-.112,2.153,2.153,0,0,0-1.571.561,2.018,2.018,0,0,0-.561,1.515A1.969,1.969,0,0,0,1.575-.839a1.7,1.7,0,0,0,.748.692A2.409,2.409,0,0,0,3.426.1a2.985,2.985,0,0,0,.5-.037,1.8,1.8,0,0,0,.449-.15v-.954H3.295v-.9h2Zm0,0" transform="translate(-0.359 4.859)" fill="#570026"/>
          </g>
        </g>
      </g>
      <g id="Group_54731" data-name="Group 54731" transform="translate(168.053 98.632)">
        <g id="Group_54730" data-name="Group 54730">
          <g id="Group_54729" data-name="Group 54729">
            <path id="Path_7768" data-name="Path 7768" d="M4.489-4.812v.879h-2.9V-2.4h2.58v.9H1.591V.068H4.6V.946H.656V-4.812Zm0,0" transform="translate(-0.656 4.813)" fill="#570026"/>
          </g>
        </g>
      </g>
      <g id="Group_54734" data-name="Group 54734" transform="translate(63.975 25.204)">
        <g id="Group_54733" data-name="Group 54733">
          <g id="Group_54732" data-name="Group 54732">
            <path id="Path_7769" data-name="Path 7769" d="M41.851-33.176a13.734,13.734,0,0,0-3.132-.435c-1.832-.173-15.328-.7-16.982-.7L19.3-34.392H17.647a13.023,13.023,0,0,1,1.566-1.655,5.961,5.961,0,0,0,1.042-1.047,26.594,26.594,0,0,1,2.178-2.089l.869-.7.351-.435c.262-.262.262-.351.089-.608a.462.462,0,0,0-.351-.262,3.617,3.617,0,0,0-1.3,1.042l-.785.7c-.958.785-1.131.869-1.3,1.131-.178.178-2.44,2.351-2.791,2.613l-.257.262-.7.785-.351.346-12.275.262-1.917.173c-1.482.089-5.661.439-6.357.612s-1.047.524-.785.781a8.545,8.545,0,0,0,3.048-.257,33.477,33.477,0,0,1,4.441-.439l2.178-.173,2.351-.084,2.875-.178c.781-.084,3.744-.084,5.656-.084-.084.173-.257.262-.346.435l-.262.173-.262.351-1.042,1.131c-1.22,1.3-5.053,5.483-5.834,6.614,0,0-1.4,1.655-1.4,1.571a3.8,3.8,0,0,1-.7.781c-.435.439-1.131,1.22-2.959,3.4l-.7.781-.7.874c-.173.262-.262.435-.346.435-.178,0-.612.524-2.005,2.351a8.911,8.911,0,0,1-1.131,1.22c-.089.173-.958,1.215-1.917,2.351l-2.178,2.7-3.567,4.791c-.874,1.215-1.393,1.912-1.571,1.828v.173a.967.967,0,0,1-.084.435c-.089.262-.173.351-.262.262a.291.291,0,0,1-.089.173c0,.178,0,.262-.084.262A3.2,3.2,0,0,0-12.746.438a2.753,2.753,0,0,0-.346,1.655c.173.519.262.608.524.7.346,0,.524,0,.608-.178.173-.257.173-.257-.173-.346-.351,0-.351-.089-.351-.435a13.918,13.918,0,0,1,1.393-2.875c1.655-2.44,6.011-8.012,8.8-11.233L-.9-13.931l2.875-3.309,2.351-2.613.781-.954,1.047-1.136c.781-.869,1.477-1.739,2.959-3.482.524-.608,1.131-1.22,1.393-1.477a12.871,12.871,0,0,0,.958-1.136L12.944-29.6c.958-1.042,1.566-1.566,2.09-2.262l.781-.785c.262-.346.524-.524.7-.781l.439-.262a7.811,7.811,0,0,1,1.477,0h.351c5.048.084,17.151.435,18.894.7a16.037,16.037,0,0,0,1.828.262c.869,0,.869,0,.7.346a.289.289,0,0,0,0,.435c.173.173.262.262.351.173l.869-.346C42.375-32.564,42.464-32.826,41.851-33.176Zm0,0" transform="translate(13.125 41.184)" fill="#570026"/>
          </g>
        </g>
      </g>
      <g id="Group_54737" data-name="Group 54737" transform="translate(85.451 26.422)">
        <g id="Group_54736" data-name="Group 54736">
          <g id="Group_54735" data-name="Group 54735">
            <path id="Path_7770" data-name="Path 7770" d="M31.848-39.985c-.173-.262-1.047-.262-1.916-.089l-.958.173a8.419,8.419,0,0,0-1.739.524l-.7.173a30.815,30.815,0,0,0-6.1,2.613l-.958.524-.785.524-1.477.958c-1.047.7-2.267,1.566-2.351,1.655l-2.786,2.174-1.832,1.571L7.293-26.579a12.331,12.331,0,0,1-1.22,1.136l-.781.257c-.439.178-.785.262-.785.351a.309.309,0,0,1-.173.089,2.3,2.3,0,0,0-.7.257,1.468,1.468,0,0,0-.524.262l-.869.351-2.7.958a2.577,2.577,0,0,0-.7.346c-.173.351-.089.524.262.524a5.247,5.247,0,0,0,.869-.173l.874-.435a3.036,3.036,0,0,1,.954-.351l1.571-.524c.084-.084.262-.084.435-.173,0-.089.608-.262.7-.173A20.317,20.317,0,0,1,3.025-22.4L-.023-19.174l-.346.346-.785.958L-1.939-17c-.257.262-.608.612-.608.958,0,.262.351.435.524.524a.341.341,0,0,0,.435-.089l.262-.173.435-.346.262-.262.262-.173L-.2-16.65.851-17.7l.519-.257h.089l.524-.351a2.4,2.4,0,0,1,.958-.435l.954-.351c.262-.084.439-.173.439-.084s0,.084-.089.084a4.9,4.9,0,0,0-.958,1.309l-.262.524c-.346.781-.346,1.131.089,1.477.262.173.435.262.7.173l.173-.084A21.3,21.3,0,0,0,7.382-17c.519-.173.346-.257,1.566-.781.173,0,.524-.351.958-.524a8.794,8.794,0,0,1,1.917-.869c.781-.524.173-.524-.178-.524l-2.174.958c-1.131.524-4.179,1.828-5.053,2.178l-.346.084H3.895c-.084,0,0-.346.262-.869l.089-.262a9.071,9.071,0,0,1,1.482-1.744c.346-.435.435-.519.346-.7-.173-.257-.524-.257-1.655.089-1.393.524-2.174.785-2.87,1.131-.089,0-.089.089-.178.089-.173.084-.346.173-.435.084v-.173c.262-.435,2.613-2.786,4.268-4.441l1.482-1.477.435-.262,3.31-1.482c1.131-.524,1.828-.785,2-.869l1.482-.612a8.762,8.762,0,0,1,1.477-.608,3.122,3.122,0,0,0,.958-.351c1.828-.869,5.834-2.7,6.792-3.3l.524-.178c.262-.084.435-.262.435-.346a1.963,1.963,0,0,1,.435-.262,1.921,1.921,0,0,0,.785-.351l1.3-.781c.439-.351,1.309-.874,1.832-1.309l1.3-.958a8.469,8.469,0,0,0,1.917-2A1.345,1.345,0,0,0,31.848-39.985Zm-.869,1.3-.524.608c-.173.262-.435.612-.524.612l-.869.7A20.633,20.633,0,0,1,26.1-34.675L23.139-33.02,22.1-32.5l-.958.519-1.655.785a6.735,6.735,0,0,1-1.393.7l-1.22.435-1.744.785-1.912.785a7.279,7.279,0,0,1-.958.346,7.765,7.765,0,0,0-.874.351,4.2,4.2,0,0,1-.869.346,10.474,10.474,0,0,0-1.042.524c-.612.262-.874.346-.874.262s0-.262.089-.262l1.047-.869a66.377,66.377,0,0,1,5.137-4.268l.7-.524a46.386,46.386,0,0,1,6.268-4.006,39.4,39.4,0,0,1,5.483-2.089l1.393-.435a7.666,7.666,0,0,1,2.005-.173.659.659,0,0,1,.346.346A.883.883,0,0,1,30.979-38.681Zm0,0" transform="translate(2.547 40.194)" fill="#570026"/>
          </g>
        </g>
      </g>
      <g id="Group_54740" data-name="Group 54740" transform="translate(98.433 44.879)">
        <g id="Group_54739" data-name="Group 54739">
          <g id="Group_54738" data-name="Group 54738">
            <path id="Path_7771" data-name="Path 7771" d="M-.441-18.918a9.923,9.923,0,0,0,3.132-1.136l3.922-1.739,1.131-.524a.306.306,0,0,0-.089-.435l-.089-.089H7.309l-.178.089C2.345-20.662-.53-19.615-1.053-19.792c-.173-.084-.173-.173.089-.435.173-.346.346-.435.958-.608A10.153,10.153,0,0,0,3.3-22.578c1.393-.958,2-1.477,1.917-1.739-.178-.524-.958-.435-2.351.084A10.093,10.093,0,0,0-1.75-20.662c-.435.7-.519.958-.346,1.3C-2.011-18.745-1.834-18.745-.441-18.918Zm.7-2.875a6.259,6.259,0,0,1,2.174-1.482c.524-.262,1.393-.608,1.393-.435a24.969,24.969,0,0,1-2.174,1.393C.69-21.793.078-21.62.256-21.793Zm0,0" transform="translate(2.18 24.669)" fill="#570026"/>
          </g>
        </g>
      </g>
    </g>
  </g>
</svg>
