<svg id="Smaller_Logo_Dark_BG" data-name="Smaller Logo Dark BG" xmlns="http://www.w3.org/2000/svg" xmlns:xlink="http://www.w3.org/1999/xlink" width="136.627" height="107.039" viewBox="0 0 136.627 107.039">
  <defs>
    <clipPath id="clip-path">
      <path id="Path_7745" data-name="Path 7745" d="M47.578,48H151.953V155.039H47.578Zm0,0" transform="translate(-47.578 -48)" fill="#fff"/>
    </clipPath>
  </defs>
  <g id="Group_54662" data-name="Group 54662" transform="translate(12.122 0)" clip-path="url(#clip-path)">
    <path id="Path_7744" data-name="Path 7744" d="M86.644,50q2.539-.632,5.126-1.015t5.2-.516q2.611-.137,5.225-.017t5.2.489q2.591.369,5.134.985t5.011,1.477q2.467.86,4.84,1.949t4.63,2.408q2.254,1.315,4.372,2.839t4.073,3.247q1.958,1.725,3.735,3.625t3.366,3.965q1.586,2.069,2.961,4.272t2.525,4.535Q149.2,80.571,150.12,83t1.6,4.937q.128.46.245.941l-.822.283c-.085-.334-.17-.668-.262-1q-.667-2.483-1.584-4.889t-2.056-4.714q-1.147-2.306-2.512-4.491t-2.944-4.225q-1.581-2.043-3.349-3.922t-3.715-3.578q-1.948-1.7-4.052-3.2t-4.348-2.792q-2.244-1.29-4.6-2.357t-4.814-1.9q-2.453-.83-4.976-1.423t-5.1-.937q-2.57-.344-5.161-.435t-5.181.064q-2.59.162-5.15.567T86.27,50.984c.133-.327.258-.651.374-.985ZM48.4,114.5c.068.276.139.546.214.823q.673,2.489,1.588,4.9t2.067,4.724q1.147,2.311,2.522,4.5t2.954,4.235q1.586,2.043,3.362,3.925t3.729,3.581q1.958,1.7,4.069,3.2t4.365,2.793q2.249,1.29,4.616,2.353t4.83,1.892q2.463.829,4.994,1.416t5.109.925q2.58.338,5.178.421c1.73.057,3.464.03,5.19-.081s3.451-.306,5.161-.586,3.4-.641,5.079-1.082c-.136.324-.265.651-.387.984q-2.54.642-5.134,1.035T102.7,155q-2.621.141-5.238.03t-5.218-.472q-2.6-.364-5.147-.978t-5.024-1.467q-2.478-.855-4.858-1.942t-4.647-2.4q-2.259-1.31-4.385-2.839t-4.089-3.247q-1.963-1.725-3.75-3.628t-3.376-3.973q-1.591-2.068-2.971-4.279t-2.536-4.545q-1.158-2.332-2.08-4.768t-1.6-4.943c-.068-.253-.133-.506-.2-.759Zm0,0" transform="translate(-47.578 -48.054)" fill="#fff" fill-rule="evenodd"/>
  </g>
  <g id="Group_54665" data-name="Group 54665" transform="translate(0 47.813)">
    <g id="Group_54664" data-name="Group 54664">
      <g id="Group_54663" data-name="Group 54663">
        <path id="Path_7746" data-name="Path 7746" d="M7.881-2.07a4.194,4.194,0,0,1-1.074.557,4.572,4.572,0,0,1-1.591.272,4.717,4.717,0,0,1-2.42-.6A4.154,4.154,0,0,1,1.231-3.457,4.679,4.679,0,0,1,.687-5.7a5.082,5.082,0,0,1,.544-2.38A4.01,4.01,0,0,1,2.754-9.712,4.312,4.312,0,0,1,5-10.3a4.97,4.97,0,0,1,1.5.218,5.229,5.229,0,0,1,1.21.544L7.01-7.89a3.209,3.209,0,0,0-1.944-.721,2.35,2.35,0,0,0-1.278.381A2.669,2.669,0,0,0,2.85-7.21,2.957,2.957,0,0,0,2.51-5.8a3.332,3.332,0,0,0,.326,1.509,2.448,2.448,0,0,0,.925,1.006,2.747,2.747,0,0,0,1.414.354,3.172,3.172,0,0,0,1.169-.2,2.659,2.659,0,0,0,.816-.5Zm0,0" transform="translate(-0.687 10.297)" fill="#fff"/>
      </g>
    </g>
  </g>
  <g id="Group_54668" data-name="Group 54668" transform="translate(18.039 47.813)">
    <g id="Group_54667" data-name="Group 54667">
      <g id="Group_54666" data-name="Group 54666">
        <path id="Path_7747" data-name="Path 7747" d="M.687-5.755A4.406,4.406,0,0,1,1.3-8.013,4.582,4.582,0,0,1,2.945-9.671,4.367,4.367,0,0,1,5.215-10.3a4.281,4.281,0,0,1,2.244.626A4.683,4.683,0,0,1,9.132-8.013a4.355,4.355,0,0,1,.626,2.257,4.367,4.367,0,0,1-.626,2.271A4.7,4.7,0,0,1,7.459-1.839a4.384,4.384,0,0,1-2.244.6,4.42,4.42,0,0,1-2.271-.6A4.6,4.6,0,0,1,1.3-3.485,4.419,4.419,0,0,1,.687-5.755Zm1.808,0a2.863,2.863,0,0,0,.367,1.428,2.774,2.774,0,0,0,.993,1.02,2.7,2.7,0,0,0,1.414.381,2.518,2.518,0,0,0,1.36-.381A2.729,2.729,0,0,0,7.6-4.328a2.962,2.962,0,0,0,.354-1.428A2.85,2.85,0,0,0,7.581-7.2,2.725,2.725,0,0,0,6.6-8.23a2.642,2.642,0,0,0-1.387-.381,2.6,2.6,0,0,0-1.373.381A2.786,2.786,0,0,0,2.85-7.2,2.912,2.912,0,0,0,2.5-5.755Zm0,0" transform="translate(-0.687 10.297)" fill="#fff"/>
      </g>
    </g>
  </g>
  <g id="Group_54671" data-name="Group 54671" transform="translate(38.307 47.908)">
    <g id="Group_54670" data-name="Group 54670">
      <g id="Group_54669" data-name="Group 54669">
        <path id="Path_7748" data-name="Path 7748" d="M3.067-10.187v7.179H7.227v1.686H1.313v-8.866Zm0,0" transform="translate(-1.313 10.187)" fill="#fff"/>
      </g>
    </g>
  </g>
  <g id="Group_54674" data-name="Group 54674" transform="translate(55.41 47.907)">
    <g id="Group_54673" data-name="Group 54673">
      <g id="Group_54672" data-name="Group 54672">
        <path id="Path_7749" data-name="Path 7749" d="M2.85-4.6a1.455,1.455,0,0,0,.258.816,2.009,2.009,0,0,0,.68.625,1.8,1.8,0,0,0,.9.231,1.981,1.981,0,0,0,.952-.231,1.891,1.891,0,0,0,.68-.625A1.521,1.521,0,0,0,6.562-4.6v-5.589H8.289v5.629A3.1,3.1,0,0,1,7.8-2.845a3.335,3.335,0,0,1-1.305,1.2,3.873,3.873,0,0,1-1.808.422,3.864,3.864,0,0,1-1.808-.422,3.321,3.321,0,0,1-1.292-1.2,3.141,3.141,0,0,1-.476-1.713v-5.629H2.85Zm0,0" transform="translate(-1.109 10.187)" fill="#fff"/>
      </g>
    </g>
  </g>
  <g id="Group_54677" data-name="Group 54677" transform="translate(74.24 47.542)">
    <g id="Group_54676" data-name="Group 54676">
      <g id="Group_54675" data-name="Group 54675">
        <path id="Path_7750" data-name="Path 7750" d="M10.45-10.609v9.233H8.7V-5.606L5.813-1.5H5.786L3-5.334v3.957H1.313v-9.233h.014l4.5,6.377,4.6-6.377Zm0,0" transform="translate(-1.313 10.609)" fill="#fff"/>
      </g>
    </g>
  </g>
  <g id="Group_54680" data-name="Group 54680" transform="translate(95.212 47.908)">
    <g id="Group_54679" data-name="Group 54679">
      <g id="Group_54678" data-name="Group 54678">
        <path id="Path_7751" data-name="Path 7751" d="M5.881-6a2.832,2.832,0,0,1,1.088.857,1.95,1.95,0,0,1,.394,1.21A2.286,2.286,0,0,1,6.48-1.947a3.742,3.742,0,0,1-2.216.625H1.313v-8.866H3.923a3.749,3.749,0,0,1,2.2.571,1.9,1.9,0,0,1,.816,1.659,2.319,2.319,0,0,1-.286,1.169A2.1,2.1,0,0,1,5.881-6ZM3.067-6.557H4.127a.917.917,0,0,0,.734-.3,1.049,1.049,0,0,0,.272-.734.816.816,0,0,0-.3-.68A1.336,1.336,0,0,0,4-8.5H3.067Zm1.115,3.6A1.812,1.812,0,0,0,5.174-3.2a.82.82,0,0,0,.381-.734q0-.938-1.5-.938H3.067v1.917Zm0,0" transform="translate(-1.313 10.187)" fill="#fff"/>
      </g>
    </g>
  </g>
  <g id="Group_54683" data-name="Group 54683" transform="translate(112.303 47.907)">
    <g id="Group_54682" data-name="Group 54682">
      <g id="Group_54681" data-name="Group 54681">
        <path id="Path_7752" data-name="Path 7752" d="M2.85-4.6a1.455,1.455,0,0,0,.258.816,2.009,2.009,0,0,0,.68.625,1.8,1.8,0,0,0,.9.231,1.981,1.981,0,0,0,.952-.231,1.891,1.891,0,0,0,.68-.625A1.521,1.521,0,0,0,6.562-4.6v-5.589H8.289v5.629A3.1,3.1,0,0,1,7.8-2.845a3.335,3.335,0,0,1-1.305,1.2,3.873,3.873,0,0,1-1.808.422,3.864,3.864,0,0,1-1.808-.422,3.321,3.321,0,0,1-1.292-1.2,3.141,3.141,0,0,1-.476-1.713v-5.629H2.85Zm0,0" transform="translate(-1.109 10.187)" fill="#fff"/>
      </g>
    </g>
  </g>
  <g id="Group_54686" data-name="Group 54686" transform="translate(130.468 47.853)">
    <g id="Group_54685" data-name="Group 54685">
      <g id="Group_54684" data-name="Group 54684">
        <path id="Path_7753" data-name="Path 7753" d="M5.931-8.047a4.327,4.327,0,0,0-2.012-.639,1.538,1.538,0,0,0-.9.231.769.769,0,0,0-.313.68.917.917,0,0,0,.462.748,5.684,5.684,0,0,0,1.237.6,5.139,5.139,0,0,1,1.061.53,2.263,2.263,0,0,1,.748.816,2.611,2.611,0,0,1,.3,1.305A2.429,2.429,0,0,1,6.162-2.5a2.428,2.428,0,0,1-1.047.925,3.612,3.612,0,0,1-1.632.34,5.647,5.647,0,0,1-1.591-.231A4.809,4.809,0,0,1,.438-2.187l.775-1.36a4.1,4.1,0,0,0,1.047.558,3.119,3.119,0,0,0,1.061.218A1.906,1.906,0,0,0,4.286-3a.837.837,0,0,0,.408-.775q0-.678-1.292-1.2a10.556,10.556,0,0,1-1.265-.571,2.517,2.517,0,0,1-.87-.789A2.238,2.238,0,0,1,.9-7.639a2.381,2.381,0,0,1,.748-1.836A3.116,3.116,0,0,1,3.66-10.25a5.029,5.029,0,0,1,1.645.231A5.578,5.578,0,0,1,6.6-9.393Zm0,0" transform="translate(-0.438 10.25)" fill="#fff"/>
      </g>
    </g>
  </g>
  <g id="Group_54689" data-name="Group 54689" transform="translate(27.167 71.727)">
    <g id="Group_54688" data-name="Group 54688">
      <g id="Group_54687" data-name="Group 54687">
        <path id="Path_7754" data-name="Path 7754" d="M3.444-4.812v.639H1.336v1.115H3.213v.653H1.336v1.142H3.525v.639H.656V-4.812Zm0,0" transform="translate(-0.656 4.812)" fill="#fff"/>
      </g>
    </g>
  </g>
  <g id="Group_54692" data-name="Group 54692" transform="translate(32.836 71.727)">
    <g id="Group_54691" data-name="Group 54691">
      <g id="Group_54690" data-name="Group 54690">
        <path id="Path_7755" data-name="Path 7755" d="M2.977-.624,1.944-2.2,1.033-.624H.2L1.576-2.786.258-4.812h.857L2.093-3.3l.884-1.509h.816L2.46-2.746,3.834-.624Zm0,0" transform="translate(-0.203 4.812)" fill="#fff"/>
      </g>
    </g>
  </g>
  <g id="Group_54695" data-name="Group 54695" transform="translate(39.498 71.727)">
    <g id="Group_54694" data-name="Group 54694">
      <g id="Group_54693" data-name="Group 54693">
        <path id="Path_7756" data-name="Path 7756" d="M1.839-4.812a1.581,1.581,0,0,1,1.115.367,1.233,1.233,0,0,1,.408.979,1.568,1.568,0,0,1-.15.68,1.142,1.142,0,0,1-.462.517,1.542,1.542,0,0,1-.816.19h-.6V-.624H.656V-4.812Zm.1,2.094a.733.733,0,0,0,.449-.122.707.707,0,0,0,.231-.286A.769.769,0,0,0,2.7-3.453a.773.773,0,0,0-.177-.49.654.654,0,0,0-.571-.231H1.336v1.455Zm0,0" transform="translate(-0.656 4.812)" fill="#fff"/>
      </g>
    </g>
  </g>
  <g id="Group_54698" data-name="Group 54698" transform="translate(45.291 71.727)">
    <g id="Group_54697" data-name="Group 54697">
      <g id="Group_54696" data-name="Group 54696">
        <path id="Path_7757" data-name="Path 7757" d="M1.336-4.812v3.549H3.4v.639H.656V-4.812Zm0,0" transform="translate(-0.656 4.812)" fill="#fff"/>
      </g>
    </g>
  </g>
  <g id="Group_54701" data-name="Group 54701" transform="translate(50.934 71.686)">
    <g id="Group_54700" data-name="Group 54700">
      <g id="Group_54699" data-name="Group 54699">
        <path id="Path_7758" data-name="Path 7758" d="M.359-2.725A2.069,2.069,0,0,1,.645-3.785a2.209,2.209,0,0,1,.789-.775,2.039,2.039,0,0,1,1.074-.3,2.018,2.018,0,0,1,1.061.3,2.105,2.105,0,0,1,.775.789,2,2,0,0,1,.3,1.047A2.091,2.091,0,0,1,4.357-1.65a2.105,2.105,0,0,1-.789.775A2.069,2.069,0,0,1,2.508-.59,2.148,2.148,0,0,1,1.434-.862a2.209,2.209,0,0,1-.789-.775A2.113,2.113,0,0,1,.359-2.725Zm.693,0a1.475,1.475,0,0,0,.19.748,1.593,1.593,0,0,0,.53.544,1.421,1.421,0,0,0,.748.2,1.385,1.385,0,0,0,.721-.19,1.5,1.5,0,0,0,.517-.544,1.5,1.5,0,0,0,.2-.761,1.429,1.429,0,0,0-.2-.748,1.506,1.506,0,0,0-.53-.544,1.336,1.336,0,0,0-.721-.2,1.421,1.421,0,0,0-.748.2,1.5,1.5,0,0,0-.517.544A1.484,1.484,0,0,0,1.053-2.725Zm0,0" transform="translate(-0.359 4.859)" fill="#fff"/>
      </g>
    </g>
  </g>
  <g id="Group_54704" data-name="Group 54704" transform="translate(58.384 71.727)">
    <g id="Group_54703" data-name="Group 54703">
      <g id="Group_54702" data-name="Group 54702">
        <path id="Path_7759" data-name="Path 7759" d="M2.954-.624,2-2.079H1.336V-.624H.656V-4.812H1.839a1.664,1.664,0,0,1,1.129.367,1.222,1.222,0,0,1,.422.979,1.634,1.634,0,0,1-.163.721,1.108,1.108,0,0,1-.517.5L3.729-.624ZM1.336-2.718h.6a.693.693,0,0,0,.571-.218.775.775,0,0,0,.19-.5.864.864,0,0,0-.068-.326.692.692,0,0,0-.245-.286.71.71,0,0,0-.435-.122H1.336Zm0,0" transform="translate(-0.656 4.812)" fill="#fff"/>
      </g>
    </g>
  </g>
  <g id="Group_54707" data-name="Group 54707" transform="translate(64.516 71.727)">
    <g id="Group_54706" data-name="Group 54706">
      <g id="Group_54705" data-name="Group 54705">
        <path id="Path_7760" data-name="Path 7760" d="M3.444-4.812v.639H1.336v1.115H3.213v.653H1.336v1.142H3.525v.639H.656V-4.812Zm0,0" transform="translate(-0.656 4.812)" fill="#fff"/>
      </g>
    </g>
  </g>
  <g id="Group_54710" data-name="Group 54710" transform="translate(74.431 71.551)">
    <g id="Group_54709" data-name="Group 54709">
      <g id="Group_54708" data-name="Group 54708">
        <path id="Path_7761" data-name="Path 7761" d="M3.24-.651,2.9-1.1a1.334,1.334,0,0,1-.476.381,1.7,1.7,0,0,1-.693.136,1.555,1.555,0,0,1-.707-.163,1.312,1.312,0,0,1-.5-.449,1.238,1.238,0,0,1-.177-.653,1.088,1.088,0,0,1,.3-.761A1.7,1.7,0,0,1,1.4-3.085L1.3-3.234A1.544,1.544,0,0,1,.983-4.05a.932.932,0,0,1,.122-.462.917.917,0,0,1,.354-.367,1.182,1.182,0,0,1,.571-.136,1.476,1.476,0,0,1,.625.136,1.512,1.512,0,0,1,.49.354l-.34.449a1.97,1.97,0,0,0-.354-.286.649.649,0,0,0-.313-.1.482.482,0,0,0-.354.136A.441.441,0,0,0,1.663-4a.562.562,0,0,0,.1.313c.061.1.1.156.1.163l.979,1.292.354-.925H3.8L3.226-1.7,4.015-.651Zm-1.414-.53a.766.766,0,0,0,.721-.381L1.758-2.622a.831.831,0,0,0-.517.245.668.668,0,0,0-.2.49.649.649,0,0,0,.231.517A.835.835,0,0,0,1.826-1.181Zm0,0" transform="translate(-0.344 5.016)" fill="#fff"/>
      </g>
    </g>
  </g>
  <g id="Group_54713" data-name="Group 54713" transform="translate(85.317 71.727)">
    <g id="Group_54712" data-name="Group 54712">
      <g id="Group_54711" data-name="Group 54711">
        <path id="Path_7762" data-name="Path 7762" d="M1.336-4.812V-.624H.656V-4.812Zm0,0" transform="translate(-0.656 4.812)" fill="#fff"/>
      </g>
    </g>
  </g>
  <g id="Group_54716" data-name="Group 54716" transform="translate(89.417 71.577)">
    <g id="Group_54715" data-name="Group 54715">
      <g id="Group_54714" data-name="Group 54714">
        <path id="Path_7763" data-name="Path 7763" d="M4.355-4.835V-.5H4.341L1.323-3.421,1.336-.647H.656V-4.984H.7L3.7-2.02,3.688-4.835Zm0,0" transform="translate(-0.656 4.984)" fill="#fff"/>
      </g>
    </g>
  </g>
  <g id="Group_54719" data-name="Group 54719" transform="translate(96.546 71.727)">
    <g id="Group_54718" data-name="Group 54718">
      <g id="Group_54717" data-name="Group 54717">
        <path id="Path_7764" data-name="Path 7764" d="M.656-4.812h1.2A2.507,2.507,0,0,1,3.158-4.5a1.9,1.9,0,0,1,.748.8,2.415,2.415,0,0,1,.231,1.033A2,2,0,0,1,3.852-1.59a1.987,1.987,0,0,1-.761.721,2.236,2.236,0,0,1-1.033.245H.656ZM1.934-1.264a1.806,1.806,0,0,0,.789-.163,1.3,1.3,0,0,0,.53-.5,1.523,1.523,0,0,0,.19-.775,1.546,1.546,0,0,0-.2-.829,1.23,1.23,0,0,0-.53-.476,1.505,1.505,0,0,0-.68-.163H1.336v2.91Zm0,0" transform="translate(-0.656 4.812)" fill="#fff"/>
      </g>
    </g>
  </g>
  <g id="Group_54722" data-name="Group 54722" transform="translate(103.145 71.727)">
    <g id="Group_54721" data-name="Group 54721">
      <g id="Group_54720" data-name="Group 54720">
        <path id="Path_7765" data-name="Path 7765" d="M1.26-2.134a.856.856,0,0,0,.122.449.986.986,0,0,0,.34.34.969.969,0,0,0,.49.122.963.963,0,0,0,.476-.122.889.889,0,0,0,.354-.326.872.872,0,0,0,.136-.462V-4.812H3.83V-2.12a1.517,1.517,0,0,1-.218.8,1.452,1.452,0,0,1-.585.544,1.719,1.719,0,0,1-.816.19,1.793,1.793,0,0,1-.829-.19A1.431,1.431,0,0,1,.8-1.318a1.573,1.573,0,0,1-.2-.8V-4.812H1.26Zm0,0" transform="translate(-0.594 4.812)" fill="#fff"/>
      </g>
    </g>
  </g>
  <g id="Group_54725" data-name="Group 54725" transform="translate(109.627 71.727)">
    <g id="Group_54724" data-name="Group 54724">
      <g id="Group_54723" data-name="Group 54723">
        <path id="Path_7766" data-name="Path 7766" d="M1.336-4.812v3.549H3.4v.639H.656V-4.812Zm0,0" transform="translate(-0.656 4.812)" fill="#fff"/>
      </g>
    </g>
  </g>
  <g id="Group_54728" data-name="Group 54728" transform="translate(115.298 71.686)">
    <g id="Group_54727" data-name="Group 54727">
      <g id="Group_54726" data-name="Group 54726">
        <path id="Path_7767" data-name="Path 7767" d="M3.949-1.011a1.485,1.485,0,0,1-.6.3,2.843,2.843,0,0,1-.789.122A2.474,2.474,0,0,1,1.406-.848a1.925,1.925,0,0,1-.775-.734A2,2,0,0,1,.359-2.629,2.423,2.423,0,0,1,.645-3.84,2,2,0,0,1,1.434-4.6a2.289,2.289,0,0,1,1.074-.258,2.851,2.851,0,0,1,.693.082,2.439,2.439,0,0,1,.571.218l-.218.625a1.707,1.707,0,0,0-.462-.177,1.828,1.828,0,0,0-.49-.082,1.566,1.566,0,0,0-1.142.408,1.467,1.467,0,0,0-.408,1.1,1.432,1.432,0,0,0,.19.748,1.24,1.24,0,0,0,.544.5,1.752,1.752,0,0,0,.8.177,2.171,2.171,0,0,0,.367-.027,1.312,1.312,0,0,0,.326-.109v-.693H2.494v-.653H3.949Zm0,0" transform="translate(-0.359 4.859)" fill="#fff"/>
      </g>
    </g>
  </g>
  <g id="Group_54731" data-name="Group 54731" transform="translate(122.211 71.727)">
    <g id="Group_54730" data-name="Group 54730">
      <g id="Group_54729" data-name="Group 54729">
        <path id="Path_7768" data-name="Path 7768" d="M3.444-4.812v.639H1.336v1.115H3.213v.653H1.336v1.142H3.525v.639H.656V-4.812Zm0,0" transform="translate(-0.656 4.812)" fill="#fff"/>
      </g>
    </g>
  </g>
  <g id="Group_54734" data-name="Group 54734" transform="translate(46.524 18.329)">
    <g id="Group_54733" data-name="Group 54733">
      <g id="Group_54732" data-name="Group 54732">
        <path id="Path_7769" data-name="Path 7769" d="M26.855-35.36a9.988,9.988,0,0,0-2.278-.316c-1.333-.126-11.147-.506-12.35-.506l-1.771-.061h-1.2a9.471,9.471,0,0,1,1.139-1.2,4.335,4.335,0,0,0,.758-.761,19.338,19.338,0,0,1,1.584-1.52l.632-.507.255-.316c.19-.19.19-.255.065-.442a.336.336,0,0,0-.255-.19,2.63,2.63,0,0,0-.948.758l-.571.506c-.7.571-.823.632-.948.823-.129.129-1.775,1.71-2.029,1.9l-.187.19-.506.571-.255.252-8.927.19-1.394.126c-1.078.065-4.117.32-4.623.445s-.761.381-.571.568a6.214,6.214,0,0,0,2.216-.187,24.345,24.345,0,0,1,3.229-.32L-.5-35.486l1.71-.061L3.3-35.677c.568-.061,2.723-.061,4.113-.061-.061.126-.187.19-.252.316l-.19.126-.19.255-.758.823c-.887.948-3.675,3.987-4.242,4.81,0,0-1.016,1.2-1.016,1.142a2.767,2.767,0,0,1-.507.568c-.316.32-.823.887-2.152,2.471l-.507.568-.507.636c-.126.19-.19.316-.252.316-.129,0-.445.381-1.458,1.71a6.48,6.48,0,0,1-.823.887c-.065.126-.7.884-1.394,1.71l-1.584,1.961-2.594,3.484c-.636.884-1.013,1.39-1.142,1.329v.126a.7.7,0,0,1-.061.316c-.065.19-.126.255-.19.19a.212.212,0,0,1-.065.126c0,.129,0,.19-.061.19a2.326,2.326,0,0,0-.32.761,2,2,0,0,0-.252,1.2c.126.377.19.442.381.507.252,0,.381,0,.442-.129.126-.187.126-.187-.126-.252-.255,0-.255-.065-.255-.316a10.121,10.121,0,0,1,1.013-2.091c1.2-1.774,4.372-5.826,6.4-8.169l1.013-1.2,2.091-2.407,1.71-1.9.568-.693.761-.826c.568-.632,1.074-1.265,2.152-2.532.381-.442.823-.887,1.013-1.074a9.36,9.36,0,0,0,.7-.826l1.078-1.139c.7-.758,1.139-1.139,1.52-1.645l.568-.571c.19-.252.381-.381.506-.568l.32-.19a5.681,5.681,0,0,1,1.074,0h.255c3.671.061,12.472.316,13.74.506a11.662,11.662,0,0,0,1.329.19c.632,0,.632,0,.506.252a.21.21,0,0,0,0,.316c.126.126.19.19.255.126l.632-.252C27.236-34.915,27.3-35.106,26.855-35.36Zm0,0" transform="translate(13.125 41.184)" fill="#fff"/>
      </g>
    </g>
  </g>
  <g id="Group_54737" data-name="Group 54737" transform="translate(62.142 19.214)">
    <g id="Group_54736" data-name="Group 54736">
      <g id="Group_54735" data-name="Group 54735">
        <path id="Path_7770" data-name="Path 7770" d="M22.466-40.042c-.126-.19-.761-.19-1.394-.065l-.7.126a6.123,6.123,0,0,0-1.265.381l-.506.126a22.41,22.41,0,0,0-4.433,1.9l-.7.381-.571.381-1.074.7c-.761.506-1.649,1.139-1.71,1.2L8.093-33.332,6.761-32.19l-2.152,1.9a8.968,8.968,0,0,1-.887.826l-.568.187c-.32.129-.571.19-.571.255a.225.225,0,0,1-.126.065,1.67,1.67,0,0,0-.507.187,1.068,1.068,0,0,0-.381.19l-.632.255-1.965.7a1.874,1.874,0,0,0-.507.251c-.126.255-.065.381.19.381a3.816,3.816,0,0,0,.632-.126l.636-.316A2.207,2.207,0,0,1,.618-27.7l1.142-.381c.061-.061.19-.061.316-.126,0-.065.442-.19.507-.126A14.775,14.775,0,0,1,1.505-27.25L-.711-24.908l-.252.252-.571.7-.571.632c-.187.19-.442.445-.442.7,0,.19.255.316.381.381a.248.248,0,0,0,.316-.065l.19-.126.316-.251.19-.19.19-.126.126-.065.761-.761L.3-24.021H.366l.381-.255a1.746,1.746,0,0,1,.7-.316l.693-.255c.19-.061.32-.126.32-.061s0,.061-.065.061a3.564,3.564,0,0,0-.7.952l-.19.381c-.252.568-.252.823.065,1.074.19.126.316.19.507.126l.126-.061a15.489,15.489,0,0,0,2.471-.952c.377-.126.252-.187,1.139-.568.126,0,.381-.255.7-.381A6.4,6.4,0,0,1,7.9-24.908c.568-.381.126-.381-.129-.381l-1.581.7c-.823.381-3.039,1.329-3.675,1.584l-.252.061H2.137c-.061,0,0-.252.19-.632l.065-.19A6.6,6.6,0,0,1,3.47-25.037c.252-.316.316-.377.252-.507-.126-.187-.381-.187-1.2.065-1.013.381-1.581.571-2.087.823-.065,0-.065.065-.129.065-.126.061-.252.126-.316.061v-.126c.19-.316,1.9-2.026,3.1-3.229L4.167-28.96l.316-.19L6.89-30.228c.823-.381,1.329-.571,1.455-.632l1.078-.445a6.372,6.372,0,0,1,1.074-.442,2.271,2.271,0,0,0,.7-.255c1.329-.632,4.242-1.961,4.939-2.4l.381-.129c.19-.061.316-.19.316-.252a1.428,1.428,0,0,1,.316-.19,1.4,1.4,0,0,0,.571-.255l.948-.568c.32-.255.952-.636,1.333-.952l.948-.7A6.159,6.159,0,0,0,22.34-38.9.978.978,0,0,0,22.466-40.042Zm-.632.948-.381.442c-.126.19-.316.445-.381.445l-.632.507a15,15,0,0,1-2.152,1.52l-2.155,1.2-.758.381-.7.377-1.2.571a4.9,4.9,0,0,1-1.013.507l-.887.316-1.268.571-1.39.571a5.294,5.294,0,0,1-.7.252,5.647,5.647,0,0,0-.636.255,3.053,3.053,0,0,1-.632.252,7.616,7.616,0,0,0-.758.381c-.445.19-.636.252-.636.19s0-.19.065-.19l.761-.632a48.271,48.271,0,0,1,3.736-3.1l.506-.381a33.733,33.733,0,0,1,4.559-2.913,28.65,28.65,0,0,1,3.988-1.52l1.013-.316a5.575,5.575,0,0,1,1.458-.126.479.479,0,0,1,.252.252A.642.642,0,0,1,21.833-39.094Zm0,0" transform="translate(2.547 40.194)" fill="#fff"/>
      </g>
    </g>
  </g>
  <g id="Group_54740" data-name="Group 54740" transform="translate(71.582 32.637)">
    <g id="Group_54739" data-name="Group 54739">
      <g id="Group_54738" data-name="Group 54738">
        <path id="Path_7771" data-name="Path 7771" d="M-.915-20.487a7.216,7.216,0,0,0,2.278-.826l2.852-1.265.823-.381a.223.223,0,0,0-.065-.316l-.065-.065H4.721l-.129.065C1.111-21.755-.98-20.993-1.36-21.123c-.126-.061-.126-.126.065-.316.126-.252.252-.316.7-.442a7.383,7.383,0,0,0,2.407-1.268c1.013-.7,1.455-1.074,1.394-1.265-.129-.381-.7-.316-1.71.061a7.34,7.34,0,0,0-3.359,2.6c-.316.506-.377.7-.252.948C-2.057-20.361-1.928-20.361-.915-20.487Zm.507-2.091a4.551,4.551,0,0,1,1.581-1.078c.381-.19,1.013-.442,1.013-.316A18.158,18.158,0,0,1,.6-22.958C-.092-22.577-.538-22.452-.409-22.577Zm0,0" transform="translate(2.18 24.669)" fill="#fff"/>
      </g>
    </g>
  </g>
</svg>
