<svg xmlns="http://www.w3.org/2000/svg" xmlns:xlink="http://www.w3.org/1999/xlink" width="63.82" height="65.449" viewBox="0 0 63.82 65.449">
  <defs>
    <clipPath id="clip-path">
      <path id="Path_7745" data-name="Path 7745" d="M47.578,48H111.4v65.449H47.578Zm0,0" transform="translate(-47.578 -48)" fill="#fff"/>
    </clipPath>
  </defs>
  <g id="Smaller_Logo_Dark_BG" data-name="Smaller Logo Dark BG" transform="translate(-12.204 0.107)">
    <g id="Group_54662" data-name="Group 54662" transform="translate(12.204 -0.107)" clip-path="url(#clip-path)">
      <path id="Path_7744" data-name="Path 7744" d="M66.663,49.176q1.241-.309,2.5-.5t2.541-.252q1.275-.067,2.553-.008t2.542.239q1.266.18,2.508.481t2.448.722q1.205.42,2.365.952t2.262,1.176q1.1.642,2.136,1.387t1.99,1.586q.957.843,1.825,1.771t1.644,1.937q.775,1.011,1.446,2.087t1.234,2.216q.566,1.139,1.013,2.324t.781,2.412q.062.225.119.46l-.4.138c-.042-.163-.083-.326-.128-.491q-.326-1.213-.774-2.389t-1-2.3Q95.706,62,95.039,60.932T93.6,58.868q-.772-1-1.636-1.916T90.15,55.2q-.952-.83-1.98-1.563t-2.124-1.364q-1.1-.63-2.249-1.152T81.446,50.2q-1.2-.405-2.431-.7t-2.49-.458Q75.269,48.875,74,48.83t-2.531.031q-1.265.079-2.516.277t-2.476.521c.065-.16.126-.318.183-.481ZM47.98,80.69c.033.135.068.267.1.4q.329,1.216.776,2.395T49.87,85.8q.56,1.129,1.232,2.2t1.443,2.069q.775,1,1.642,1.918T56.01,93.73q.957.831,1.988,1.565T60.13,96.66q1.1.63,2.255,1.15t2.36.924q1.2.4,2.44.692t2.5.452q1.261.165,2.529.206c.845.028,1.692.015,2.536-.04s1.686-.15,2.521-.286,1.662-.313,2.481-.529c-.066.158-.13.318-.189.481q-1.241.314-2.508.506t-2.546.262q-1.281.069-2.559.015t-2.549-.231q-1.268-.178-2.514-.478t-2.455-.716q-1.211-.417-2.373-.949t-2.27-1.174q-1.1-.64-2.142-1.387t-2-1.587q-.959-.843-1.832-1.773t-1.649-1.941q-.777-1.01-1.452-2.09t-1.239-2.22q-.566-1.139-1.016-2.33T47.674,81.2c-.033-.124-.065-.247-.1-.371Zm0,0" transform="translate(-41.163 -41.629)" fill="#fff" stroke="#fff" stroke-width="1" fill-rule="evenodd"/>
    </g>
    <path id="Path_7746" data-name="Path 7746" d="M20.026,11.819a11.276,11.276,0,0,1-2.888,1.5,12.29,12.29,0,0,1-4.277.731,12.681,12.681,0,0,1-6.507-1.608,11.167,11.167,0,0,1-4.2-4.35A12.58,12.58,0,0,1,.688,2.059a13.662,13.662,0,0,1,1.462-6.4A10.779,10.779,0,0,1,6.244-8.725,11.593,11.593,0,0,1,12.276-10.3a13.361,13.361,0,0,1,4.021.585A14.056,14.056,0,0,1,19.55-8.25L17.686-3.826a8.629,8.629,0,0,0-5.228-1.937A6.317,6.317,0,0,0,9.022-4.74,7.174,7.174,0,0,0,6.5-2a7.95,7.95,0,0,0-.914,3.8,8.959,8.959,0,0,0,.877,4.058A6.582,6.582,0,0,0,8.949,8.566a7.386,7.386,0,0,0,3.8.95,8.528,8.528,0,0,0,3.144-.548,7.15,7.15,0,0,0,2.193-1.353Zm0,0" transform="translate(33.757 30.742)" fill="#fff"/>
  </g>
</svg>
