<svg xmlns="http://www.w3.org/2000/svg" width="22" height="22" viewBox="0 0 22 22">
  <g id="se" transform="translate(-56 -222)">
    <g id="Group_56766" data-name="Group 56766" transform="translate(56.333 222.3)">
      <rect id="base" width="22" height="22" transform="translate(-0.333 -0.3)" fill="#fff" opacity="0"/>
      <path id="Path_8078" data-name="Path 8078" d="M18.317,2.7H3.017a1.391,1.391,0,0,0-1.35,1.429V6.988a1.391,1.391,0,0,0,1.35,1.429h15.3a1.391,1.391,0,0,0,1.35-1.429V4.129A1.391,1.391,0,0,0,18.317,2.7Z" transform="translate(0)" fill="#fff"/>
      <path id="Path_8079" data-name="Path 8079" d="M2.467,17.5A1.964,1.964,0,0,0,3,18.843a1.77,1.77,0,0,0,1.278.56H16.942a1.77,1.77,0,0,0,1.278-.56,1.964,1.964,0,0,0,.532-1.346V8.922H2.467Zm10.857-2.858h1.809a.882.882,0,0,1,.64.279.989.989,0,0,1,0,1.347.882.882,0,0,1-.64.279H13.323a.882.882,0,0,1-.64-.279.989.989,0,0,1,0-1.347A.882.882,0,0,1,13.323,14.639Z" transform="translate(0.058 0.297)" fill="#fff"/>
    </g>
  </g>
</svg>
