<svg xmlns="http://www.w3.org/2000/svg" width="22" height="22" viewBox="0 0 22 22">
  <g id="se" transform="translate(-56 -348)">
    <g id="Group_56768" data-name="Group 56768" transform="translate(58.033 350.033)">
      <rect id="base" width="22" height="22" transform="translate(-2.033 -2.033)" fill="#fff" opacity="0"/>
      <path id="Path_8080" data-name="Path 8080" d="M9.963,0a.627.627,0,0,1,.59.411l.635,1.76c.228.057.423.113.588.173.181.065.414.163.7.3l1.479-.782a.631.631,0,0,1,.748.118l1.3,1.345a.614.614,0,0,1,.124.669l-.693,1.625c.115.211.207.392.277.543s.169.391.281.684l1.616.693a.618.618,0,0,1,.377.606l-.119,1.866a.621.621,0,0,1-.414.544l-1.531.544a5.593,5.593,0,0,1-.139.545q-.118.354-.268.7l.769,1.7a.614.614,0,0,1-.151.713l-1.462,1.306a.632.632,0,0,1-.716.086l-1.507-.8a6.506,6.506,0,0,1-.728.33l-.658.246-.585,1.619a.626.626,0,0,1-.576.411l-1.709.039a.627.627,0,0,1-.6-.4L6.9,15.762q-.353-.12-.7-.261-.282-.122-.556-.264l-1.709.73a.631.631,0,0,1-.679-.12L2,14.662a.614.614,0,0,1-.139-.7l.735-1.6q-.147-.284-.272-.579-.146-.361-.27-.729l-1.61-.49A.621.621,0,0,1,0,9.944L.063,8.217a.619.619,0,0,1,.353-.534L2.1,6.871c.078-.287.147-.51.207-.673q.127-.326.282-.64L1.862,4.011A.614.614,0,0,1,2,3.3L3.259,2.108a.631.631,0,0,1,.675-.124l1.707.705a5.939,5.939,0,0,1,.514-.309A5.732,5.732,0,0,1,6.9,2.069L7.49.413A.626.626,0,0,1,8.08,0ZM9.015,6.313A2.683,2.683,0,1,0,11.729,9,2.7,2.7,0,0,0,9.015,6.313Z" transform="translate(-0.027 -0.027)" fill="#fff"/>
    </g>
  </g>
</svg>
