<svg xmlns="http://www.w3.org/2000/svg" width="22" height="22" viewBox="0 0 22 22">
  <g id="sh" transform="translate(-56 -264)">
    <g id="Group_56767" data-name="Group 56767" transform="translate(56.776 263.484)">
      <rect id="base" width="22" height="22" transform="translate(-0.776 0.516)" fill="#fff" opacity="0"/>
      <path id="Path_8074" data-name="Path 8074" d="M21.248,4.307l-.47.5a7.062,7.062,0,0,1,0,9.609l.47.5a7.662,7.662,0,0,0,2.081-5.3A7.666,7.666,0,0,0,21.248,4.307Z" transform="translate(-3.888 -0.118)" fill="#fff"/>
      <path id="Path_8075" data-name="Path 8075" d="M13.713,3.6,8.555,6.744H3.826a2.677,2.677,0,0,0-2.6,2.747,2.676,2.676,0,0,0,2.6,2.746H8.554l5.159,3.145c.316.193.576.036.576-.351V3.95C14.289,3.563,14.029,3.405,13.713,3.6Z" transform="translate(0 0)" fill="#fff"/>
      <path id="Path_8076" data-name="Path 8076" d="M5.42,20.858a1.334,1.334,0,0,0,1.231,1.416,1.333,1.333,0,0,0,1.231-1.416v-6.27H5.42Z" transform="translate(-0.625 -2.072)" fill="#fff"/>
      <path id="Path_8077" data-name="Path 8077" d="M19.574,6.074l-.47.5a5.2,5.2,0,0,1,0,6.6l.47.5A5.929,5.929,0,0,0,19.574,6.074Z" transform="translate(-3.638 -0.381)" fill="#fff"/>
    </g>
  </g>
</svg>
