<svg xmlns="http://www.w3.org/2000/svg" width="22" height="22" viewBox="0 0 22 22">
  <g id="su" transform="translate(-56 -390)">
    <g id="group" transform="translate(4 247)">
      <rect id="base" width="22" height="22" transform="translate(52 143)" fill="#fff" opacity="0"/>
      <path id="Path_8081" data-name="Path 8081" d="M9.481,1.563C4.241,1.563,0,6.11,0,11.73v1.906a1.34,1.34,0,0,0,.177.668,1.22,1.22,0,0,0,.478.469l.533.286a4.294,4.294,0,0,0,4.145,4.3h.889a.923.923,0,0,0,.889-.953v-6.99a.923.923,0,0,0-.889-.953H5.333A4,4,0,0,0,2.37,11.795V11.73A7.39,7.39,0,0,1,9.481,4.1a7.39,7.39,0,0,1,7.111,7.626v.065a4,4,0,0,0-2.963-1.336h-.889a.923.923,0,0,0-.889.953V18.4a.923.923,0,0,0,.889.953h.889a4.294,4.294,0,0,0,4.145-4.3l.533-.286a1.22,1.22,0,0,0,.478-.469,1.34,1.34,0,0,0,.177-.668V11.73C18.963,6.111,14.722,1.563,9.481,1.563Z" transform="translate(53.519 143.163)" fill="#fff"/>
    </g>
  </g>
</svg>
