<svg xmlns="http://www.w3.org/2000/svg" width="10" height="15" viewBox="0 0 10 15">
  <path id="noun-click-1549309" d="M187.22,11.246a.366.366,0,1,1,0,.732h-1.562a.367.367,0,1,1,0-.732Zm-4.179,5.142a.392.392,0,0,1-.781,0c0-.686-.147-1.04-.362-1.214a.861.861,0,0,0-.419-.162v3.647a3.2,3.2,0,0,0,1.033,2.333,3.656,3.656,0,0,0,4.964,0,3.2,3.2,0,0,0,1.033-2.333V16.848a.331.331,0,0,0-.216-.329.526.526,0,0,0-.349,0,.329.329,0,0,0-.216.321v.766a.391.391,0,0,1-.781,0V15.733a.331.331,0,0,0-.216-.329.524.524,0,0,0-.348,0,.33.33,0,0,0-.216.321v1.11a.391.391,0,0,1-.781,0V14.962a.332.332,0,0,0-.216-.329.533.533,0,0,0-.349,0,.331.331,0,0,0-.216.329v1.1a.391.391,0,0,1-.781,0V12.223c0-.409-.484-.421-.67-.271a.32.32,0,0,0-.113.245v4.191Zm6.248,2.271a3.912,3.912,0,0,1-1.262,2.853,4.473,4.473,0,0,1-6.068,0,3.91,3.91,0,0,1-1.261-2.853V14.622a.38.38,0,0,1,.39-.367,2.168,2.168,0,0,1,1.172.261V12.223a1.008,1.008,0,0,1,.387-.828,1.19,1.19,0,0,1,1.956.828v1.706a1.32,1.32,0,0,1,.857.025,1.041,1.041,0,0,1,.681.754,1.321,1.321,0,0,1,.881.017,1.038,1.038,0,0,1,.707,1.009v.08a1.326,1.326,0,0,1,.855.025,1.039,1.039,0,0,1,.707,1.009V18.66Zm-8.049-7.413a.367.367,0,1,1,0,.732h-1.562a.366.366,0,1,1,0-.732Zm4.047-.843a.409.409,0,0,1-.552,0,.352.352,0,0,1,0-.52l1.1-1.039a.408.408,0,0,1,.552,0,.352.352,0,0,1,0,.519l-1.1,1.039Zm-3.124-.52a.352.352,0,0,1,0,.52.409.409,0,0,1-.552,0l-1.1-1.039a.352.352,0,0,1,0-.52.409.409,0,0,1,.552,0Zm1.676-.349a.391.391,0,0,1-.781,0V8.066a.391.391,0,0,1,.781,0Z" transform="translate(-179.289 -7.699)" fill="#0909dc"/>
</svg>
