<svg xmlns="http://www.w3.org/2000/svg" width="18" height="12" viewBox="0 0 18 12">
  <g id="view" transform="translate(-104.018 -123.201)">
    <path id="Path_232" data-name="Path 232" d="M121.852,128.677a19.28,19.28,0,0,0-3.05-3.144,9.506,9.506,0,0,0-5.793-2.331,9.317,9.317,0,0,0-5.772,2.353,18.41,18.41,0,0,0-3.05,3.144.833.833,0,0,0,0,1.005,19.278,19.278,0,0,0,3.05,3.144,8.257,8.257,0,0,0,11.545,0,18.41,18.41,0,0,0,3.05-3.144.836.836,0,0,0,.02-1.027Zm-8.843,5.647c-4.012,0-7.471-4.214-8.167-5.134.716-.92,4.155-5.134,8.167-5.134s7.471,4.214,8.167,5.134C120.48,130.11,117.021,134.324,113.009,134.324Z" transform="translate(0 0)" fill="#e53935"/>
    <path id="Path_233" data-name="Path 233" d="M259.41,185.92a3.669,3.669,0,1,0,3.488,3.664A3.573,3.573,0,0,0,259.41,185.92Zm0,6.456a2.8,2.8,0,1,1,2.658-2.792A2.733,2.733,0,0,1,259.41,192.376Z" transform="translate(-146.401 -60.394)" fill="#e53935"/>
  </g>
</svg>
