<svg xmlns="http://www.w3.org/2000/svg" width="18" height="18" viewBox="0 0 18 18">
  <g id="Group_56743" data-name="Group 56743" transform="translate(-1033 -338)">
    <rect id="Rectangle_1635" data-name="Rectangle 1635" width="18" height="18" transform="translate(1033 338)" fill="#fff" opacity="0"/>
    <path id="Icon_awesome-arrow-right" data-name="Icon awesome-arrow-right" d="M5.04,3.441l.587-.6a.621.621,0,0,1,.9,0l5.144,5.275a.661.661,0,0,1,0,.92L6.525,14.311a.621.621,0,0,1-.9,0l-.587-.6a.664.664,0,0,1,.011-.931L8.239,9.661H.635A.642.642,0,0,1,0,9.009V8.14a.642.642,0,0,1,.635-.652h7.6L5.051,4.372A.659.659,0,0,1,5.04,3.441Z" transform="translate(1036 338.353)" fill="#fff"/>
  </g>
</svg>
