<svg xmlns="http://www.w3.org/2000/svg" width="708" height="355" viewBox="0 0 708 355">
  <g id="Group_54464" data-name="Group 54464" transform="translate(-305.986 -171)">
    <rect id="Rectangle_149" data-name="Rectangle 149" width="708" height="355" rx="12" transform="translate(305.986 171)" fill="#d8defc"/>
    <path id="Intersection_1" data-name="Intersection 1" d="M413.125,355c2.9-12.212,5.15-23.652,6.873-33.55,1.363-7.88,2.67-16.071,3.93-23.995,6.331-39.782,12.886-80.927,31.525-109.107,26.292-39.731,50.607-42.735,81.317-34.694,29.41,7.7,56.96,29.7,80.469,49.7l5.382,4.591c23.331,19.929,47.459,40.538,73.5,50.647A94.707,94.707,0,0,0,708,262.344v1.565a95.112,95.112,0,0,1-12.114-3.819c-26.174-10.165-50.354-30.827-73.738-50.793l-5.382-4.592c-23.44-19.941-50.9-41.864-80.165-49.539-30.411-7.964-54.479-5-80.474,34.285-18.436,27.87-24.949,68.778-31.244,108.355-1.26,7.924-2.56,16.133-3.936,24.024-1.7,9.8-3.925,21.1-6.775,33.169Zm-3.942,0q4.454-17.713,7.979-37.221c1.414-7.876,2.769-16.061,4.079-23.98,6.485-39.275,13.195-79.863,31.723-107.807,25.855-39,50.068-42.342,80.773-35.095,13.744,3.245,27.7,9.382,42.674,18.771A399.335,399.335,0,0,1,616.549,199c3.427,2.809,6.868,5.656,10.3,8.5,21.52,17.826,43.779,36.277,67.717,45.413A92.752,92.752,0,0,0,708,256.931V258.5a93.321,93.321,0,0,1-13.683-4.083c-24.048-9.2-46.363-27.672-67.944-45.555q-5.147-4.263-10.3-8.5a400.608,400.608,0,0,0-40.047-29.273c-14.907-9.348-28.793-15.453-42.459-18.681-30.407-7.17-54.382-3.867-79.938,34.685-18.324,27.631-25,68.013-31.456,107.062-1.31,7.919-2.659,16.123-4.083,24.01q-3.477,19.257-7.874,36.832Zm-4.106,0c3.452-12.88,6.537-26.551,9.234-40.928,1.473-7.868,2.877-16.047,4.237-23.962,6.643-38.734,13.524-78.793,31.928-106.486,28.17-42.412,55.077-40.787,80.226-35.482,14.151,2.987,28.9,9.008,43.8,17.912a401.947,401.947,0,0,1,41.342,28.58c4.685,3.667,9.432,7.519,14.031,11.229,20.084,16.245,40.84,33.023,63.125,41.373a90.919,90.919,0,0,0,15,4.241v1.554a91.5,91.5,0,0,1-15.23-4.292c-22.387-8.393-43.216-25.218-63.345-41.5-4.586-3.721-9.336-7.556-14.022-11.225a400.425,400.425,0,0,0-41.253-28.512c-14.83-8.857-29.5-14.847-43.582-17.821-31.181-6.577-54.169-2.939-79.41,35.063-18.211,27.379-25.037,67.239-31.654,105.762-1.36,7.915-2.767,16.109-4.242,23.991q-4,21.316-9.115,40.5Zm-4.2,0c3.975-13.914,7.512-28.82,10.581-44.607,1.521-7.862,2.975-16.038,4.385-23.947,6.806-38.222,13.834-77.729,32.125-105.17,27.742-41.674,53.514-40.759,79.681-35.884,14.754,2.749,29.87,8.482,44.931,17.056a398.961,398.961,0,0,1,42.548,27.818c5.669,4.269,11.4,8.784,16.924,13.168,18.907,14.962,38.453,30.426,59.383,38.114a89.213,89.213,0,0,0,16.567,4.4v1.536a89.79,89.79,0,0,1-16.792-4.441c-21.045-7.736-40.642-23.24-59.594-38.236-5.529-4.384-11.253-8.913-16.906-13.159a402.5,402.5,0,0,0-42.458-27.765c-14.988-8.528-30.036-14.248-44.712-16.979-25.923-4.838-51.465-5.749-78.884,35.456C430.564,209.5,423.572,248.8,416.8,286.816c-1.412,7.924-2.868,16.115-4.392,23.992-3.041,15.625-6.536,30.39-10.459,44.192Zm-4.313,0c4.544-14.919,8.576-31.071,12.053-48.311,1.58-7.853,3.086-16.039,4.544-23.943,6.956-37.686,14.154-76.663,32.322-103.854,27.3-40.924,53.009-40.512,79.134-36.269a146.145,146.145,0,0,1,46.059,16.214,400.977,400.977,0,0,1,43.753,27.071c6.431,4.634,12.911,9.67,19.181,14.538,17.922,13.916,36.438,28.287,56.256,35.431a87.541,87.541,0,0,0,18.136,4.5v1.534a88.037,88.037,0,0,1-18.352-4.539c-19.93-7.19-38.5-21.6-56.467-35.55-6.271-4.853-12.744-9.885-19.165-14.515a399.067,399.067,0,0,0-43.662-27.017,144.8,144.8,0,0,0-45.841-16.139c-25.88-4.2-51.356-4.628-78.35,35.854-17.976,26.892-25.128,65.666-32.052,103.159-1.46,7.919-2.966,16.1-4.549,23.973-3.439,17.063-7.418,33.062-11.9,47.866Zm-4.386,0a499.286,499.286,0,0,0,13.62-51.973c1.63-7.849,3.2-16.025,4.705-23.94,7.107-37.163,14.461-75.584,32.506-102.525,26.879-40.229,52.51-40.308,78.59-36.672a146.741,146.741,0,0,1,47.183,15.354c12.738,6.591,29.371,15.538,44.956,26.324,7.052,4.878,14.135,10.276,20.977,15.494,17.07,13.022,34.728,26.481,53.593,33.147A85.855,85.855,0,0,0,708,234.743V236.3a86.374,86.374,0,0,1-19.916-4.574c-18.977-6.713-36.689-20.21-53.813-33.27-6.834-5.214-13.907-10.608-20.939-15.477-15.549-10.757-32.156-19.692-44.874-26.275a146.152,146.152,0,0,0-46.965-15.278c-25.844-3.6-51.242-3.536-77.824,36.248-17.856,26.656-25.164,64.874-32.238,101.846-1.522,7.925-3.088,16.1-4.722,23.98A504.019,504.019,0,0,1,393.254,355Zm-4.6,0a483.389,483.389,0,0,0,15.347-55.723c1.688-7.84,3.306-16.025,4.877-23.946,7.255-36.627,14.767-74.507,32.687-101.184,26.511-39.608,51.028-40.216,78.046-37.074a147.279,147.279,0,0,1,48.314,14.5c14.38,7.087,30.986,15.5,46.172,25.566,7.552,5.008,15.1,10.679,22.411,16.157,16.347,12.261,33.243,24.942,51.3,31.174a84.263,84.263,0,0,0,21.271,4.5v1.546a84.819,84.819,0,0,1-21.491-4.541C668.36,219.7,651.4,207,635,194.7c-7.292-5.469-14.834-11.122-22.366-16.123-15.139-10.047-31.728-18.436-46.081-25.512a146.684,146.684,0,0,0-48.093-14.437c-26.771-3.118-51.067-2.513-77.29,36.645-17.729,26.393-25.2,64.085-32.422,100.519-1.561,7.924-3.191,16.123-4.885,23.992A485.875,485.875,0,0,1,388.706,355Zm-4.676,0a465.407,465.407,0,0,0,17.183-59.378c1.741-7.851,3.429-16.04,5.05-23.954,7.414-36.085,15.074-73.428,32.868-99.842,26.127-38.946,50.559-40,77.5-37.46a148.684,148.684,0,0,1,49.442,13.657c15.772,7.415,32.082,15.087,47.376,24.818,7.954,5.066,15.885,10.913,23.556,16.573,15.719,11.587,31.959,23.582,49.3,29.435A82.805,82.805,0,0,0,708,223.264v1.548a83.326,83.326,0,0,1-23.038-4.452c-17.44-5.9-33.746-17.919-49.506-29.555-7.653-5.652-15.574-11.5-23.5-16.535-15.249-9.7-31.531-17.356-47.284-24.764a147.754,147.754,0,0,0-49.222-13.6c-26.713-2.524-50.924-1.471-76.765,37.039-17.616,26.14-25.232,63.28-32.606,99.193-1.633,7.926-3.312,16.119-5.066,23.995A468.7,468.7,0,0,1,384.035,355Zm-4.874,0a446.864,446.864,0,0,0,19.184-63.064c1.813-7.868,3.553-16.066,5.235-23.988,7.556-35.566,15.371-72.338,33.041-98.5,25.768-38.32,50.1-39.815,76.956-37.861a149.361,149.361,0,0,1,50.576,12.8l3.659,1.64c15.063,6.739,30.64,13.709,44.923,22.417,8.271,5.04,16.5,11.012,24.463,16.793,15.155,11,30.82,22.377,47.521,27.887A81.3,81.3,0,0,0,708,217.38v1.557a81.935,81.935,0,0,1-24.62-4.287c-16.817-5.541-32.535-16.955-47.735-27.992-7.946-5.759-16.168-11.727-24.409-16.754-14.236-8.689-29.785-15.646-44.829-22.379l-3.659-1.641A148.742,148.742,0,0,0,512.4,133.15c-26.623-1.933-50.746-.464-76.23,37.438-17.492,25.889-25.267,62.489-32.781,97.868-1.685,7.936-3.425,16.135-5.241,24.017A452.632,452.632,0,0,1,379.2,355Zm-4.979,0c8.141-19.193,15.312-41.6,21.349-66.756,1.873-7.859,3.674-16.063,5.421-24.006,7.7-35.03,15.664-71.25,33.2-97.155,25.411-37.709,49.643-39.641,76.409-38.248a150.317,150.317,0,0,1,51.7,11.94c2.314.983,4.634,1.984,6.95,2.952,4.082,1.733,8.2,3.484,12.327,5.284l-1.846-.949c-6.38-3.285-13-6.666-19.558-9.362a150.914,150.914,0,0,0-52.606-11.039c-27.393-.846-50.315,1.426-75.18,38.225-17.222,25.37-25.3,60.863-33.1,95.186-1.807,7.949-3.682,16.169-5.62,24.062C385.872,311.766,378,335.25,369.077,355h-1.192c9.046-19.844,17.019-43.516,23.7-70.43,1.934-7.864,3.809-16.086,5.616-24.034,7.842-34.483,15.952-70.166,33.358-95.791,25.135-37.208,48.254-39.509,75.875-38.646a151.523,151.523,0,0,1,52.827,11.1c6.612,2.7,13.225,6.1,19.615,9.385,10.239,5.277,20.832,10.718,31.281,13.138,12.885,2.98,24.908,12.326,36.535,21.348,10.774,8.366,21.912,17.008,33.825,20.738A81.419,81.419,0,0,0,708,205.638v1.542a82,82,0,0,1-27.679-3.858c-12.044-3.784-23.236-12.466-34.064-20.869-11.556-8.961-23.51-18.246-36.248-21.2a77.174,77.174,0,0,1-10.172-3.182c3.756,1.905,7.456,3.9,11.073,6.012,8.529,4.99,17,11.046,25.188,16.891,14.656,10.461,29.8,21.287,45.935,26.48A79.936,79.936,0,0,0,708,211.494v1.541a80.571,80.571,0,0,1-26.167-4.065c-16.249-5.225-31.449-16.088-46.148-26.585-8.182-5.842-16.631-11.89-25.126-16.848-13.593-7.929-28.422-14.223-42.753-20.309-2.314-.983-4.638-1.969-6.951-2.953a149.37,149.37,0,0,0-51.475-11.894c-26.537-1.375-50.564.53-75.7,37.832-17.361,25.645-25.278,61.677-32.944,96.534-1.748,7.957-3.551,16.177-5.427,24.049-5.972,24.873-13.054,47.1-21.086,66.2Zm-10.605,0q.609-1.249,1.212-2.52c9.531-19.913,17.961-44,25.055-71.615,2.007-7.88,3.943-16.108,5.814-24.078,7.992-33.944,16.244-69.062,33.516-94.427,24.817-36.644,47.832-39.336,75.328-39.033a152.211,152.211,0,0,1,53.96,10.243c6.583,2.577,13.178,5.841,19.551,8.995,10.661,5.279,21.683,10.741,32.539,12.778,12.929,2.429,24.979,11.739,36.625,20.753,10.47,8.1,21.3,16.483,32.875,20.009A80.005,80.005,0,0,0,708,199.575v1.533a80.579,80.579,0,0,1-29.3-3.5c-11.7-3.576-22.593-11.992-33.123-20.144-11.578-8.953-23.546-18.212-36.31-20.605-10.943-2.057-22.011-7.538-32.72-12.838-6.364-3.151-12.94-6.405-19.5-8.956a151.569,151.569,0,0,0-53.726-10.193c-27.277-.292-50.095,2.357-74.645,38.623-17.1,25.121-25.32,60.046-33.264,93.837-1.871,7.969-3.81,16.211-5.819,24.106-7.126,27.739-15.6,51.956-25.177,71.976q-.378.8-.758,1.583Zm-5.637,0q1.868-3.534,3.681-7.247c9.631-19.728,18.168-43.459,25.365-70.551,2.077-7.883,4.08-16.146,6.022-24.117,8.122-33.416,16.519-67.966,33.653-93.056,24.519-36.138,47.4-39.184,74.784-39.434a153.277,153.277,0,0,1,55.092,9.385c6.575,2.447,13.172,5.585,19.553,8.632,11.071,5.293,22.508,10.738,33.753,12.383,12.934,1.877,24.97,11.15,36.616,20.116,10.217,7.863,20.77,15.994,32.037,19.326A78.692,78.692,0,0,0,708,193.479v1.557a79.27,79.27,0,0,1-30.835-3.066c-11.4-3.389-22.015-11.561-32.286-19.462-11.567-8.9-23.521-18.123-36.269-19.97-11.344-1.656-22.833-7.139-33.943-12.447-6.372-3.043-12.95-6.172-19.5-8.609a152.648,152.648,0,0,0-54.857-9.35c-27.158.247-49.859,3.277-74.119,39.015-16.971,24.843-25.331,59.234-33.413,92.478-1.936,7.99-3.947,16.249-6.026,24.146-7.229,27.221-15.809,51.077-25.494,70.893q-1.582,3.236-3.2,6.336Zm-5.95,0q3.312-5.772,6.471-12.081c9.7-19.353,18.334-42.725,25.681-69.469,2.151-7.9,4.234-16.161,6.242-24.168,8.267-32.864,16.8-66.852,33.8-91.668,24.231-35.625,47-39.053,74.237-39.821a154.629,154.629,0,0,1,56.212,8.541c6.585,2.326,13.2,5.375,19.588,8.313,11.454,5.279,23.3,10.723,34.912,11.951,12.881,1.364,24.9,10.55,36.519,19.443,9.966,7.631,20.28,15.519,31.265,18.671A77.551,77.551,0,0,0,708,187.226v1.562a77.99,77.99,0,0,1-32.4-2.554c-11.12-3.192-21.495-11.137-31.523-18.811-12.065-9.22-23.461-17.941-36.154-19.29-11.716-1.241-23.622-6.708-35.124-12.006-6.38-2.936-12.976-5.962-19.531-8.291a153.666,153.666,0,0,0-55.979-8.492c-27.027.778-49.609,4.158-73.584,39.414-16.836,24.582-25.327,58.4-33.548,91.107-2.018,8-4.1,16.3-6.25,24.212-7.38,26.872-16.066,50.352-25.81,69.811Q355.2,349.667,352.179,355Zm-6.2,0q4.914-7.849,9.514-16.8c9.752-18.981,18.5-41.991,25.988-68.391,2.224-7.917,4.383-16.21,6.464-24.233,8.4-32.32,17.071-65.741,33.92-90.286,23.968-35.149,46.6-38.935,73.694-40.223a155.273,155.273,0,0,1,57.344,7.685c6.6,2.237,13.24,5.187,19.657,8.026,11.841,5.251,24.087,10.669,36.047,11.491,12.805.873,24.781,9.962,36.355,18.757,9.752,7.415,19.844,15.068,30.569,18.047A76.345,76.345,0,0,0,708,180.993v1.558a76.951,76.951,0,0,1-33.977-1.959c-10.859-3.02-21.013-10.715-30.828-18.173-12.021-9.123-23.375-17.746-35.982-18.6-12.08-.824-24.378-6.281-36.267-11.551-6.4-2.848-13.018-5.774-19.59-8a154.309,154.309,0,0,0-57.109-7.65c-26.892,1.278-49.342,5.013-73.056,39.793-16.689,24.311-25.324,57.559-33.674,89.725-2.084,8.038-4.245,16.346-6.471,24.278-7.531,26.524-16.32,49.66-26.121,68.747q-4.316,8.4-8.911,15.837Zm-6.6,0a213.78,213.78,0,0,0,12.946-21.563c9.9-18.793,18.747-41.445,26.3-67.329,2.352-8.069,4.631-16.548,6.836-24.758,8.492-31.6,17.269-64.265,33.89-88.415,23.716-34.683,46.214-38.811,73.156-40.605a155.825,155.825,0,0,1,58.476,6.828c6.637,2.141,13.3,4.991,19.754,7.75,12.219,5.219,24.849,10.624,37.153,11.02,12.705.4,24.621,9.374,36.148,18.038,9.55,7.187,19.441,14.614,29.921,17.428,12.4,3.353,24.347,3.728,35.374,1.25v1.564c-11.092,2.47-23.093,2.082-35.545-1.287-10.616-2.855-20.557-10.334-30.179-17.568-11.955-8.985-23.248-17.488-35.743-17.884-12.424-.4-25.119-5.83-37.385-11.068-6.442-2.757-13.089-5.6-19.689-7.723a155.2,155.2,0,0,0-58.228-6.8c-26.736,1.769-49.057,5.86-72.522,40.189-16.459,23.917-25.2,56.44-33.648,87.884-2.2,8.21-4.487,16.7-6.853,24.8-7.581,26-16.477,48.771-26.437,67.667A217.074,217.074,0,0,1,339.507,355Zm-7,0a199.7,199.7,0,0,0,16.8-26.3c9.97-18.432,18.924-40.722,26.616-66.247,2.448-8.108,4.807-16.633,7.1-24.871,8.609-31.045,17.518-63.134,33.986-86.983,23.483-34.259,45.829-38.734,72.612-41.007a156.7,156.7,0,0,1,59.607,5.972c6.664,2.041,13.377,4.8,19.872,7.482,12.577,5.179,25.6,10.541,38.232,10.522,12.587-.025,24.43,8.788,35.89,17.312,9.376,6.973,19.065,14.171,29.322,16.83,13,3.384,25.489,3.491,36.92.468v1.57c-11.5,3.011-24.043,2.889-37.093-.512-10.393-2.684-20.142-9.94-29.58-16.954-11.887-8.846-23.108-17.192-35.474-17.169-12.768.027-25.841-5.374-38.484-10.579-6.476-2.675-13.166-5.44-19.8-7.47a156.308,156.308,0,0,0-59.36-5.947c-26.568,2.251-48.747,6.685-71.986,40.587-16.32,23.626-25.185,55.576-33.756,86.462-2.282,8.256-4.653,16.791-7.1,24.915-7.733,25.65-16.736,48.046-26.754,66.584A203.363,203.363,0,0,1,332.559,355Zm-7.592,0a186.269,186.269,0,0,0,21.275-31.111c10.027-18.059,19.08-39.992,26.923-65.169,2.534-8.135,4.977-16.688,7.354-24.969,8.722-30.474,17.753-61.99,34.073-85.554,23.26-33.845,45.463-38.65,72.065-41.394a157.268,157.268,0,0,1,60.727,5.127c6.71,1.95,13.463,4.646,20,7.238,12.946,5.142,26.335,10.453,39.3,10.019,12.443-.417,23.688,7.844,35.594,16.587,9.2,6.758,18.712,13.757,28.757,16.246,13.606,3.411,26.645,3.224,38.465-.386V163.2c-11.886,3.595-24.977,3.769-38.627.351-10.189-2.534-19.753-9.57-29.019-16.37-11.806-8.67-22.952-16.859-35.165-16.44-13.1.443-26.556-4.9-39.568-10.066-6.52-2.6-13.265-5.276-19.935-7.225a156.921,156.921,0,0,0-60.491-5.107c-26.409,2.73-48.441,7.479-71.462,40.981-16.169,23.341-25.154,54.7-33.845,85.048-2.377,8.28-4.833,16.844-7.371,25.009-7.874,25.3-16.977,47.344-27.064,65.521A189.815,189.815,0,0,1,325.082,355Zm-8.351,0q14.166-14.385,26.437-35.894C351.635,301.388,360.8,279.818,368.778,255c2.62-8.114,5.147-16.681,7.6-24.959,8.868-29.922,18.034-60.876,34.186-84.226,23.158-33.476,45.16-38.586,71.518-41.78a158,158,0,0,1,61.86,4.271c6.742,1.885,13.55,4.494,20.143,7.011,13.314,5.107,27.074,10.367,40.356,9.509,12.3-.794,23.462,7.29,35.278,15.854,9.035,6.546,18.376,13.314,28.215,15.655,14.242,3.429,27.853,2.9,40.062-1.368v1.584c-12.275,4.245-25.931,4.755-40.206,1.322-9.982-2.384-19.385-9.2-28.484-15.783-11.709-8.486-22.766-16.494-34.82-15.71-13.426.876-27.259-4.431-40.631-9.545-6.574-2.511-13.372-5.115-20.086-6.988a157.652,157.652,0,0,0-61.613-4.246c-26.165,3.18-48,8.233-70.926,41.378-16.006,23.141-25.128,53.954-33.954,83.752-2.451,8.3-5,16.87-7.614,25.019-8.023,24.942-17.234,46.618-27.38,64.439Q330.531,340.824,316.96,355Zm-9.231,0q17.6-15.179,32.509-40.617c10.148-17.36,19.418-38.553,27.54-63.027,2.717-8.154,5.341-16.758,7.886-25.079,8.975-29.371,18.261-59.736,34.251-82.789,22.983-33.106,44.821-38.539,70.984-42.178a158.582,158.582,0,0,1,62.991,3.415c6.785,1.806,13.656,4.346,20.3,6.792,13.666,5.047,27.805,10.261,41.4,8.981,12.127-1.151,23.2,6.754,34.923,15.1,8.884,6.324,18.07,12.871,27.714,15.066,14.876,3.418,29.049,2.517,41.62-2.458v1.6c-12.638,4.943-26.856,5.825-41.764,2.392-9.779-2.22-19.03-8.809-27.973-15.19-11.606-8.269-22.575-16.082-34.455-14.971-13.75,1.3-27.955-3.947-41.687-9.022-6.623-2.452-13.487-4.973-20.244-6.769a158.446,158.446,0,0,0-62.743-3.4c-25.978,3.622-47.655,8.994-70.4,41.772-15.843,22.845-25.085,53.07-34.027,82.313-2.548,8.336-5.183,16.951-7.9,25.138-8.171,24.58-17.482,45.9-27.7,63.357Q324.808,339.877,307.9,355Zm-10.665,0c14.6-10.2,28.006-25.391,40.009-45.358,10.217-17,19.6-37.846,27.859-61.961,2.817-8.207,5.539-16.865,8.182-25.224,9.088-28.8,18.485-58.582,34.311-81.324,22.8-32.77,44.481-38.49,70.437-42.565a159.7,159.7,0,0,1,64.121,2.573c6.84,1.72,13.775,4.175,20.471,6.563,14.027,4.992,28.528,10.151,42.439,8.449,11.949-1.462,22.921,6.225,34.548,14.361,8.731,6.1,17.765,12.427,27.222,14.48,15.529,3.4,30.278,2.091,43.188-3.643v1.6c-12.985,5.7-27.78,6.99-43.342,3.578-9.6-2.083-18.689-8.446-27.491-14.609-11.5-8.052-22.374-15.667-34.068-14.239-14.053,1.722-28.63-3.47-42.725-8.475-6.686-2.383-13.6-4.83-20.412-6.553a158.96,158.96,0,0,0-63.862-2.56c-25.77,4.041-47.288,9.717-69.867,42.169-15.682,22.548-25.035,52.189-34.081,80.866-2.644,8.374-5.38,17.042-8.2,25.265-8.3,24.225-17.73,45.177-28,62.279-11.562,19.235-24.421,34.069-38.392,44.327Zm-13.182,0c18.505-9.45,35.32-26.3,50.066-50.161,10.285-16.639,19.755-37.131,28.166-60.883,2.914-8.246,5.746-16.952,8.488-25.365,9.192-28.238,18.7-57.418,34.349-79.853,22.649-32.454,44.146-38.471,69.893-42.966a160.082,160.082,0,0,1,65.253,1.716c6.9,1.667,13.887,4.049,20.646,6.367,14.378,4.935,29.243,10.024,43.466,7.914,11.756-1.749,22.634,5.726,34.151,13.626,8.594,5.9,17.475,12.005,26.757,13.907,16.18,3.369,31.5,1.6,44.734-4.939v1.617c-13.3,6.5-28.666,8.237-44.878,4.86-9.415-1.941-18.362-8.071-27.019-14.017-11.4-7.819-22.171-15.217-33.672-13.5-14.375,2.125-29.314-3-43.771-7.946-6.738-2.31-13.718-4.689-20.579-6.34a159.587,159.587,0,0,0-64.994-1.7c-25.57,4.457-46.907,10.43-69.341,42.563-15.519,22.237-24.984,51.309-34.132,79.405-2.747,8.443-5.578,17.15-8.508,25.421-8.452,23.877-17.98,44.472-28.324,61.213C318.66,328.78,302.657,345.236,285.1,355ZM262.6,355a84.889,84.889,0,0,0,9.5-3.091c21.14-8.335,40.257-25.775,56.825-51.846,10.343-16.266,19.921-36.4,28.473-59.8,3.033-8.291,5.974-17.048,8.818-25.529,9.29-27.641,18.894-56.228,34.373-78.355,22.507-32.15,43.821-38.45,69.347-43.352a160.571,160.571,0,0,1,66.376.857c6.955,1.578,14,3.906,20.822,6.155,14.735,4.846,29.973,9.87,44.494,7.362,11.56-2.005,22.33,5.219,33.737,12.883,8.452,5.684,17.2,11.558,26.305,13.322,16.879,3.325,32.8,1.057,46.327-6.376v1.644c-13.6,7.371-29.555,9.6-46.453,6.278-9.24-1.789-18.051-7.718-26.567-13.431-11.293-7.57-21.952-14.731-33.253-12.776-14.677,2.539-29.989-2.517-44.8-7.394-6.81-2.245-13.851-4.555-20.767-6.132a159.97,159.97,0,0,0-66.114-.859c-25.349,4.866-46.513,11.117-68.807,42.962-15.357,21.94-24.918,50.4-34.161,77.936-2.852,8.477-5.8,17.263-8.833,25.569-8.6,23.532-18.229,43.75-28.631,60.134-16.7,26.287-35.965,43.855-57.287,52.255q-2.191.861-4.4,1.589Zm-75.156,0c-6.455-.915-13.016-1.8-19.395-2.411-13.507-1.231-25.36-.853-36.243,1.182q-2.871.536-5.675,1.229H120.4a99.9,99.9,0,0,1,11.3-2.792c10.934-2.045,22.85-2.429,36.416-1.19,8.028.776,16.313,1.976,24.328,3.127q2.968.429,5.95.855Zm-82.868,0a97.227,97.227,0,0,1,24.8-8.481c10.884-2.161,22.714-2.692,36.182-1.589,8.279.723,16.841,1.9,25.125,3.047,26.093,3.612,53.081,7.343,78.253-2.233,21.114-8.061,40.23-25.028,56.831-50.42,10.414-15.92,20.1-35.674,28.794-58.737,3.138-8.326,6.2-17.158,9.155-25.688,9.374-27.068,19.076-55.06,34.38-76.865,22.39-31.882,43.521-38.464,68.811-43.75a161.251,161.251,0,0,1,67.505.014c7.007,1.506,14.126,3.768,21.008,5.949,15.088,4.787,30.689,9.741,45.513,6.822,11.367-2.228,22.027,4.759,33.319,12.155,8.32,5.456,16.928,11.1,25.864,12.726,17.576,3.247,34.1.44,47.88-7.93v1.656c-13.867,8.3-30.419,11.073-48,7.821-9.073-1.656-17.744-7.339-26.127-12.836-11.164-7.325-21.716-14.235-32.815-12.054-14.988,2.945-30.665-2.04-45.83-6.844-6.862-2.173-13.963-4.428-20.939-5.936a160.584,160.584,0,0,0-67.244-.016c-25.122,5.245-46.094,11.783-68.271,43.358-15.184,21.633-24.845,49.5-34.179,76.458-2.964,8.542-6.022,17.392-9.175,25.744-8.743,23.17-18.479,43.043-28.948,59.052-16.74,25.6-36.007,42.7-57.291,50.813-25.333,9.636-52.4,5.887-78.569,2.26-8.278-1.133-16.837-2.322-25.1-3.036-13.4-1.092-25.178-.571-36,1.584A96.953,96.953,0,0,0,107.941,355Zm-11.434,0a97.407,97.407,0,0,1,33.922-14.226c10.826-2.3,22.577-2.954,35.95-1.985,8.549.661,17.394,1.826,25.952,2.966,25.608,3.392,52.082,6.894,76.832-2.21,21.064-7.781,40.189-24.268,56.828-49,10.472-15.564,20.257-34.96,29.1-57.659,3.26-8.386,6.434-17.267,9.51-25.873,9.462-26.477,19.245-53.88,34.37-75.348,22.238-31.583,44.07-38.677,68.265-44.138a161.651,161.651,0,0,1,68.638-.841c7.058,1.446,14.238,3.641,21.182,5.752,15.441,4.714,31.409,9.585,46.532,6.268,11.163-2.439,21.714,4.3,32.881,11.433,8.2,5.231,16.672,10.656,25.442,12.139,18.3,3.149,35.44-.265,49.449-9.653V114.3c-14.1,9.309-31.261,12.673-49.571,9.516-8.916-1.511-17.447-6.961-25.708-12.234-11.048-7.055-21.472-13.722-32.375-11.332-15.29,3.357-31.333-1.544-46.852-6.275-6.923-2.118-14.094-4.308-21.124-5.744A161.218,161.218,0,0,0,464,89.071c-24.029,5.432-45.709,12.466-67.747,43.752-15,21.3-24.745,48.576-34.172,74.957-3.076,8.6-6.255,17.515-9.529,25.927-8.885,22.825-18.739,42.334-29.266,57.985-16.762,24.914-36.038,41.529-57.285,49.376-24.9,9.167-51.453,5.649-77.139,2.24-8.551-1.121-17.385-2.3-25.915-2.952-13.3-.955-25-.306-35.766,1.969A96.5,96.5,0,0,0,95.742,355Zm-9.324,0a98.761,98.761,0,0,1,40.914-19.965c10.758-2.419,22.437-3.186,35.7-2.372,8.824.587,17.962,1.748,26.8,2.86,25.121,3.189,51.091,6.463,75.4-2.177,21.047-7.5,40.17-23.517,56.834-47.57,10.529-15.191,20.421-34.225,29.408-56.581,3.39-8.442,6.689-17.413,9.887-26.078,9.544-25.9,19.409-52.673,34.349-73.822,22.136-31.34,43.764-38.711,67.717-44.524a162.315,162.315,0,0,1,69.77-1.7c7.121,1.378,14.363,3.5,21.367,5.56,15.79,4.622,32.123,9.408,47.552,5.712,10.955-2.637,21.379,3.841,32.424,10.688,8.066,5,16.412,10.184,25.024,11.536,19.065,3.043,36.834-1.027,51.031-11.524v1.7c-14.288,10.393-32.077,14.409-51.133,11.359-8.748-1.378-17.161-6.587-25.289-11.632-10.916-6.778-21.227-13.162-31.918-10.6-15.6,3.736-32.008-1.067-47.882-5.723-6.984-2.049-14.22-4.156-21.31-5.537a161.574,161.574,0,0,0-69.5,1.685C437.184,92.087,415.7,99.392,393.76,130.45c-14.819,20.979-24.647,47.651-34.154,73.445-3.2,8.681-6.511,17.662-9.915,26.131-9.034,22.462-18.986,41.613-29.583,56.9-16.787,24.239-36.059,40.364-57.28,47.937-24.46,8.7-50.5,5.4-75.687,2.214-8.825-1.108-17.952-2.264-26.755-2.858-13.206-.82-24.827-.043-35.522,2.37A97.712,97.712,0,0,0,86.016,355Zm-8.013,0a101.086,101.086,0,0,1,46.579-25.662c10.7-2.553,22.3-3.464,35.471-2.771,9.107.516,18.539,1.656,27.657,2.761,24.613,2.977,50.066,6.051,73.935-2.14,21.03-7.224,40.15-22.749,56.841-46.142,10.6-14.845,20.591-33.521,29.726-55.514,3.529-8.5,6.962-17.537,10.285-26.292,9.613-25.307,19.555-51.474,34.3-72.275,22.07-31.129,43.483-38.765,67.182-44.921a162.9,162.9,0,0,1,70.9-2.539c7.172,1.305,14.486,3.365,21.552,5.354,16.144,4.547,32.844,9.249,48.572,5.157,10.74-2.791,21.051,3.418,31.965,9.974,7.952,4.781,16.169,9.718,24.623,10.941,19.848,2.913,38.27-1.88,52.594-13.557v1.72c-14.427,11.548-32.87,16.282-52.7,13.362-8.591-1.234-16.871-6.214-24.879-11.032-10.786-6.486-20.979-12.614-31.457-9.888-15.894,4.118-32.671-.6-48.9-5.17-7.057-1.984-14.343-4.032-21.495-5.343a162.036,162.036,0,0,0-70.616,2.53C434.4,89.66,413.141,97.247,391.269,128.1c-14.631,20.645-24.534,46.7-34.11,71.912-3.324,8.755-6.77,17.823-10.3,26.347-9.175,22.1-19.236,40.893-29.892,55.825-16.823,23.575-36.092,39.212-57.285,46.511-24.017,8.225-49.536,5.138-74.221,2.163-9.108-1.1-18.53-2.238-27.617-2.76-13.109-.684-24.652.221-35.287,2.753A100,100,0,0,0,77.736,355Zm-7.151,0c14.76-15.96,32.009-26.5,51.409-31.395a121.667,121.667,0,0,1,35.238-3.17c9.394.429,19.131,1.555,28.543,2.64,24.107,2.767,49.032,5.635,72.45-2.1,21-6.952,40.122-22,56.838-44.72,10.657-14.472,20.76-32.8,30.034-54.436,3.671-8.562,7.251-17.7,10.707-26.527,9.68-24.709,19.688-50.261,34.238-70.72,22.007-30.935,43.2-38.82,66.637-45.308a163.182,163.182,0,0,1,72.021-3.4c7.232,1.252,14.61,3.243,21.738,5.161,16.491,4.456,33.56,9.059,49.591,4.6,10.534-2.924,20.722,3,31.505,9.26,7.832,4.555,15.919,9.249,24.226,10.331,20.673,2.76,39.771-2.839,54.167-15.793v1.784c-18.333,16.28-39.427,17.529-54.249,15.542-8.434-1.1-16.594-5.845-24.481-10.423-10.655-6.194-20.725-12.049-31-9.189-16.2,4.512-33.356-.127-49.933-4.6-7.119-1.915-14.477-3.9-21.678-5.153a162.662,162.662,0,0,0-71.747,3.387c-23.288,6.439-44.342,14.272-66.153,44.941-14.432,20.3-24.4,45.76-34.048,70.373-3.461,8.855-7.05,17.99-10.726,26.581-9.325,21.756-19.483,40.172-30.208,54.744-16.835,22.889-36.1,38.05-57.28,45.073-23.558,7.781-48.55,4.9-72.727,2.121-9.4-1.082-19.129-2.2-28.5-2.639a121.2,121.2,0,0,0-35.045,3.154C101.49,329.852,84.783,339.877,70.411,355Zm-6.486,0c15.715-19.017,34.4-31.51,55.616-37.143a119.586,119.586,0,0,1,34.993-3.557c9.687.362,19.73,1.457,29.445,2.528,23.593,2.6,47.991,5.262,70.951-2.027,20.988-6.689,40.112-21.246,56.843-43.293,10.72-14.131,20.929-32.082,30.344-53.373,3.814-8.629,7.538-17.85,11.141-26.772,9.74-24.114,19.8-49.044,34.148-69.143,21.934-30.744,43.773-39.166,66.093-45.71A163.593,163.593,0,0,1,524.9,72.256c7.292,1.2,14.731,3.118,21.919,4.983,16.847,4.368,34.276,8.868,50.621,4.052,10.321-3.045,20.38,2.584,31.027,8.537,7.7,4.311,15.668,8.78,23.828,9.723,15.237,1.813,37.266.13,55.7-18.225v1.82c-18.558,18.093-40.548,19.763-55.787,17.937-8.287-.963-16.319-5.459-24.086-9.8C617.61,85.4,607.667,79.852,597.61,82.817c-16.515,4.872-34.03.351-50.964-4.037-7.178-1.86-14.6-3.775-21.862-4.96a163.024,163.024,0,0,0-72.877,4.228c-22.174,6.511-43.879,14.861-65.618,45.338-14.241,19.954-24.275,44.784-33.969,68.807-3.613,8.919-7.34,18.154-11.171,26.824-9.467,21.412-19.734,39.466-30.517,53.68-16.861,22.214-36.125,36.887-57.284,43.631-23.1,7.326-47.561,4.649-71.218,2.057-9.707-1.066-19.737-2.173-29.4-2.527a119.645,119.645,0,0,0-34.809,3.539C97.335,324.873,79.149,336.83,63.782,355Zm-6,0q.542-.722,1.088-1.434c16.316-21.208,35.885-35.137,58.181-41.373a117.694,117.694,0,0,1,34.761-3.955c10,.253,20.363,1.342,30.385,2.382,23.066,2.393,46.93,4.883,69.423-1.968,20.983-6.422,40.106-20.507,56.843-41.885,10.776-13.758,21.084-31.353,30.651-52.295,3.98-8.718,7.861-18.032,11.612-27.051,9.774-23.5,19.886-47.789,34.022-67.534,21.909-30.6,43.508-39.261,65.555-46.093a164.111,164.111,0,0,1,74.286-5.111c7.342,1.138,14.834,2.988,22.083,4.784,17.207,4.264,35,8.664,51.653,3.486a21.158,21.158,0,0,1,7.993-.87,67.492,67.492,0,0,0-8.631-1.976c-12.577-1.965-25.674-2.945-38.335-3.9-12.046-.9-24.5-1.852-36.755-3.621-26.162-3.8-51.438-1.813-75.129,5.929-21.636,7.067-42.844,15.911-64.557,46.13-13.818,19.245-23.928,42.824-33.714,65.623-3.921,9.138-7.976,18.584-12.134,27.4-9.764,20.687-20.242,38.036-31.151,51.517-16.868,20.849-36.139,34.57-57.281,40.751-22.145,6.458-45.517,4.144-68.118,1.913-10.329-1.01-21.011-2.073-31.285-2.236a115.978,115.978,0,0,0-34.33,4.324c-21.8,6.4-41.051,20.332-57.212,41.4q-2.115,2.758-4.154,5.664H50.483q2.428-3.5,4.961-6.816c16.3-21.23,35.7-35.278,57.66-41.733a116.174,116.174,0,0,1,34.518-4.358c10.3.162,21,1.231,31.343,2.245,22.543,2.222,45.846,4.524,67.873-1.888,20.984-6.137,40.106-19.746,56.849-40.458,10.847-13.413,21.264-30.645,30.97-51.229,4.145-8.791,8.194-18.209,12.1-27.336,9.819-22.879,19.975-46.549,33.885-65.913,21.889-30.479,43.248-39.386,65.012-46.495,23.786-7.766,49.165-9.771,75.415-5.952,12.24,1.76,24.682,2.7,36.717,3.6,12.678.964,25.787,1.948,38.384,3.906,7.959,1.237,15.7,4.234,23.9,7.393,9.369,3.616,19.057,7.365,29.079,8.231,14.727,1.329,36.01-.759,53.789-18.315A65.236,65.236,0,0,0,708,64.28v1.944a65.455,65.455,0,0,1-4.54,4.957c-18,17.767-39.5,19.889-54.363,18.55-8.587-.751-16.911-3.576-25-6.64,1.05.555,2.105,1.122,3.167,1.692,7.591,4.076,15.44,8.291,23.451,9.106,14.985,1.579,36.648-.318,54.76-18.29q1.29-1.274,2.525-2.645v1.88q-.987,1.068-2.006,2.074c-18.332,18.2-40.218,20.111-55.353,18.517-8.14-.824-16.042-5.075-23.7-9.178-10.38-5.574-20.188-10.844-30.041-7.778-16.819,5.234-34.7.814-52-3.471-7.239-1.807-14.719-3.652-22.034-4.778a163.508,163.508,0,0,0-74,5.088c-21.91,6.793-43.377,15.387-65.092,45.732-14.039,19.6-24.107,43.809-33.859,67.223-3.752,9.034-7.636,18.363-11.63,27.106-9.616,21.049-19.993,38.756-30.834,52.6-16.864,21.533-36.138,35.727-57.278,42.194-22.622,6.893-46.544,4.395-69.679,1.988-10.011-1.05-20.37-2.12-30.333-2.391A117.5,117.5,0,0,0,115.6,313.7c-22.127,6.181-41.545,20-57.722,41.042l-.2.261Zm-11.157,0c2.77-4.242,5.628-8.348,8.6-12.231,16.284-21.252,35.5-35.422,57.14-42.093a114.872,114.872,0,0,1,34.281-4.74c10.622.071,21.65,1.105,32.324,2.1,22.008,2.062,44.759,4.18,66.3-1.8,20.987-5.866,40.117-19,56.855-39.03,10.894-13.046,21.42-29.914,31.278-50.151,4.328-8.873,8.551-18.423,12.629-27.653,9.833-22.256,20.02-45.281,33.7-64.265,21.877-30.356,43.843-39.8,64.465-46.881,23.879-8.186,49.63-10.48,76.547-6.809,12.846,1.746,25.906,2.6,38.529,3.413,12.464.811,25.357,1.642,37.777,3.352,7.817,1.066,15.449,3.847,23.529,6.78,9.214,3.346,18.74,6.8,28.579,7.515,14.466,1.094,35.363-1.2,52.81-18.345A67.52,67.52,0,0,0,708,55.2v2.057a67.727,67.727,0,0,1-7.107,8.214c-17.664,17.352-38.778,19.685-53.374,18.585-9.927-.715-19.5-4.2-28.761-7.56-8.042-2.919-15.646-5.685-23.4-6.741-12.391-1.7-25.273-2.54-37.726-3.346-12.633-.817-25.706-1.66-38.57-3.414-26.818-3.661-52.475-1.391-76.25,6.775C422.32,76.807,400.5,86.186,378.794,116.3c-13.593,18.865-23.733,41.8-33.543,63.985-4.093,9.256-8.316,18.805-12.661,27.719-9.906,20.342-20.49,37.314-31.458,50.439-16.867,20.2-36.135,33.433-57.279,39.328-21.656,6.015-44.467,3.886-66.533,1.816-10.652-1-21.671-2.032-32.264-2.092a114.1,114.1,0,0,0-34.1,4.722c-21.469,6.615-40.546,20.669-56.691,41.758-2.69,3.51-5.286,7.208-7.81,11.027Zm-5.207,0c3.835-6.129,7.818-12.072,12.025-17.581,16.271-21.29,35.318-35.58,56.619-42.453a113.165,113.165,0,0,1,34.049-5.139c10.952-.043,22.327.96,33.336,1.939,21.463,1.9,43.656,3.877,64.693-1.7,20.99-5.582,40.118-18.238,56.853-37.609,10.963-12.683,21.587-29.2,31.585-49.072,4.518-8.983,8.922-18.647,13.183-28.008,9.856-21.628,20.04-44.006,33.5-62.594,19.768-27.314,39.118-38.343,63.928-47.263,23.943-8.619,50.083-11.192,77.679-7.665,13.543,1.721,27.292,2.482,40.584,3.211,12.176.674,24.771,1.365,36.925,2.806,7.675.9,15.186,3.451,23.143,6.16,9.069,3.079,18.44,6.269,28.1,6.807,14.2.839,34.721-1.676,51.833-18.389A71.656,71.656,0,0,0,708,45.893v2.131a71.935,71.935,0,0,1-9.652,11.731c-17.33,16.922-38.047,19.466-52.385,18.617-9.745-.545-19.165-3.753-28.271-6.848-7.929-2.7-15.412-5.239-23.017-6.139-12.145-1.436-24.721-2.119-36.887-2.789-13.3-.734-27.062-1.485-40.624-3.212-27.506-3.522-53.536-.95-77.382,7.63-24.66,8.873-43.885,19.812-63.5,46.922C362.921,132.4,352.76,154.7,342.936,176.26c-4.261,9.36-8.679,19.05-13.212,28.059-10.057,19.993-20.749,36.6-31.776,49.371-16.852,19.527-36.125,32.266-57.273,37.891-21.142,5.6-43.4,3.621-64.909,1.719-11-.973-22.361-1.988-33.277-1.93a112.119,112.119,0,0,0-33.853,5.11c-21.133,6.834-40.04,21.008-56.181,42.13-3.929,5.143-7.667,10.676-11.274,16.389Zm-5.117,0a265.8,265.8,0,0,1,15.357-22.933c16.257-21.327,35.133-35.735,56.089-42.818a111.152,111.152,0,0,1,33.807-5.54c11.289-.187,23.017.806,34.372,1.754,20.9,1.759,42.524,3.562,63.058-1.591,21.011-5.3,40.136-17.47,56.858-36.18,11.183-12.513,21.617-28.2,31.9-48.005,4.717-9.09,9.12-18.454,13.779-28.377,9.856-20.994,20.048-42.7,33.253-60.891,19.746-27.2,39.615-38.721,63.383-47.665,24-9.023,50.513-11.884,78.808-8.507,14.331,1.7,28.892,2.36,42.962,3,11.779.524,23.953,1.086,35.743,2.249,7.531.742,14.927,3.09,22.756,5.554,8.912,2.823,18.141,5.732,27.625,6.1,13.938.589,34.072-2.12,50.853-18.418A73.949,73.949,0,0,0,708,36.056v2.289a74.233,74.233,0,0,1-12.18,15.7c-16.985,16.5-37.327,19.245-51.4,18.651-9.573-.377-18.841-3.3-27.8-6.129-7.8-2.469-15.157-4.785-22.618-5.53-11.768-1.169-23.946-1.716-35.713-2.252-14.092-.636-28.653-1.3-43.012-3.008-28.186-3.362-54.606-.51-78.5,8.476-23.616,8.882-43.371,20.327-62.962,47.319C360.69,129.652,350.53,151.3,340.7,172.225c-4.468,9.511-9.078,19.326-13.81,28.443-10.345,19.9-20.848,35.708-32.094,48.289-16.845,18.85-36.119,31.114-57.276,36.45-20.631,5.192-42.309,3.379-63.263,1.615-11.334-.954-23.053-1.944-34.311-1.759a110.528,110.528,0,0,0-33.617,5.493c-20.807,7.034-39.533,21.331-55.67,42.486A258.559,258.559,0,0,0,36.032,355Zm-5.115,0a310.483,310.483,0,0,1,18.638-28.289c16.264-21.371,34.951-35.906,55.568-43.178a109.515,109.515,0,0,1,33.573-5.939c11.632-.313,23.738.648,35.449,1.571,20.347,1.6,41.378,3.274,61.39-1.48,21.032-5.009,40.168-16.713,56.865-34.754,11.241-12.14,21.776-27.486,32.211-46.926,4.938-9.2,9.538-18.724,14.414-28.793,9.837-20.354,20.013-41.389,32.966-59.16C390.455,80.879,410.09,69.194,433.49,60c24.035-9.45,50.936-12.591,79.93-9.365,15.286,1.7,30.8,2.254,45.8,2.8,11.229.389,22.845.813,34.109,1.707,7.376.583,14.65,2.705,22.347,4.941,8.789,2.551,17.863,5.189,27.175,5.393,13.678.353,33.426-2.566,49.873-18.448A76.908,76.908,0,0,0,708,25.536v2.482a77.1,77.1,0,0,1-14.768,20.325c-16.652,16.082-36.6,19.044-50.405,18.685-9.394-.192-18.517-2.849-27.333-5.412-7.655-2.235-14.9-4.33-22.21-4.916-11.255-.89-22.851-1.306-34.078-1.71-15.015-.532-30.537-1.085-45.853-2.787-28.893-3.23-55.683-.09-79.631,9.318-23.256,9.128-42.771,20.753-62.428,47.717-12.873,17.662-23.02,38.646-32.836,58.93-4.663,9.652-9.49,19.614-14.441,28.843-10.493,19.543-21.1,34.988-32.4,47.211-16.821,18.179-36.089,29.954-57.271,35.012-20.107,4.777-41.2,3.115-61.583,1.494-11.689-.93-23.777-1.884-35.378-1.573a109,109,0,0,0-33.375,5.895c-20.458,7.228-39.014,21.642-55.148,42.846A302.14,302.14,0,0,0,30.934,355Zm-5.064,0c6.907-11.548,14.074-23.31,21.93-33.651,16.259-21.4,34.776-36.059,55.043-43.522a108.6,108.6,0,0,1,33.339-6.323c12-.46,24.479.484,36.555,1.385,19.768,1.474,40.208,3.007,59.69-1.352,21.056-4.746,40.189-15.961,56.864-33.346,11.3-11.784,21.938-26.787,32.522-45.863,5.17-9.329,9.986-19,15.092-29.236,9.815-19.7,19.965-40.05,32.64-57.382,21.055-28.785,42.389-40.3,62.3-48.449,24.076-9.861,51.35-13.3,81.063-10.223,16.461,1.706,33.151,2.131,49.3,2.566,10.474.279,21.29.559,31.815,1.192,7.222.438,14.366,2.318,21.93,4.324,8.644,2.283,17.575,4.64,26.725,4.683,13.41.1,32.781-3.027,48.9-18.493C697.513,34.34,703.635,24.9,708,14.423v2.744c-4.379,9.9-10.3,18.8-17.274,25.459-16.32,15.667-35.877,18.824-49.416,18.718-9.222-.025-18.2-2.4-26.881-4.7-7.538-2-14.651-3.876-21.8-4.3-10.516-.629-21.333-.908-31.8-1.184-16.155-.438-32.855-.868-49.347-2.569-29.607-3.055-56.777.371-80.754,10.178-19.8,8.1-41,19.543-61.9,48.109-12.6,17.238-22.719,37.537-32.5,57.171-4.891,9.809-9.949,19.944-15.133,29.3-10.642,19.179-21.344,34.267-32.718,46.13C271.67,257,252.4,268.279,231.193,273.058c-19.579,4.4-40.06,2.864-59.873,1.371-12.065-.913-24.529-1.834-36.485-1.387a107.69,107.69,0,0,0-33.14,6.278c-20.106,7.405-38.492,21.939-54.637,43.2C39.476,332.5,32.529,343.825,25.833,355Zm-5.16,0,1.915-3.171c7.373-12.2,15-24.827,23.379-35.884,16.27-21.464,34.616-36.236,54.523-43.883a107.128,107.128,0,0,1,33.1-6.72c12.357-.611,25.246.3,37.7,1.182,19.173,1.367,39.011,2.776,57.948-1.211,21.1-4.46,40.228-15.2,56.869-31.919,11.347-11.416,22.093-26.057,32.828-44.786,5.412-9.449,10.468-19.284,15.817-29.709,9.77-19.021,19.861-38.685,32.257-55.564,21.162-28.819,42.183-40.495,61.755-48.835,24.434-10.424,51.328-14.043,82.2-11.079,17.987,1.71,36.208,2.014,53.825,2.3,9.372.15,19.051.319,28.5.69,7.048.272,14.069,1.94,21.5,3.7,8.507,2.021,17.3,4.115,26.282,3.975,18.85-.208,35.426-6.605,47.916-18.524,7.989-7.573,14.519-17.868,18.914-29.25a11.96,11.96,0,0,1,.622,1.348c-4.476,11.381-11.038,21.652-19.031,29.237-12.645,12.059-29.394,18.526-48.425,18.736-9.059.139-17.892-1.971-26.439-3.993-7.4-1.761-14.378-3.415-21.376-3.7-9.425-.363-19.114-.536-28.476-.682-17.637-.3-35.869-.591-53.874-2.309-30.769-2.955-57.55.649-81.884,11.019-19.453,8.28-40.361,19.893-61.367,48.508-12.323,16.8-22.394,36.406-32.135,55.377-5.359,10.436-10.418,20.285-15.857,29.77-10.8,18.814-21.6,33.557-33.034,45.048-16.762,16.843-36.029,27.67-57.271,32.147-19.028,4-38.9,2.59-58.121,1.233-12.443-.88-25.3-1.792-37.626-1.184a106.357,106.357,0,0,0-32.9,6.681c-19.767,7.594-37.972,22.251-54.128,43.574-8.34,10.993-15.943,23.594-23.3,35.761L20.679,355Zm-5.313,0c.928-1.486,1.9-3.057,2.923-4.732l2.867-4.689c7.269-11.9,14.778-24.192,22.982-35.038,16.359-21.632,34.523-36.512,54-44.243a104.752,104.752,0,0,1,32.861-7.122c12.736-.77,26.03.119,38.877.978,18.581,1.246,37.8,2.536,56.174-1.066C245.867,254.916,265,244.668,281.6,228.6c11.426-11.05,22.263-25.353,33.147-43.718,5.681-9.606,10.992-19.635,16.6-30.251,9.694-18.341,19.724-37.3,31.818-53.706C384.517,71.972,406.086,59.8,424.382,51.7c24.449-10.812,51.7-14.709,83.324-11.92,20.048,1.765,40.348,1.894,59.977,2.011,7.739.053,15.731.1,23.545.251,6.892.127,13.772,1.562,21.057,3.089,8.381,1.761,17.034,3.575,25.86,3.275,18.486-.549,34.714-6.964,46.944-18.548,7.555-7.116,13.841-16.714,18.244-27.357q.447.345.859.731c-4.485,10.882-10.892,20.688-18.6,27.946C673.23,42.91,656.829,49.4,638.17,49.952c-8.9.3-17.6-1.516-26.009-3.275-7.246-1.526-14.107-2.953-20.939-3.087-7.8-.144-15.8-.2-23.535-.247-19.641-.106-39.949-.24-60.029-2-31.511-2.789-58.661,1.1-83,11.865-18.186,8.049-39.632,20.149-60.833,48.905-12.033,16.335-22.034,35.244-31.708,53.53-5.627,10.641-10.94,20.685-16.644,30.313-10.941,18.469-21.844,32.854-33.344,43.984-16.719,16.181-35.983,26.518-57.265,30.71-18.46,3.615-37.715,2.323-56.335,1.076-12.829-.851-26.093-1.743-38.8-.977a103.618,103.618,0,0,0-32.661,7.063c-19.33,7.683-37.365,22.459-53.607,43.934-8.168,10.8-15.661,23.063-22.905,34.928l-2.877,4.7q-1.165,1.895-2.241,3.626Zm-4.933-.671.113-.175c1.847-2.853,3.766-5.9,6.057-9.576q1.621-2.6,3.226-5.2c7.141-11.559,14.531-23.519,22.535-34.132,16.372-21.706,34.367-36.7,53.482-44.6a104,104,0,0,1,32.626-7.506c13.138-.949,26.848-.077,40.1.762,17.977,1.137,36.548,2.316,54.36-.922,21.489-3.931,40.088-13.439,56.873-29.069,11.485-10.693,22.423-24.637,33.455-42.64,5.976-9.751,11.554-19.985,17.456-30.828,9.6-17.635,19.539-35.875,31.318-51.793,17.105-23.109,35.252-37.948,60.674-49.621,24.451-11.224,52.074-15.409,84.456-12.777,23.107,1.872,46.458,1.726,69.047,1.578q7.849-.065,15.672-.08c6.734,0,13.472,1.2,20.607,2.489,8.248,1.485,16.771,3.006,25.442,2.548,18.106-.914,34.006-7.341,45.968-18.594A77.612,77.612,0,0,0,699.3.46q.53.151,1.039.349A79.3,79.3,0,0,1,683.074,25.5c-12.275,11.55-27.905,17.882-46.436,18.809-8.745.475-17.3-1.076-25.591-2.562-7.107-1.278-13.815-2.482-20.49-2.472-5.207.007-10.431.056-15.673.081-22.606.14-45.98.293-69.107-1.572-32.274-2.617-59.794,1.547-84.136,12.722-25.288,11.6-43.32,26.347-60.307,49.3-11.727,15.846-21.635,34.034-31.22,51.63-5.915,10.853-11.494,21.1-17.5,30.889-11.09,18.106-22.1,32.145-33.66,42.9-16.9,15.742-35.635,25.317-57.26,29.272-17.886,3.253-36.507,2.069-54.51.923-13.243-.836-26.923-1.712-40.021-.761a102.821,102.821,0,0,0-32.418,7.466c-18.974,7.832-36.841,22.74-53.095,44.291-7.975,10.561-15.342,22.5-22.469,34.033q-1.623,2.6-3.225,5.2c-2.138,3.435-3.964,6.325-5.7,9.014A11.928,11.928,0,0,1,9.109,354.329Zm-4.044-2.393q1.248-1.866,2.425-3.667c1.85-2.818,3.83-5.916,6.054-9.448q1.806-2.877,3.614-5.769c7.012-11.218,14.262-22.826,22.063-33.191,16.394-21.775,34.22-36.908,52.961-44.963a102.3,102.3,0,0,1,32.393-7.9c13.552-1.14,27.7-.292,41.376.535,17.338,1.043,35.275,2.116,52.493-.768,21.55-3.637,40.156-12.667,56.879-27.643,11.542-10.32,22.582-23.921,33.762-41.562,6.3-9.932,12.157-20.4,18.37-31.46,9.5-16.933,19.31-34.435,30.762-49.842,17.008-22.9,35.556-38.311,60.127-50.007,24.439-11.624,52.433-16.1,85.588-13.633,28.207,2.074,56.662,1.417,84.178.781l1.747-.045c6.558-.155,13.154.829,20.139,1.882,8.121,1.226,16.519,2.473,25.04,1.84,17.977-1.268,33.115-7.538,44.988-18.622A74.791,74.791,0,0,0,694.239,0h1.29a76.547,76.547,0,0,1-15.01,19.78C668.512,31,653.22,37.347,635.072,38.624c-8.594.649-17.031-.615-25.182-1.838-6.957-1.04-13.523-2.012-20.031-1.868l-1.746.045c-27.527.633-56,1.3-84.237-.788-33.037-2.447-60.926,1.991-85.255,13.566-24.43,11.628-42.87,26.946-59.773,49.7-11.4,15.334-21.193,32.81-30.667,49.694-6.226,11.086-12.1,21.562-18.409,31.521-11.249,17.739-22.362,31.42-33.978,41.82-16.841,15.07-35.57,24.173-57.263,27.83-17.292,2.9-35.257,1.817-52.635.772-13.657-.834-27.784-1.674-41.284-.545a101.557,101.557,0,0,0-32.182,7.849c-18.608,7.985-36.3,23.017-52.584,44.647-7.764,10.333-15,21.9-22,33.091q-1.809,2.9-3.614,5.77c-2.227,3.547-4.217,6.64-6.07,9.474q-1.065,1.627-2.191,3.316Q5.5,352.328,5.065,351.936Zm-2.976-4.1c1.275-1.856,2.5-3.675,3.665-5.435,1.875-2.84,3.856-5.89,6.056-9.338q2-3.15,4.012-6.331C22.7,315.852,29.8,304.611,37.4,294.493c16.43-21.871,34.073-37.111,52.439-45.324a101.166,101.166,0,0,1,32.151-8.306c13.96-1.349,28.558-.5,42.682.306,16.7.951,33.967,1.949,50.585-.6a110.731,110.731,0,0,0,56.884-26.216c11.6-9.964,22.743-23.222,34.073-40.5,6.634-10.125,12.815-20.834,19.363-32.166,9.355-16.189,19.025-32.941,30.11-47.8,17.171-23.018,35.547-38.553,59.583-50.394,24.426-12.025,52.787-16.755,86.717-14.475,30.792,2.062,61.318,1.164,87.126,0,6.388-.274,12.832.473,19.658,1.285,8.01.942,16.285,1.916,24.664,1.114,17.6-1.615,32.412-7.9,44.017-18.649A71.4,71.4,0,0,0,688.278,0h1.41a73.3,73.3,0,0,1-11.742,14.116c-11.738,10.872-26.7,17.216-44.456,18.861-8.449.8-16.755-.167-24.792-1.121-6.8-.8-13.221-1.553-19.561-1.275-25.816,1.156-56.373,2.057-87.2,0-33.81-2.279-62.067,2.432-86.376,14.411C391.673,56.764,373.4,72.2,356.326,95.084c-11.036,14.806-20.687,31.5-30.018,47.67-6.551,11.345-12.747,22.081-19.4,32.227-11.4,17.377-22.61,30.7-34.294,40.739a111.488,111.488,0,0,1-57.26,26.407c-16.671,2.56-33.98,1.576-50.718.608-14.093-.811-28.672-1.651-42.59-.315a100.5,100.5,0,0,0-31.94,8.251c-18.224,8.146-35.746,23.277-52.062,45.007-7.56,10.071-14.651,21.286-21.511,32.139q-2.007,3.173-4.012,6.332c-2.2,3.448-4.184,6.512-6.068,9.348-1.192,1.8-2.44,3.652-3.743,5.547A11.956,11.956,0,0,1,2.089,347.836Zm-1.014-7.029q1.451-2.1,2.939-4.308c1.877-2.793,3.862-5.809,6.054-9.212q2.241-3.48,4.462-6.966c6.719-10.5,13.67-21.363,21.04-31.213,16.7-22.266,33.679-37.213,51.916-45.669a99.825,99.825,0,0,1,31.917-8.7c14.409-1.559,29.483-.733,44.058.074,16.049.884,32.638,1.788,48.626-.423A110.954,110.954,0,0,0,268.978,209.6c11.661-9.607,22.911-22.5,34.389-39.417,7.008-10.317,13.527-21.3,20.439-32.919,9.177-15.456,18.674-31.426,29.38-45.72,17.367-23.173,35.577-38.841,59.046-50.792,24.736-12.591,52.648-17.462,87.849-15.33a690.826,690.826,0,0,0,88.333-.759c6.213-.425,12.5.114,19.159.681,7.895.672,16.048,1.359,24.295.391,17.224-1.98,31.7-8.271,43.041-18.693A67.369,67.369,0,0,0,681.541,0h1.584A69.3,69.3,0,0,1,675.4,8.384c-11.47,10.542-26.1,16.9-43.466,18.9-8.3.978-16.49.276-24.416-.394-6.626-.57-12.9-1.1-19.057-.686a689.412,689.412,0,0,1-88.412.757c-35.082-2.129-62.889,2.722-87.5,15.252C389.2,54.084,371.1,69.655,353.832,92.7c-10.669,14.246-20.139,30.181-29.3,45.595-6.914,11.638-13.457,22.639-20.481,33-11.546,17.014-22.861,29.993-34.6,39.661a111.9,111.9,0,0,1-57.263,24.966c-16.051,2.231-32.669,1.316-48.749.434-14.547-.795-29.59-1.624-43.947-.076a99.054,99.054,0,0,0-31.7,8.635c-18.106,8.4-34.967,23.239-51.554,45.377-7.341,9.8-14.268,20.639-20.975,31.129q-2.232,3.507-4.463,6.965c-2.2,3.418-4.181,6.435-6.069,9.237q-1.855,2.757-3.651,5.33Zm0-8.336q.663-.962,1.292-1.884c1.9-2.785,3.873-5.755,6.053-9.086q2.473-3.784,4.946-7.618c6.553-10.126,13.328-20.6,20.466-30.155C50.56,261.349,67.379,246.286,85.216,237.7a98.779,98.779,0,0,1,31.672-9.091c14.862-1.8,30.428-.971,45.478-.173,15.378.811,31.274,1.646,46.616-.249,21.786-2.731,40.394-10.368,56.891-23.38,11.615-9.166,22.966-21.72,34.7-38.354,7.339-10.48,14.176-21.675,21.424-33.5,9.027-14.759,18.372-30.019,28.74-43.8,17.345-23.04,35.929-39.311,58.5-51.179,24.7-12.985,52.975-18.133,88.982-16.186a624.336,624.336,0,0,0,89.536-1.507,131.341,131.341,0,0,1,18.636.1c7.78.4,15.832.81,23.948-.34C647.168,17.695,661.326,11.395,672.4,1.3q.705-.639,1.4-1.3h1.841q-1.348,1.37-2.754,2.646C661.688,12.859,647.4,19.215,630.41,21.578c-8.177,1.154-16.259.752-24.07.352a133.336,133.336,0,0,0-18.547-.093,626.272,626.272,0,0,1-89.625,1.5c-35.888-1.945-64.046,3.188-88.628,16.113-22.453,11.822-40.939,27.992-58.181,50.9-10.336,13.72-19.658,28.957-28.671,43.69-7.262,11.856-14.109,23.047-21.476,33.578-11.8,16.749-23.224,29.366-34.921,38.594C249.683,219.3,230.954,227,209.035,229.74c-15.4,1.9-31.329,1.068-46.726.251-15.02-.788-30.557-1.616-45.366.17A98.555,98.555,0,0,0,85.481,239.2c-17.716,8.531-34.407,23.488-51.043,45.734-7.111,9.515-13.872,19.966-20.412,30.082-1.655,2.553-3.3,5.11-4.95,7.633-2.182,3.344-4.17,6.313-6.077,9.107q-.925,1.357-1.925,2.8Zm0-8.361c1.782-2.581,3.622-5.312,5.612-8.317,1.832-2.764,3.647-5.55,5.474-8.348,6.365-9.731,12.951-19.813,19.845-29.053C48.8,255.879,65.432,240.709,82.868,232a98.087,98.087,0,0,1,31.439-9.489c15.333-2.026,31.414-1.207,46.955-.409,14.675.753,29.858,1.529,44.536-.074,21.893-2.418,40.5-9.595,56.9-21.954,11.684-8.807,23.134-21,35.006-37.277,7.76-10.715,14.977-22.193,22.622-34.348,8.809-14.011,17.921-28.5,27.9-41.64,17.474-23.208,35.9-39.594,57.965-51.576,24.652-13.387,53.28-18.8,90.119-17.072,33.7,1.6,63.382.856,90.73-2.256a141.674,141.674,0,0,1,18.093-.478c7.677.123,15.628.233,23.624-1.092C642.572,12.071,654.535,7.261,664.411,0h2.253c-10.32,8.12-23.02,13.455-37.815,15.876-8.051,1.351-16.03,1.228-23.739,1.108a141.049,141.049,0,0,0-18.011.479c-27.383,3.13-57.086,3.866-90.832,2.263-36.7-1.763-65.226,3.627-89.756,16.954C384.562,48.6,366.244,64.9,348.864,87.977c-9.95,13.108-19.035,27.556-27.83,41.542-7.66,12.181-14.892,23.685-22.676,34.421-11.939,16.375-23.462,28.634-35.229,37.516-16.51,12.453-35.232,19.694-57.254,22.1-14.729,1.614-29.931.83-44.637.08-15.52-.806-31.56-1.624-46.844.407a97.239,97.239,0,0,0-31.226,9.42c-17.313,8.636-33.843,23.71-50.53,46.09-6.88,9.216-13.451,19.272-19.8,28.992-1.827,2.8-3.642,5.583-5.473,8.348-2.161,3.274-4.153,6.208-6.079,9l-.208.3Zm0-8.393c1.228-1.779,2.509-3.665,3.87-5.7,2.04-3.04,4.064-6.1,6.1-9.176,6.152-9.314,12.519-18.933,19.132-27.832C47.03,250.362,63.5,235.058,80.519,226.252a97.052,97.052,0,0,1,31.207-9.887c15.834-2.308,32.434-1.477,48.5-.667,13.972.7,28.409,1.43,42.4.111,22.007-2.085,40.618-8.8,56.9-20.526,11.755-8.459,23.309-20.311,35.326-36.21,8.251-11,15.926-22.857,24.056-35.428,8.51-13.154,17.311-26.772,26.808-39.23,17.748-23.458,35.99-39.966,57.417-51.962,24.93-13.952,53.074-19.47,91.235-17.888,37.393,1.545,65.752.628,91.933-3a154.359,154.359,0,0,1,17.506-1.039c7.6-.165,15.456-.346,23.344-1.858A90.373,90.373,0,0,0,652.62,0h2.958A89.548,89.548,0,0,1,627.26,10.2c-7.941,1.524-15.819,1.7-23.445,1.863A151.435,151.435,0,0,0,586.38,13.1c-26.221,3.631-54.6,4.556-92.044,3.005-38.029-1.588-66.056,3.9-90.877,17.8C382.144,45.833,364,62.256,346.339,85.593c-9.47,12.421-18.257,26.014-26.753,39.143-8.141,12.58-15.831,24.465-24.108,35.5-12.084,16-23.71,27.913-35.545,36.434-16.39,11.807-35.12,18.57-57.249,20.667-14.036,1.318-28.5.588-42.493-.116-16.021-.81-32.6-1.647-48.373.654A96.574,96.574,0,0,0,80.833,227.7c-16.9,8.746-33.26,23.953-50.011,46.466-6.6,8.859-12.951,18.466-19.091,27.77-2.036,3.074-4.063,6.151-6.1,9.192-1.619,2.408-3.121,4.616-4.554,6.686Zm0-8.259q1.065-1.544,2.185-3.194,3.39-4.994,6.75-10.045c5.927-8.885,12.065-18.047,18.4-26.59,16.923-22.8,33.227-38.209,49.822-47.114a95.778,95.778,0,0,1,30.963-10.29c16.354-2.58,33.515-1.737,50.116-.906,13.234.656,26.915,1.343,40.192.293,22.221-1.758,40.834-8.015,56.909-19.1,11.758-8.015,23.411-19.508,35.632-35.132,8.8-11.325,16.982-23.619,25.642-36.648,8.158-12.272,16.6-24.952,25.567-36.679C361.059,58.638,379.66,41.5,400.119,29.7,432,11.316,466.225,10.017,492.485,10.959c29.977,1.073,62.011,1.343,93.137-3.75C591.051,6.328,596.615,6,602.5,5.636,610.023,5.174,617.8,4.707,625.6,3a104.616,104.616,0,0,0,11-3h4.432a102.222,102.222,0,0,1-15.309,4.539c-7.853,1.719-15.663,2.19-23.208,2.643a167.9,167.9,0,0,0-16.8,1.571c-31.189,5.1-63.253,4.833-93.261,3.764-26.173-.923-60.28.346-92.009,18.656-20.351,11.75-38.864,28.778-56.586,52.088-8.943,11.692-17.37,24.359-25.514,36.607-8.675,13.054-16.871,25.374-25.707,36.732-12.295,15.7-24.031,27.272-35.861,35.351-16.188,11.164-34.916,17.453-57.252,19.226-13.316,1.049-27.019.37-40.271-.294-16.574-.82-33.7-1.68-49.984.9a95.284,95.284,0,0,0-30.748,10.205c-16.484,8.842-32.671,24.152-49.5,46.822-6.315,8.5-12.442,17.667-18.365,26.522q-3.37,5.048-6.751,10.045c-.982,1.444-1.924,2.822-2.838,4.145Zm0-8.259.454-.66q3.761-5.478,7.494-11.031c5.672-8.391,11.533-17.067,17.554-25.2,17.247-23.287,32.913-38.372,49.3-47.475a95.579,95.579,0,0,1,30.728-10.672c16.889-2.9,34.637-2.012,51.806-1.151,12.479.611,25.373,1.253,37.911.464,22.642-1.456,40.721-7.066,56.906-17.677,11.835-7.7,23.586-18.833,35.942-34.068,9.426-11.7,18.175-24.482,27.427-38.038,7.747-11.338,15.747-23.044,24.137-33.97,18.161-23.759,36.592-41.012,56.336-52.747,31.8-18.9,66.67-20.4,93.5-19.6,32.189.952,63.629,1.338,94.341-4.5C590.1,1.9,595.433,1.355,601.078.787c2.443-.246,4.912-.5,7.4-.787h10.451c-6.02,1.136-11.989,1.736-17.8,2.326-5.633.557-10.945,1.107-16.116,2.079-30.782,5.839-62.248,5.474-94.476,4.521-26.738-.794-61.489.711-93.129,19.5-19.643,11.666-37.977,28.832-56.05,52.486-8.366,10.9-16.355,22.6-24.087,33.911-9.277,13.577-18.032,26.393-27.493,38.121-12.42,15.319-24.255,26.529-36.168,34.274-16.286,10.679-34.482,16.321-57.246,17.788-12.568.793-25.483.142-37.979-.476-17.131-.846-34.848-1.732-51.664,1.146a94.381,94.381,0,0,0-30.5,10.593c-16.274,9.023-31.836,24.026-48.989,47.178-6.006,8.108-11.867,16.784-17.528,25.163q-3.757,5.551-7.505,11.043-.565.823-1.116,1.618Zm0-8.269c2.365-3.412,4.719-6.867,7.081-10.32,5.384-7.879,10.957-16.042,16.628-23.72,17.338-23.471,32.843-38.67,48.777-47.82A94.666,94.666,0,0,1,104.055,198c17.456-3.211,35.818-2.277,53.573-1.377,11.686.6,23.782,1.221,35.547.647,22.782-1.1,40.865-6.261,56.912-16.25,11.906-7.352,23.769-18.139,36.25-32.99,10.117-12.087,19.488-25.451,29.4-39.6,7.253-10.34,14.747-21.024,22.5-31.074,18.55-24.152,36.8-41.527,55.789-53.134,31.521-19.267,65.525-21.164,94.63-20.456l.571.016C518.019,4.468,547.7,5.172,576.66,0h7.916l-.247.053c-31.4,6.8-63.79,6.032-95.119,5.281l-.57-.017c-29.016-.7-62.895,1.168-94.259,20.343-18.9,11.55-37.054,28.84-55.525,52.88-7.742,10.026-15.224,20.7-22.466,31.028-9.493,13.55-19.315,27.55-29.47,39.685-12.555,14.929-24.488,25.782-36.485,33.192C234.286,192.5,216.1,197.7,193.192,198.81c-11.8.576-23.9-.051-35.608-.642-17.715-.9-36.047-1.836-53.423,1.377a93.786,93.786,0,0,0-30.27,10.991C58.06,219.619,42.662,234.72,25.414,258.07c-5.658,7.668-11.218,15.806-16.6,23.684q-3.868,5.672-7.739,11.26Zm0-8.133c2.116-3.037,4.23-6.1,6.3-9.1,5.07-7.344,10.3-14.936,15.611-22.135,17.691-24,32.575-38.862,48.256-48.181a93.815,93.815,0,0,1,30.253-11.473c18.04-3.568,37.054-2.568,55.433-1.612,10.877.574,22.131,1.164,33.1.81,22.924-.753,41.018-5.455,56.919-14.824,12-7.027,23.964-17.457,36.569-31.922,10.912-12.562,21.46-27.223,31.657-41.414,6.666-9.257,13.549-18.85,20.6-27.932,19.255-24.917,36.811-41.934,55.244-53.521C422.43,1.744,457.043-.358,486.766.2l6.089.124C509.214.644,525.883.97,542.517,0h17.146c-22.3,2.706-44.843,2.263-66.835,1.829L486.739,1.7c-29.625-.545-64.127,1.556-95.382,21.2-18.342,11.528-35.812,28.455-54.99,53.277-7.034,9.056-13.915,18.634-20.571,27.9-10.218,14.2-20.783,28.9-31.73,41.494-12.679,14.546-24.725,25.051-36.8,32.125-16.012,9.434-34.194,14.178-57.237,14.926-10.986.362-22.252-.233-33.15-.8-18.338-.956-37.3-1.95-55.27,1.6a93.059,93.059,0,0,0-30.025,11.378c-15.569,9.256-30.358,24.026-47.958,47.91-5.295,7.187-10.526,14.765-15.584,22.1-2.283,3.306-4.621,6.7-6.962,10.045Zm0-8.133c1.906-2.711,3.8-5.429,5.665-8.1,4.7-6.756,9.552-13.716,14.445-20.375,12-16.318,28.26-36.566,47.734-48.541a93.058,93.058,0,0,1,30.02-11.871c18.659-3.959,38.341-2.869,57.379-1.828,10.044.559,20.421,1.114,30.56.952,23.091-.382,41.18-4.642,56.924-13.4,12.082-6.676,24.148-16.778,36.877-30.844,11.818-13.1,23.2-28.554,34.208-43.512,5.977-8.121,12.152-16.507,18.392-24.518,19.766-25.431,37.141-42.571,54.709-53.917C403.481,8.707,419.937,3.082,436.284,0h9.574c-19.339,2.571-39.114,8.243-57.512,20.13C370.879,31.424,353.57,48.466,333.89,73.806c-6.228,8-12.4,16.371-18.365,24.481-11.025,14.983-22.431,30.472-34.284,43.607-12.805,14.161-24.94,24.313-37.112,31.046-15.854,8.8-34.046,13.084-57.241,13.486-10.16.168-20.543-.4-30.6-.953-19-1.041-38.642-2.115-57.217,1.816a92.631,92.631,0,0,0-29.792,11.776C49.943,210.939,33.767,231.1,21.832,247.332,16.954,253.965,12.1,260.923,7.4,267.665c-2.077,2.976-4.2,6.017-6.33,9.04Zm0-8.212c1.733-2.447,3.454-4.893,5.15-7.3,4.28-6.077,8.694-12.35,13.117-18.382,12.839-17.518,28.489-37.01,47.215-48.9a92.853,92.853,0,0,1,29.783-12.254c19.31-4.351,39.711-3.167,59.441-2.01,9.166.524,18.639,1.081,27.905,1.077,23.572-.023,41.131-3.714,56.921-11.974,12.167-6.357,24.333-16.1,37.186-29.782,12.866-13.707,25.2-30.106,37.14-45.958,5.143-6.839,10.471-13.918,15.8-20.726C344.6,52.486,363.3,30.266,384.9,15.935A126.476,126.476,0,0,1,419.327,0h5.884a127.4,127.4,0,0,0-39.922,17.4c-21.483,14.251-40.1,36.382-53.922,54.074-5.318,6.8-10.645,13.876-15.79,20.714-11.963,15.874-24.321,32.295-37.226,46.049-12.927,13.762-25.174,23.566-37.428,29.965-15.9,8.323-33.557,12.038-57.238,12.062-9.28.014-18.76-.545-27.937-1.074-19.684-1.138-40.041-2.335-59.269,2a91.887,91.887,0,0,0-29.547,12.163c-18.6,11.8-34.163,31.2-46.934,48.622C15.587,248,11.173,254.27,6.9,260.335c-1.919,2.73-3.868,5.5-5.83,8.273Zm0-7.9c1.656-2.321,3.3-4.641,4.926-6.932,17.744-25.01,36.086-50.878,58.261-65.411,28.607-18.744,60.405-16.752,91.161-14.832,27.465,1.715,55.851,3.5,82.073-9.374,29.616-14.556,54.236-46.6,78.032-77.593,20.547-26.766,41.8-54.437,66.378-71.18A122.639,122.639,0,0,1,407.292,0h4.313a122.7,122.7,0,0,0-29.329,14.633c-24.448,16.654-45.642,44.257-66.137,70.95-23.872,31.088-48.56,63.229-78.37,77.863-26.384,12.947-54.864,11.172-82.406,9.44-30.644-1.921-62.335-3.9-90.74,14.723-22.019,14.44-40.3,40.2-57.982,65.131-1.832,2.585-3.693,5.207-5.567,7.829Z" transform="translate(305.987 171)" fill="#afbcfb" opacity="0.5"/>
  </g>
</svg>
