<svg id="Group_57093" data-name="Group 57093" xmlns="http://www.w3.org/2000/svg" width="18" height="18" viewBox="0 0 18 18">
  <rect id="Rectangle_1635" data-name="Rectangle 1635" width="18" height="18" fill="#fff" opacity="0"/>
  <path id="Icon_awesome-arrow-right" data-name="Icon awesome-arrow-right" d="M6.815,3.441l-.587-.6a.621.621,0,0,0-.9,0L.187,8.113a.661.661,0,0,0,0,.92L5.33,14.311a.621.621,0,0,0,.9,0l.587-.6a.664.664,0,0,0-.011-.931L3.616,9.661h7.6a.642.642,0,0,0,.635-.652V8.14a.642.642,0,0,0-.635-.652h-7.6L6.8,4.372A.659.659,0,0,0,6.815,3.441Z" transform="translate(3.145 0.353)" fill="#570026"/>
</svg>
