<svg xmlns="http://www.w3.org/2000/svg" width="334" height="529" viewBox="0 0 334 529">
  <g id="Group_54468" data-name="Group 54468" transform="translate(-305.986 -171)">
    <rect id="Rectangle_149" data-name="Rectangle 149" width="334" height="529" rx="12" transform="translate(305.986 171)" fill="#cbf3d3"/>
    <path id="Intersection_1" data-name="Intersection 1" d="M95.474,460.715a135.221,135.221,0,0,1,13-19.822c32.366-40.1,78.426-33.607,114.934-23.458q4.861,1.368,9.756,2.765c33.522,9.558,68.1,19.423,99.76,3.823v1.606c-31.8,15.505-66.393,5.647-99.938-3.92-3.257-.934-6.513-1.868-9.747-2.761-36.307-10.1-82.089-16.572-114.149,23.153a132.076,132.076,0,0,0-12.3,18.615Zm-4.648,0a148.194,148.194,0,0,1,15.853-25.162c18.036-22.387,41.843-32.613,72.774-31.3,12.1.517,25.644,2.838,41.395,7.1q5.142,1.389,10.326,2.844c34.237,9.544,69.581,19.391,101.752,1.983v1.6c-32.316,17.316-67.678,7.474-101.931-2.078-3.454-.954-6.9-1.918-10.316-2.84-15.7-4.253-29.2-6.555-41.259-7.07-30.687-1.321-54.288,8.817-72.133,30.968a144.838,144.838,0,0,0-15.193,23.958Zm-4.527,0c5.54-11.319,11.518-21.784,18.572-30.554,17.966-22.322,41.6-32.683,72.253-31.661,12.043.4,25.505,2.589,41.162,6.7,3.613.957,7.251,1.955,10.9,2.942,34.942,9.511,71.064,19.345,103.738,0v1.652c-32.822,19.207-68.951,9.379-103.9-.137q-5.472-1.5-10.893-2.939c-15.61-4.088-29.031-6.279-41.025-6.672-30.418-1.019-53.849,9.238-71.625,31.339-6.784,8.425-12.575,18.46-17.943,29.332Zm-4.394,0c6.294-13.366,13.026-25.771,21.16-35.9,17.9-22.271,41.364-32.751,71.732-32.021,11.994.266,25.379,2.33,40.929,6.3,3.811.976,7.637,1.989,11.482,3.01,34.978,9.288,71.156,18.9,103.813-.9q.955-.58,1.9-1.191v1.638q-.775.494-1.553.966c-32.916,19.965-69.228,10.31-104.34.983-3.845-1.021-7.671-2.035-11.473-3.008-15.5-3.948-28.847-6.012-40.78-6.284-30.13-.709-53.387,9.652-71.1,31.7-7.872,9.8-14.432,21.78-20.561,34.709Zm-4.343,0c7.058-15.4,14.5-29.808,23.706-41.287,17.826-22.222,41.125-32.819,71.211-32.382,11.913.153,25.228,2.094,40.683,5.912,4,.991,8.022,2.039,12.064,3.079,34.56,8.971,70.306,18.23,102.631-1.033q2.563-1.527,5.07-3.278v1.69q-2.327,1.607-4.7,3.023c-32.574,19.428-68.451,10.113-103.148,1.118-4.042-1.04-8.063-2.088-12.064-3.08-15.417-3.8-28.672-5.734-40.546-5.886-29.856-.436-52.944,10.058-70.592,32.055-8.939,11.149-16.211,25.107-23.1,40.068Zm-4.27,0c7.848-17.391,15.933-33.837,26.192-46.638,17.758-22.172,40.884-32.888,70.69-32.742,11.863.037,25.092,1.832,40.451,5.513,4.2,1.011,8.426,2.082,12.664,3.157,34.153,8.642,69.466,17.562,101.446-1.165a85.244,85.244,0,0,0,8.192-5.471v1.686a85.844,85.844,0,0,1-7.877,5.229c-32.227,18.878-67.671,9.9-101.943,1.242-4.237-1.075-8.465-2.145-12.654-3.153-15.311-3.662-28.489-5.467-40.3-5.5-29.573-.144-52.5,10.465-70.08,32.411-9.988,12.461-17.92,28.459-25.6,45.427Zm-4.337,0,.14-.31c8.641-19.241,17.327-37.687,28.565-51.743,17.7-22.117,40.646-32.955,70.168-33.1,11.8-.083,24.954,1.584,40.217,5.115,4.4,1.016,8.824,2.107,13.27,3.2,33.728,8.306,68.6,16.9,100.241-1.287a87.293,87.293,0,0,0,11.37-7.841v1.756a87.933,87.933,0,0,1-11.029,7.556c-31.883,18.341-66.883,9.709-100.738,1.366-4.447-1.083-8.872-2.174-13.259-3.2-15.216-3.511-28.325-5.192-40.07-5.1-29.281.152-52.036,10.866-69.557,32.771-11.017,13.777-19.592,31.889-28.1,50.817Zm-4.314,0q.6-1.325,1.2-2.653l1.537-3.393c8.647-19.1,17.326-37.386,28.48-51.351,17.631-22.082,40.415-33.021,69.647-33.462,11.734-.207,24.813,1.351,39.973,4.728,4.6,1.035,9.319,2.154,13.883,3.255,33.308,8,67.75,16.26,99.034-1.4a89.325,89.325,0,0,0,14.534-10.324v1.77a89.918,89.918,0,0,1-14.2,10.022c-31.519,17.795-66.085,9.5-99.511,1.482-4.565-1.1-9.275-2.231-13.871-3.266-15.11-3.372-28.139-4.926-39.824-4.713-29.01.439-51.6,11.272-69.048,33.127C85.4,418.4,77.109,435.853,68.181,455.591l-1.538,3.393-.785,1.731Zm-4.393,0c1.348-2.927,2.689-5.879,4.037-8.825l1.354-2.964c8.986-19.665,17.325-37.086,28.394-50.974,17.563-22.032,40.179-33.1,69.126-33.824,11.675-.327,24.678,1.089,39.739,4.33,4.8,1.039,9.733,2.2,14.5,3.307,32.882,7.682,66.876,15.61,97.817-1.51a91.649,91.649,0,0,0,17.713-12.962v1.813a92.28,92.28,0,0,1-17.372,12.62c-31.174,17.244-65.294,9.282-98.293,1.58-4.766-1.105-9.692-2.262-14.488-3.3-15.015-3.221-27.967-4.647-39.591-4.315-28.717.72-51.131,11.671-68.526,33.488-10.966,13.758-19.26,31.086-28.2,50.66L65.1,452.8q-1.8,3.967-3.616,7.914Zm-4.435,0q1.07-2.24,2.119-4.487,2.338-5.006,4.651-10.052l1.38-3c8.992-19.522,17.326-36.8,28.307-50.585,17.506-21.992,39.948-33.169,68.606-34.183,11.6-.451,24.53.837,39.5,3.928,5.007,1.048,10.152,2.218,15.124,3.346,32.444,7.358,66.01,14.979,96.592-1.626A93.981,93.981,0,0,0,332.925,348.4v1.825a94.46,94.46,0,0,1-20.533,15.326c-30.811,16.716-64.484,9.081-97.054,1.688-4.972-1.129-10.118-2.3-15.115-3.343-14.917-3.086-27.782-4.365-39.345-3.928-28.433,1-50.687,12.079-68.015,33.844-10.889,13.664-19.178,30.851-28.124,50.281l-1.38,3q-2.317,5.06-4.653,10.066-.833,1.782-1.678,3.56Zm-4.6,0c1.714-3.426,3.385-6.891,5.019-10.354,1.637-3.447,3.254-6.949,4.877-10.433l1.162-2.489c9-19.358,17.334-36.5,28.219-50.193,17.449-21.952,39.712-33.252,68.085-34.543,11.545-.572,24.392.589,39.261,3.543,5.215,1.057,10.58,2.239,15.762,3.377,32.026,7.055,65.132,14.358,95.361-1.714A96.62,96.62,0,0,0,332.925,339.4v1.825a96.965,96.965,0,0,1-23.671,18.133c-30.448,16.186-63.673,8.866-95.813,1.778-5.182-1.138-10.546-2.319-15.753-3.372-14.822-2.936-27.617-4.106-39.112-3.53-28.149,1.275-50.233,12.474-67.5,34.2-10.8,13.591-19.082,30.638-28.039,49.9l-1.161,2.49c-1.626,3.5-3.241,6.985-4.88,10.446-1.491,3.154-3.01,6.309-4.566,9.436Zm-4.863,0c2.822-5.317,5.515-10.785,8.12-16.25,1.71-3.575,3.408-7.2,5.1-10.813l.934-1.983c9.006-19.2,17.345-36.207,28.132-49.8,17.381-21.9,39.484-33.331,67.564-34.9,11.494-.687,24.253.341,39.027,3.146,5.428,1.05,11.012,2.245,16.413,3.394,31.594,6.75,64.253,13.738,94.118-1.8a99.163,99.163,0,0,0,27.159-21.515v1.877a99.445,99.445,0,0,1-26.87,21.12c-30.087,15.656-62.86,8.636-94.56,1.859-5.392-1.147-10.975-2.341-16.393-3.387-14.716-2.8-27.425-3.82-38.87-3.128-27.856,1.556-49.77,12.874-66.982,34.561C78.552,396.56,70.259,413.477,61.3,432.6l-.933,1.983q-2.549,5.44-5.106,10.827c-2.451,5.14-4.979,10.285-7.62,15.305Zm-5,0c4.049-7.1,7.824-14.6,11.431-22.083,1.67-3.464,3.329-6.98,4.986-10.481l1.042-2.208c9.012-19.054,17.338-35.925,28.039-49.43,17.326-21.877,39.257-33.411,67.043-35.264,11.428-.825,24.107.075,38.785,2.744,5.649,1.048,11.452,2.254,17.072,3.416,31.15,6.469,63.357,13.158,92.855-1.875q16.141-8.231,30.321-24.648v1.883Q318.9,338.8,302.9,346.986c-29.708,15.15-62.032,8.429-93.29,1.947-5.611-1.158-11.414-2.365-17.053-3.409-14.619-2.66-27.258-3.559-38.634-2.744-27.571,1.832-49.312,13.254-66.47,34.917-10.61,13.385-18.893,30.18-27.868,49.138l-1.042,2.206c-1.669,3.513-3.326,7.015-5,10.492-3.451,7.169-7.056,14.345-10.911,21.181Zm-5.415,0a308.494,308.494,0,0,0,15.1-28.02c1.755-3.6,3.484-7.232,5.224-10.872l.815-1.7c9.016-18.909,17.347-35.637,27.951-49.039,17.268-21.838,39.028-33.49,66.521-35.624,11.366-.931,23.976-.155,38.549,2.361,5.872,1.045,11.905,2.254,17.743,3.428,30.709,6.173,62.465,12.564,91.593-1.959q17.936-8.958,33.49-27.871v1.965q-15.39,18.48-33.191,27.391c-29.337,14.625-61.2,8.221-92.017,2.021-5.838-1.175-11.869-2.4-17.724-3.421-14.514-2.507-27.076-3.278-38.391-2.343-27.272,2.132-48.852,13.67-65.952,35.293-10.516,13.3-18.8,29.948-27.783,48.762l-.815,1.7c-1.728,3.63-3.47,7.27-5.224,10.873-4.507,9.26-9.272,18.533-14.5,27.057Zm-5.73,0C37.3,450.5,43.53,438.666,49.329,426.853c1.8-3.646,3.584-7.348,5.363-11.036l.674-1.412c9.029-18.745,17.357-35.347,27.863-48.649,17.213-21.8,38.8-33.568,66-35.984,11.306-1.05,23.84-.417,38.317,1.963,6.085,1.024,12.357,2.253,18.418,3.425,30.263,5.892,61.557,11.993,90.316-2.019,13.162-6.428,25.419-16.866,36.645-31.184v1.963c-11.155,14.041-23.314,24.313-36.364,30.683-28.956,14.1-60.358,7.989-90.73,2.083-6.058-1.186-12.323-2.4-18.4-3.417-14.427-2.373-26.9-3.014-38.157-1.958-26.984,2.395-48.386,14.069-65.44,35.649-10.415,13.181-18.7,29.705-27.695,48.371l-.675,1.411Q52.8,422.3,50.1,427.793c-5.616,11.437-11.635,22.9-18.454,32.922Zm-6.339,0c9.043-11.369,16.7-25.572,23.726-39.73,1.814-3.658,3.617-7.366,5.417-11.061l.619-1.261C60.993,393.525,70.16,374.679,81.4,360.4c16.923-21.46,38.955-33.694,65.48-36.343,11.249-1.186,23.705-.68,38.083,1.564,6.309,1.006,12.814,2.222,19.1,3.41,29.82,5.612,60.654,11.411,89.031-2.08,14.4-6.859,27.723-18.452,39.824-34.6V294.4c-12.03,15.837-25.254,27.237-39.514,34.032-28.577,13.6-59.516,7.771-89.433,2.135-6.291-1.174-12.793-2.4-19.093-3.407-14.322-2.22-26.717-2.731-37.913-1.557-26.321,2.624-48.173,14.745-64.93,36-11.155,14.154-20.278,32.924-27.61,48l-.618,1.261c-1.8,3.709-3.6,7.4-5.43,11.072-6.821,13.748-14.234,27.537-22.937,38.782Zm-7.094,0c11.446-12.034,20.723-28.832,29.11-45.573q2.894-5.791,5.759-11.646l.278-.563c9.37-19.094,17.366-34.758,27.689-47.867,16.868-21.435,38.728-33.789,64.958-36.7,11.189-1.3,23.563-.912,37.838,1.177,6.555.984,13.3,2.2,19.819,3.394,29.376,5.332,59.744,10.856,87.734-2.132,15.621-7.267,30.013-20.027,42.967-38.068v2.034c-12.893,17.714-27.186,30.277-42.683,37.482-28.186,13.081-58.65,7.532-88.123,2.175-6.51-1.186-13.253-2.421-19.788-3.4-14.225-2.085-26.541-2.47-37.678-1.174-26.024,2.89-47.7,15.133-64.408,36.365C70,369.232,62.049,384.8,52.709,403.831l-.277.565c-1.916,3.9-3.832,7.8-5.771,11.656C38.5,432.33,29.5,448.667,18.478,460.715Zm-8-.437C23.191,448.347,34.312,428.731,44.2,409.2c1.99-3.916,3.958-7.888,5.924-11.846l.121-.234c7.769-15.68,16.569-33.445,27.6-47.49,16.824-21.407,38.5-33.883,64.437-37.066,11.129-1.425,23.429-1.174,37.606.779,6.778.967,13.764,2.192,20.526,3.373,28.915,5.09,58.816,10.342,86.422-2.159,16.852-7.642,32.3-21.586,46.085-41.569v2.067c-13.731,19.647-29.091,33.4-45.829,40.987-27.8,12.578-57.8,7.317-86.8,2.22-6.752-1.176-13.737-2.4-20.507-3.365-14.131-1.935-26.377-2.194-37.445-.776-25.737,3.153-47.228,15.519-63.9,36.722C67.5,364.768,58.731,382.468,50.994,398.082l-.121.234q-2.952,5.96-5.927,11.861c-9.674,19.094-20.533,38.3-34.508,50.437A11.942,11.942,0,0,1,8.778,460.277Zm-5.577-3.4q1.107-.76,2.2-1.6c15.2-11.7,26.795-31.893,37.066-51.956,2.01-3.922,3.988-7.891,5.975-11.855l.06-.118c7.778-15.551,16.6-33.178,27.518-47.1,16.778-21.379,38.279-33.978,63.916-37.425,11.07-1.545,23.287-1.408,37.37.4,7.015.938,14.252,2.16,21.254,3.345,28.452,4.8,57.876,9.79,85.094-2.208,18.122-8.005,34.653-23.2,49.27-45.243v2.2c-14.562,21.663-31,36.628-49,44.579-27.4,12.065-56.923,7.068-85.47,2.241-6.994-1.183-14.231-2.4-21.236-3.338-14.021-1.81-26.192-1.928-37.2-.389-25.441,3.419-46.771,15.9-63.384,37.077-10.832,13.8-19.618,31.364-27.364,46.849l-.06.117q-2.986,5.968-5.988,11.867c-10.336,20.209-22.018,40.537-37.4,52.371q-.792.61-1.591,1.178A12.068,12.068,0,0,1,3.2,456.874Zm-2.906-5.5q1.752-1.123,3.473-2.446c15.134-11.636,26.716-31.61,36.967-51.444q3.044-5.872,6.045-11.842c7.8-15.431,16.628-32.915,27.43-46.71,16.726-21.368,38.054-34.071,63.394-37.786,11-1.669,23.143-1.673,37.128-.005,7.253.9,14.752,2.114,22,3.292,27.989,4.562,56.939,9.272,83.759-2.227,19.4-8.348,37.019-24.781,52.436-48.924v2.175c-15.374,23.75-32.9,39.963-52.181,48.248-27,11.584-56.041,6.85-84.118,2.267-7.245-1.177-14.732-2.408-21.976-3.3-13.917-1.655-26.009-1.645-36.957.014-25.134,3.674-46.293,16.273-62.864,37.437-10.722,13.686-19.514,31.107-27.279,46.472-2.008,3.972-4.017,7.943-6.046,11.858-10.326,19.976-21.992,40.089-37.3,51.858Q2.471,451.64.7,452.773A11.9,11.9,0,0,1,.295,451.371ZM0,444.118q1.076-.741,2.138-1.557c15.078-11.6,26.628-31.329,36.869-50.929,2.033-3.883,4.044-7.806,6.045-11.732,7.8-15.3,16.654-32.65,27.343-46.319,16.68-21.34,37.84-34.176,62.874-38.146,10.943-1.8,23.006-1.937,36.894-.4,7.51.86,15.261,2.075,22.758,3.246,27.521,4.317,55.99,8.78,82.406-2.239,20.7-8.652,39.4-26.373,55.6-52.673v2.2c-16.158,25.87-34.763,43.336-55.337,51.937C251,308.6,222.442,304.115,194.833,299.79c-7.486-1.182-15.237-2.4-22.729-3.249-13.829-1.523-25.84-1.4-36.722.4-24.847,3.937-45.826,16.658-62.355,37.809-10.6,13.577-19.417,30.845-27.194,46.1-2,3.928-4.014,7.865-6.048,11.747-10.313,19.728-21.96,39.612-37.2,51.331Q1.3,444.908,0,445.785Zm0-7.6c.182-.136.362-.273.544-.412,15.053-11.575,27.031-31.984,36.77-50.417,2.035-3.833,4.041-7.727,6.044-11.606C51.182,358.9,60.046,341.7,70.614,328.152c16.638-21.326,37.618-34.285,62.353-38.506,10.881-1.909,22.868-2.184,36.658-.788,7.759.823,15.774,2.021,23.532,3.19,27.059,4.078,55.03,8.285,81.04-2.24,21.183-8.586,40.3-26.516,56.826-53.255q.956-1.546,1.9-3.138v2.238q-.607,1.006-1.217,1.994c-16.66,26.951-35.932,45.007-57.29,53.678-26.182,10.594-54.24,6.368-81.379,2.289-7.75-1.166-15.753-2.375-23.5-3.193-13.734-1.372-25.667-1.122-36.489.8-24.539,4.191-45.338,17.036-61.833,38.169-10.48,13.44-19.311,30.574-27.107,45.7-2.005,3.893-4.009,7.772-6.047,11.621-9.811,18.562-21.884,39.12-37.1,50.818q-.48.369-.962.722Zm0-7.631c14.478-11.648,26.1-31.272,35.586-49.049,2.03-3.8,4.036-7.649,6.044-11.495,8.222-15.808,16.725-32.13,27.17-45.552,16.531-21.227,37.328-34.3,61.833-38.866,10.935-2.045,22.849-2.429,36.416-1.189,8.027.775,16.313,1.976,24.327,3.126,26.576,3.845,54.056,7.814,79.652-2.235,21.139-8.335,40.256-25.776,56.825-51.846q2.569-4.04,5.072-8.395v2.275q-2.169,3.722-4.387,7.214c-16.7,26.285-35.965,43.853-57.288,52.253-25.758,10.124-53.325,6.134-79.981,2.288-8-1.146-16.29-2.346-24.29-3.11-13.506-1.231-25.361-.852-36.243,1.183-24.307,4.541-44.934,17.49-61.322,38.525-10.379,13.323-18.841,29.584-27.031,45.325-2,3.849-4.019,7.706-6.048,11.509C26.695,398.917,14.85,418.91,0,430.63Zm0-7.7c13.671-11.7,24.748-30.306,33.866-47.191,2.032-3.756,4.043-7.568,6.043-11.369,8.24-15.673,16.762-31.877,27.084-45.16,16.488-21.215,37.118-34.415,61.311-39.227,10.884-2.161,22.713-2.692,36.183-1.589,8.278.723,16.84,1.9,25.125,3.048,26.093,3.612,53.08,7.343,78.253-2.234,21.113-8.06,40.228-25.027,56.831-50.419q4.2-6.415,8.229-13.65v2.337q-3.7,6.543-7.534,12.41c-16.738,25.6-36.007,42.7-57.29,50.814-25.333,9.635-52.4,5.887-78.57,2.259-8.277-1.133-16.837-2.321-25.1-3.036-13.4-1.092-25.178-.571-36,1.584-24.007,4.778-44.465,17.861-60.81,38.883-10.255,13.184-18.735,29.326-26.947,44.948q-3.017,5.719-6.055,11.38c-9.28,17.2-20.594,36.172-34.622,47.956Zm0-7.817C12.881,401.7,23.423,384.121,32.163,368.1c2.053-3.763,4.115-7.634,6.044-11.258,8.268-15.55,16.8-31.639,27-44.771,16.458-21.211,36.9-34.52,60.79-39.586,10.827-2.295,22.578-2.954,35.95-1.986,8.55.661,17.394,1.827,25.953,2.967,25.609,3.392,52.082,6.894,76.832-2.21,21.065-7.78,40.189-24.269,56.829-49q5.833-8.669,11.368-18.9v2.365q-5.221,9.513-10.711,17.676c-16.762,24.914-36.037,41.528-57.286,49.375-24.9,9.167-51.452,5.649-77.138,2.24-8.552-1.121-17.384-2.3-25.915-2.951-13.3-.955-25-.307-35.765,1.968-23.705,5.015-43.985,18.22-60.3,39.238-10.119,13.036-18.629,29.056-26.86,44.557-1.93,3.625-4,7.506-6.056,11.269C23.99,385.414,13.223,403.357,0,415.13Zm0-7.9c12.1-11.548,22.1-28.116,30.451-43.254,2.056-3.715,4.121-7.551,6.043-11.132l.135-.26c8.217-15.3,16.706-31.141,26.765-44.123,16.415-21.2,36.694-34.639,60.269-39.946,10.757-2.419,22.437-3.187,35.7-2.373,8.824.587,17.961,1.747,26.8,2.86,25.12,3.188,51.091,6.463,75.4-2.177,21.047-7.5,40.17-23.517,56.834-47.57a233.82,233.82,0,0,0,14.529-24.163V195.7a233.007,233.007,0,0,1-13.892,22.944c-16.787,24.239-36.059,40.365-57.28,47.938-24.459,8.7-50.5,5.4-75.687,2.215-8.825-1.11-17.953-2.266-26.755-2.86-13.207-.819-24.827-.043-35.523,2.371-23.386,5.26-43.5,18.579-59.777,39.6-9.992,12.883-18.452,28.669-26.639,43.922l-.136.26c-1.921,3.58-4,7.413-6.054,11.143C22.66,378.673,12.434,395.594,0,407.27Zm0-7.973c11.308-11.35,20.749-26.887,28.7-41.139,1.932-3.466,3.819-6.9,6.042-11.006l.306-.553c8.162-15.041,16.593-30.6,26.516-43.436C77.954,280.15,98.06,266.6,121.315,261.053c10.7-2.554,22.3-3.464,35.472-2.771,9.108.515,18.54,1.656,27.656,2.761,24.615,2.977,50.067,6.052,73.937-2.139,21.029-7.225,40.148-22.751,56.84-46.143a237.842,237.842,0,0,0,17.707-29.448v2.452a237.279,237.279,0,0,1-17.036,28.131c-16.824,23.575-36.093,39.211-57.287,46.51-24.015,8.225-49.536,5.138-74.221,2.164-9.107-1.1-18.53-2.238-27.616-2.761-13.109-.683-24.651.221-35.287,2.754-23.079,5.514-43.024,18.953-59.268,39.969C52.352,315.28,43.95,330.79,35.816,345.78l-.306.553c-2.234,4.114-4.114,7.57-6.055,11.031C21.331,371.918,11.649,387.83,0,399.332Zm0-8.033c10.547-11.079,19.44-25.607,26.99-38.981,2.1-3.711,4.15-7.429,6.052-10.891l.47-.864c8.1-14.783,16.471-30.068,26.258-42.753,16.363-21.188,36.292-34.871,59.224-40.652a121.673,121.673,0,0,1,35.239-3.169c9.393.429,19.13,1.554,28.541,2.641,24.108,2.765,49.033,5.634,72.451-2.1,21-6.951,40.121-22,56.838-44.718a241.5,241.5,0,0,0,20.864-34.659v2.475a240.608,240.608,0,0,1-20.218,33.339c-16.836,22.889-36.1,38.051-57.28,45.073-23.557,7.782-48.55,4.9-72.726,2.122-9.4-1.081-19.129-2.2-28.5-2.64a121.186,121.186,0,0,0-35.044,3.155c-22.766,5.741-42.532,19.3-58.757,40.326-9.722,12.6-18.068,27.833-26.136,42.565l-.469.864c-1.9,3.462-3.948,7.181-6.055,10.905C20.015,365.184,10.886,380.082,0,391.329Zm0-8.069c9.818-10.736,18.171-24.3,25.32-36.816,2.153-3.753,4.263-7.556,6.051-10.765L32,332.663c8.043-14.522,16.362-29.544,26.013-42.08,16.335-21.2,36.083-35.005,58.7-41.012a119.555,119.555,0,0,1,34.993-3.557c9.687.361,19.729,1.458,29.445,2.527,23.594,2.6,47.991,5.262,70.951-2.026,20.989-6.689,40.112-21.247,56.845-43.294a245.628,245.628,0,0,0,23.977-39.731v2.47a244.266,244.266,0,0,1-23.368,38.451c-16.862,22.214-36.125,36.887-57.283,43.631-23.1,7.326-47.563,4.648-71.219,2.057-9.707-1.067-19.737-2.173-29.406-2.527a119.673,119.673,0,0,0-34.808,3.539C94.4,257.082,74.8,270.762,58.607,291.8c-9.587,12.452-17.874,27.409-25.889,41.893l-.639,1.142c-1.78,3.227-3.9,7.026-6.055,10.794C18.7,358.445,10.126,372.344,0,383.258Zm0-8.115c9.068-10.313,16.86-22.869,23.584-34.507,2.157-3.72,4.269-7.474,6.052-10.653l.829-1.49c7.975-14.249,16.224-28.984,25.725-41.345,16.316-21.208,35.885-35.136,58.182-41.372a117.682,117.682,0,0,1,34.76-3.956c10,.254,20.362,1.343,30.385,2.382,23.066,2.393,46.93,4.883,69.423-1.968,20.983-6.422,40.1-20.506,56.843-41.885,9.471-12.092,18.58-27.146,27.143-44.833v2.5c-8.388,17.106-17.3,31.727-26.545,43.534-16.864,21.532-36.137,35.726-57.278,42.194-22.622,6.892-46.544,4.395-69.679,1.988-10.011-1.051-20.369-2.12-30.334-2.392a117.528,117.528,0,0,0-34.566,3.941c-22.126,6.181-41.546,20-57.723,41.042-9.437,12.292-17.659,26.977-25.6,41.174l-.838,1.485c-1.792,3.175-3.9,6.93-6.063,10.665C17.4,351.717,9.378,364.628,0,375.139Zm0-8.248c8.331-9.821,15.56-21.393,21.854-32.158,2.19-3.738,4.289-7.417,6.049-10.527l1.04-1.843c7.906-13.963,16.077-28.414,25.426-40.6,16.3-21.229,35.7-35.277,57.661-41.733a116.121,116.121,0,0,1,34.518-4.356c10.3.16,21.005,1.23,31.343,2.244,22.542,2.222,45.845,4.525,67.872-1.888,20.984-6.137,40.106-19.746,56.849-40.458,10.6-13.109,20.794-29.87,30.313-49.84v2.567c-9.347,19.345-19.325,35.652-29.694,48.465-16.868,20.85-36.139,34.57-57.281,40.752-22.145,6.459-45.516,4.144-68.117,1.913-10.33-1.011-21.012-2.073-31.285-2.237a116.051,116.051,0,0,0-34.331,4.325c-21.8,6.4-41.05,20.333-57.211,41.4-9.3,12.128-17.438,26.514-25.318,40.439l-1.039,1.844c-1.773,3.12-3.875,6.816-6.065,10.552C16.108,344.971,8.642,356.9,0,366.934Zm0-8.351c7.6-9.261,14.266-19.848,20.119-29.737,1.753-2.955,3.621-6.163,6.047-10.4l1.238-2.173c7.839-13.69,15.93-27.858,25.142-39.88,16.284-21.253,35.5-35.423,57.14-42.094a114.882,114.882,0,0,1,34.282-4.739c10.621.07,21.65,1.1,32.323,2.1,22.008,2.062,44.76,4.181,66.3-1.8,20.988-5.865,40.118-19,56.856-39.03,10.895-13.045,21.42-29.914,31.278-50.15q1.106-2.267,2.2-4.588v2.611q-.7,1.472-1.411,2.925c-9.905,20.343-20.489,37.315-31.458,50.44-16.867,20.2-36.134,33.432-57.278,39.328-21.657,6.015-44.466,3.885-66.533,1.815-10.652-1-21.671-2.031-32.264-2.092a114.129,114.129,0,0,0-34.1,4.722c-21.468,6.615-40.545,20.67-56.69,41.759-9.159,11.949-17.234,26.077-25.037,39.733L26.919,317.6c-2.436,4.234-4.3,7.461-6.062,10.426C14.812,338.227,7.91,349.172,0,358.673Zm0-8.253a250.317,250.317,0,0,0,18.429-27.335c1.76-2.936,3.623-6.113,6.05-10.291l1.473-2.549c7.75-13.409,15.758-27.264,24.809-39.117,16.269-21.29,35.317-35.58,56.618-42.453a113.255,113.255,0,0,1,34.049-5.139c10.952-.043,22.328.961,33.335,1.939,21.463,1.9,43.656,3.877,64.695-1.7,20.989-5.581,40.118-18.237,56.852-37.607,10.962-12.684,21.587-29.2,31.585-49.072,1.693-3.367,3.371-6.83,5.03-10.336v2.525c-1.413,2.961-2.838,5.886-4.275,8.743-10.058,19.994-20.75,36.6-31.777,49.371-16.853,19.527-36.126,32.267-57.272,37.892-21.143,5.6-43.4,3.621-64.909,1.718-11-.972-22.362-1.988-33.277-1.929a112.106,112.106,0,0,0-33.853,5.11C86.429,235.029,67.522,249.2,51.38,270.325c-9,11.78-16.988,25.6-24.712,38.967l-1.476,2.563c-2.426,4.178-4.3,7.366-6.061,10.3A246.728,246.728,0,0,1,0,350.4ZM0,340.1a263.15,263.15,0,0,0,16.722-24.867c1.768-2.918,3.689-6.15,6.048-10.165l1.734-2.962c7.66-13.115,15.587-26.672,24.473-38.325,16.256-21.326,35.133-35.734,56.088-42.817a111.146,111.146,0,0,1,33.806-5.541c11.289-.187,23.018.806,34.373,1.754,20.9,1.759,42.524,3.564,63.058-1.59,21.011-5.3,40.136-17.47,56.858-36.181,11.185-12.512,21.619-28.2,31.9-48.005,2.688-5.179,5.274-10.447,7.862-15.856V118.1c-2.336,4.854-4.7,9.659-7.105,14.284-10.344,19.905-20.847,35.708-32.094,48.29-16.845,18.849-36.118,31.113-57.276,36.45-20.631,5.191-42.309,3.378-63.264,1.616-11.333-.956-23.053-1.945-34.31-1.761a110.561,110.561,0,0,0-33.618,5.494c-20.805,7.034-39.533,21.33-55.67,42.486-8.833,11.579-16.734,25.1-24.376,38.173l-1.736,2.962c-2.36,4.03-4.281,7.263-6.061,10.191A259.324,259.324,0,0,1,0,342.058Zm0-8.455c5.663-7.459,10.691-15.28,14.987-22.282,1.788-2.923,3.712-6.108,6.048-10.053L23,295.986c7.57-12.82,15.405-26.082,24.141-37.561,16.265-21.371,34.951-35.906,55.568-43.178a109.579,109.579,0,0,1,33.574-5.939c11.631-.313,23.738.649,35.448,1.571,20.348,1.6,41.378,3.274,61.391-1.48,21.03-5.009,40.167-16.714,56.864-34.754,11.241-12.14,21.776-27.487,32.212-46.927,3.678-6.856,7.169-13.889,10.726-21.193v2.542c-3.261,6.672-6.594,13.336-9.985,19.658-10.492,19.542-21.1,34.988-32.4,47.21-16.822,18.179-36.091,29.955-57.271,35.012-20.108,4.779-41.2,3.115-61.583,1.495-11.691-.93-23.778-1.883-35.379-1.573a108.992,108.992,0,0,0-33.374,5.895c-20.458,7.227-39.015,21.641-55.149,42.845-8.682,11.406-16.5,24.628-24.056,37.422l-1.971,3.339c-2.336,3.946-4.262,7.144-6.06,10.064A271.452,271.452,0,0,1,0,333.653Zm0-8.369c4.973-6.688,9.427-13.564,13.29-19.781,1.8-2.872,3.719-6.026,6.056-9.923l2.245-3.762c7.479-12.525,15.222-25.478,23.78-36.746,16.259-21.4,34.777-36.058,55.044-43.522a108.555,108.555,0,0,1,33.337-6.323c12-.46,24.48.484,36.556,1.385,19.768,1.473,40.208,3.007,59.691-1.353,21.056-4.745,40.188-15.96,56.863-33.346,11.3-11.782,21.938-26.786,32.521-45.863,4.644-8.379,9-17.032,13.542-26.129v2.5c-4.165,8.33-8.444,16.766-12.812,24.65-10.642,19.179-21.344,34.266-32.719,46.129-16.8,17.524-36.073,28.806-57.275,33.585-19.58,4.4-40.061,2.864-59.875,1.371-12.064-.913-24.529-1.833-36.485-1.388a107.7,107.7,0,0,0-33.139,6.279c-20.106,7.4-38.492,21.938-54.637,43.2-8.517,11.205-16.233,24.122-23.7,36.607L20.035,294.6c-2.338,3.9-4.26,7.067-6.062,9.953-4.039,6.5-8.722,13.715-13.973,20.7Zm0-8.449c4.292-5.876,8.169-11.814,11.582-17.237,1.821-2.879,3.744-6,6.057-9.812l2.556-4.233c7.373-12.207,15-24.828,23.38-35.885C59.845,226.2,78.191,211.424,98.1,203.777a107.161,107.161,0,0,1,33.1-6.721c12.355-.611,25.245.3,37.7,1.183,19.172,1.367,39.011,2.775,57.947-1.211,21.1-4.459,40.229-15.2,56.869-31.919,11.349-11.416,22.094-26.057,32.829-44.786,5.413-9.448,10.468-19.282,15.817-29.708l.564-1.1v2.42c-5.292,10.3-10.3,20.035-15.673,29.412-10.8,18.812-21.6,33.557-33.035,45.047-16.762,16.842-36.03,27.67-57.271,32.148-19.028,3.994-38.9,2.589-58.122,1.232-12.441-.88-25.3-1.793-37.626-1.184a106.361,106.361,0,0,0-32.9,6.68c-19.767,7.594-37.973,22.252-54.128,43.574-8.341,10.994-15.942,23.6-23.3,35.761l-2.556,4.233c-2.326,3.823-4.248,6.944-6.071,9.838C8.66,304.38,4.557,310.651,0,316.827Zm0-8.532c3.6-5.012,6.89-10.009,9.834-14.625,1.84-2.872,3.82-6.032,6.056-9.687l2.866-4.69c7.271-11.9,14.779-24.192,22.983-35.037,16.359-21.632,34.523-36.512,54-44.243A104.764,104.764,0,0,1,128.6,190.89c12.734-.77,26.029.119,38.876.979,18.581,1.246,37.8,2.536,56.174-1.066,21.138-4.172,40.276-14.42,56.876-30.492,11.426-11.049,22.265-25.352,33.149-43.717,5.679-9.607,10.99-19.635,16.6-30.251q1.318-2.494,2.644-5V83.8q-.945,1.783-1.885,3.561C325.415,98,320.1,108.041,314.4,117.669c-10.942,18.469-21.846,32.855-33.345,43.984-16.719,16.181-35.982,26.519-57.265,30.71-18.461,3.615-37.716,2.325-56.336,1.077-12.828-.852-26.092-1.743-38.8-.976a103.685,103.685,0,0,0-32.661,7.063c-19.329,7.683-37.365,22.458-53.607,43.934-8.166,10.8-15.66,23.063-22.9,34.928l-2.878,4.7c-2.245,3.65-4.228,6.826-6.07,9.711C7.4,297.716,3.876,303.06,0,308.4Zm0-8.337c2.948-4.156,5.671-8.256,8.148-12.089,1.847-2.853,3.766-5.9,6.057-9.576q1.623-2.6,3.225-5.2c7.142-11.559,14.533-23.519,22.537-34.132,16.372-21.706,34.366-36.7,53.481-44.6a103.971,103.971,0,0,1,32.627-7.506c13.137-.95,26.847-.077,40.1.762,17.975,1.136,36.546,2.316,54.359-.923,21.489-3.931,40.087-13.438,56.873-29.069,11.485-10.692,22.423-24.636,33.455-42.639,5.977-9.752,11.553-19.985,17.456-30.828q2.288-4.2,4.608-8.44v2.319q-1.955,3.569-3.885,7.119c-5.915,10.853-11.494,21.1-17.5,30.89-11.09,18.105-22.1,32.144-33.661,42.9-16.895,15.743-35.635,25.318-57.259,29.272-17.886,3.254-36.507,2.07-54.51.923-13.244-.835-26.923-1.711-40.021-.76a102.846,102.846,0,0,0-32.418,7.466c-18.974,7.831-36.841,22.74-53.095,44.29-7.975,10.561-15.343,22.5-22.469,34.034q-1.621,2.6-3.226,5.2c-2.29,3.68-4.222,6.734-6.069,9.586-2.664,4.123-5.61,8.552-8.816,13.03Zm0-8.474c2.289-3.265,4.43-6.466,6.414-9.5,1.851-2.82,3.831-5.918,6.055-9.45q1.806-2.877,3.614-5.769c7.012-11.217,14.262-22.825,22.063-33.19,16.394-21.775,34.218-36.908,52.959-44.964a102.366,102.366,0,0,1,32.394-7.9c13.553-1.139,27.7-.292,41.375.535,17.339,1.044,35.275,2.116,52.5-.769,21.549-3.636,40.155-12.666,56.878-27.642,11.542-10.321,22.582-23.922,33.763-41.562,6.3-9.932,12.156-20.4,18.368-31.459,2.161-3.851,4.338-7.732,6.547-11.611v2.311q-2.941,5.18-5.819,10.331c-6.225,11.086-12.1,21.563-18.409,31.521-11.247,17.739-22.361,31.42-33.978,41.82-16.839,15.07-35.569,24.175-57.263,27.831-17.293,2.9-35.257,1.816-52.636.771-13.656-.833-27.782-1.674-41.283-.544a101.539,101.539,0,0,0-32.183,7.851c-18.607,7.984-36.3,23.015-52.583,44.645-7.765,10.333-15,21.9-22,33.093q-1.81,2.9-3.614,5.769c-2.227,3.548-4.217,6.641-6.07,9.474C4.913,284.4,2.545,287.935,0,291.533Zm0-8.465c1.644-2.366,3.205-4.681,4.679-6.9,1.875-2.841,3.856-5.89,6.056-9.338q2-3.151,4.011-6.331c6.874-10.879,13.982-22.12,21.578-32.238C52.755,204.337,70.4,189.1,88.764,180.885a101.1,101.1,0,0,1,32.149-8.306c13.962-1.349,28.56-.5,42.682.306,16.7.95,33.968,1.949,50.586-.6a110.733,110.733,0,0,0,56.885-26.215c11.6-9.965,22.742-23.222,34.071-40.5C311.772,95.445,317.953,84.735,324.5,73.4c2.77-4.794,5.568-9.638,8.422-14.468v2.3c-2.6,4.419-5.158,8.847-7.691,13.236-6.552,11.346-12.748,22.081-19.4,32.229-11.4,17.375-22.61,30.7-34.294,40.738a111.48,111.48,0,0,1-57.26,26.407c-16.672,2.56-33.98,1.576-50.718.608-14.092-.81-28.672-1.65-42.59-.315a100.567,100.567,0,0,0-31.94,8.252c-18.223,8.145-35.747,23.277-52.063,45.006-7.558,10.071-14.651,21.286-21.51,32.14q-2.006,3.172-4.012,6.331c-2.2,3.448-4.183,6.512-6.068,9.348C3.694,277.745,1.9,280.4,0,283.11Zm0-8.5q1.451-2.1,2.939-4.308C4.816,265.421,6.8,262.406,8.994,259q2.241-3.479,4.463-6.965c6.718-10.5,13.669-21.364,21.04-31.213,16.7-22.265,33.677-37.213,51.915-45.67a99.888,99.888,0,0,1,31.917-8.7c14.409-1.558,29.483-.733,44.059.074,16.049.885,32.637,1.789,48.625-.422A110.967,110.967,0,0,0,267.9,141.313c11.66-9.607,22.91-22.5,34.388-39.417,7.009-10.317,13.528-21.3,20.439-32.92,3.341-5.627,6.725-11.323,10.194-16.98v2.227c-3.214,5.264-6.359,10.555-9.467,15.785-6.914,11.638-13.457,22.64-20.482,33-11.545,17.012-22.86,29.992-34.6,39.659a111.884,111.884,0,0,1-57.263,24.966c-16.051,2.232-32.668,1.316-48.748.435-14.548-.8-29.591-1.624-43.947-.076a99.059,99.059,0,0,0-31.705,8.635c-18.106,8.4-34.967,23.239-51.553,45.378-7.342,9.8-14.27,20.639-20.975,31.128q-2.23,3.507-4.462,6.966c-2.2,3.418-4.181,6.434-6.071,9.238Q1.8,272.091,0,274.663Zm0-8.337q.662-.96,1.291-1.883c1.9-2.784,3.874-5.755,6.053-9.085q2.475-3.784,4.946-7.618c6.554-10.127,13.329-20.6,20.467-30.155C49.486,193.064,66.3,178,84.142,169.41a98.812,98.812,0,0,1,31.672-9.091c14.862-1.8,30.428-.97,45.477-.172,15.379.81,31.276,1.647,46.616-.249,21.785-2.731,40.394-10.367,56.89-23.381,11.615-9.167,22.967-21.719,34.7-38.354,7.337-10.48,14.175-21.676,21.423-33.505,3.923-6.413,7.906-12.921,12.006-19.36v2.191c-3.854,6.081-7.608,12.217-11.309,18.268-7.263,11.856-14.109,23.047-21.477,33.578-11.8,16.748-23.225,29.366-34.92,38.594-16.611,13.091-35.34,20.788-57.258,23.527-15.4,1.9-31.329,1.068-46.727.251-15.021-.787-30.556-1.615-45.366.171a98.543,98.543,0,0,0-31.462,9.036C66.689,179.444,50,194.4,33.365,216.647c-7.113,9.514-13.872,19.966-20.414,30.082-1.655,2.552-3.3,5.108-4.949,7.631-2.182,3.345-4.17,6.313-6.077,9.107Q1,264.826,0,266.268Zm0-8.361c1.782-2.581,3.622-5.312,5.612-8.317,1.832-2.764,3.647-5.549,5.474-8.347,6.364-9.731,12.951-19.813,19.845-29.054,16.791-22.512,33.428-37.681,50.863-46.393a98.036,98.036,0,0,1,31.439-9.49c15.332-2.026,31.414-1.208,46.956-.409,14.674.752,29.857,1.529,44.535-.075,21.893-2.418,40.5-9.595,56.9-21.954,11.683-8.806,23.134-21,35.005-37.275C304.386,83.8,311.6,72.317,319.25,60.161c4.457-7.089,8.991-14.3,13.675-21.4v2.151c-4.432,6.745-8.732,13.585-12.964,20.316-7.661,12.181-14.893,23.685-22.677,34.422-11.939,16.375-23.461,28.634-35.228,37.516-16.51,12.452-35.232,19.694-57.254,22.1-14.729,1.613-29.932.83-44.637.079-15.52-.806-31.56-1.623-46.844.408a97.3,97.3,0,0,0-31.226,9.42c-17.312,8.636-33.841,23.71-50.53,46.09-6.88,9.215-13.451,19.271-19.8,28.991-1.828,2.8-3.643,5.584-5.475,8.348-2.16,3.275-4.153,6.209-6.078,9l-.208.3Zm0-8.392c1.227-1.779,2.509-3.665,3.87-5.7,2.039-3.041,4.064-6.1,6.1-9.177,6.152-9.313,12.517-18.933,19.132-27.832,16.854-22.645,33.322-37.948,50.342-46.754a97.076,97.076,0,0,1,31.206-9.887c15.834-2.308,32.435-1.478,48.5-.667,13.972.7,28.408,1.429,42.4.11,22.006-2.084,40.617-8.8,56.9-20.526,11.755-8.459,23.307-20.31,35.325-36.209,8.251-11,15.926-22.858,24.055-35.428,4.908-7.586,9.913-15.326,15.092-22.91v2.09C327.987,41.8,323.2,49.2,318.51,56.45c-8.141,12.582-15.829,24.465-24.108,35.5-12.083,16-23.708,27.913-35.545,36.434-16.389,11.808-35.119,18.571-57.248,20.668-14.036,1.318-28.5.589-42.493-.116-16.023-.811-32.6-1.647-48.374.653a96.534,96.534,0,0,0-30.983,9.823c-16.9,8.746-33.261,23.953-50.012,46.465-6.6,8.859-12.951,18.468-19.092,27.77-2.036,3.074-4.062,6.152-6.1,9.192-1.618,2.407-3.121,4.615-4.554,6.685Zm0-8.26q1.064-1.544,2.184-3.194,3.39-4.992,6.751-10.045c5.928-8.884,12.064-18.046,18.4-26.589,16.923-22.805,33.226-38.209,49.822-47.114a95.754,95.754,0,0,1,30.964-10.289c16.352-2.581,33.514-1.738,50.116-.908,13.234.658,26.915,1.344,40.19.293,22.222-1.758,40.834-8.015,56.91-19.1,11.759-8.015,23.411-19.507,35.632-35.131,8.8-11.325,16.982-23.62,25.643-36.648,5.3-7.97,10.715-16.112,16.318-24.053V28.48c-5.365,7.638-10.562,15.452-15.649,23.1-8.674,13.055-16.87,25.375-25.707,36.732-12.295,15.7-24.031,27.273-35.861,35.352-16.188,11.164-34.917,17.452-57.252,19.225-13.316,1.049-27.019.371-40.271-.294-16.573-.819-33.7-1.679-49.983.9A95.274,95.274,0,0,0,77.453,153.7c-16.484,8.841-32.671,24.151-49.5,46.822-6.314,8.5-12.442,17.667-18.365,26.523q-3.37,5.049-6.75,10.044C1.856,238.533.914,239.911,0,241.234Zm0-8.258.455-.66q3.76-5.478,7.493-11.032c5.673-8.39,11.534-17.065,17.555-25.2,17.246-23.287,32.913-38.372,49.3-47.474a95.634,95.634,0,0,1,30.727-10.673c16.889-2.9,34.637-2.012,51.807-1.15,12.478.61,25.373,1.253,37.91.464,22.642-1.455,40.722-7.065,56.907-17.677,11.834-7.7,23.586-18.832,35.942-34.068,9.427-11.7,18.176-24.482,27.429-38.038,5.647-8.266,11.431-16.729,17.4-24.943v2.056c-5.732,7.925-11.3,16.068-16.733,24.021C306.916,60.118,298.162,72.933,288.7,84.66c-12.42,15.32-24.255,26.53-36.168,34.275-16.286,10.679-34.483,16.32-57.246,17.787-12.568.793-25.482.143-37.978-.475-17.132-.847-34.85-1.732-51.665,1.147a94.374,94.374,0,0,0-30.5,10.592C58.865,157.009,43.3,172.011,26.15,195.163c-6.006,8.108-11.868,16.784-17.528,25.163q-3.758,5.551-7.505,11.043-.565.823-1.117,1.619Zm0-8.271c2.365-3.412,4.72-6.867,7.081-10.32,5.384-7.878,10.957-16.042,16.628-23.719,17.338-23.471,32.844-38.67,48.776-47.821a94.685,94.685,0,0,1,30.5-11.071c17.455-3.212,35.818-2.278,53.573-1.377,11.686.6,23.78,1.22,35.547.647,22.782-1.1,40.865-6.261,56.912-16.25,11.906-7.352,23.768-18.14,36.249-32.99,10.116-12.087,19.487-25.452,29.406-39.6,5.921-8.442,12-17.112,18.257-25.48v2c-6.026,8.1-11.892,16.464-17.609,24.618-9.492,13.551-19.315,27.55-29.47,39.685-12.554,14.93-24.489,25.783-36.485,33.193-16.15,10.056-34.34,15.256-57.244,16.364-11.8.576-23.9-.051-35.608-.641-17.715-.9-36.046-1.837-53.422,1.377a93.791,93.791,0,0,0-30.271,10.991c-15.831,9.082-31.229,24.184-48.476,47.534-5.66,7.668-11.218,15.8-16.6,23.684Q3.87,219.14,0,224.729Zm0-8.133c2.116-3.037,4.23-6.1,6.3-9.1,5.071-7.344,10.3-14.936,15.611-22.134,17.691-24,32.575-38.863,48.256-48.181a93.8,93.8,0,0,1,30.252-11.473c18.041-3.569,37.055-2.569,55.434-1.613,10.877.574,22.132,1.164,33.1.81,22.923-.752,41.017-5.454,56.918-14.824,12-7.025,23.963-17.455,36.57-31.922,10.911-12.562,21.46-27.222,31.656-41.414,6.108-8.484,12.4-17.25,18.833-25.646v1.956c-6.211,8.133-12.3,16.6-18.2,24.823-10.217,14.2-20.783,28.9-31.73,41.494-12.678,14.545-24.725,25.051-36.8,32.125-16.013,9.433-34.195,14.177-57.238,14.926-10.987.362-22.252-.232-33.15-.8-18.338-.955-37.3-1.95-55.27,1.6A93.046,93.046,0,0,0,70.5,136.521c-15.57,9.255-30.358,24.026-47.958,47.909-5.295,7.188-10.526,14.765-15.584,22.1-2.283,3.306-4.621,6.7-6.962,10.045Zm0-8.132c1.906-2.71,3.8-5.429,5.665-8.1,4.7-6.756,9.552-13.717,14.444-20.376,12-16.317,28.262-36.566,47.736-48.54a93.07,93.07,0,0,1,30.019-11.872c18.66-3.958,38.343-2.869,57.379-1.827,10.045.559,20.422,1.113,30.56.952,23.09-.382,41.18-4.643,56.924-13.4,12.082-6.677,24.149-16.778,36.877-30.844,11.818-13.1,23.2-28.555,34.207-43.512,5.978-8.121,12.153-16.508,18.393-24.518l.721-.925V5.38l-.109.14c-6.228,8-12.4,16.372-18.365,24.481-11.027,14.984-22.432,30.473-34.286,43.607-12.8,14.162-24.94,24.313-37.111,31.047-15.854,8.8-34.047,13.083-57.241,13.485-10.16.169-20.544-.4-30.6-.953-19-1.04-38.642-2.115-57.216,1.817A92.646,92.646,0,0,0,68.2,130.78c-19.337,11.874-35.512,32.032-47.446,48.266-4.879,6.633-9.732,13.594-14.427,20.335C4.253,202.357,2.13,205.4,0,208.42Zm0-8.212c1.733-2.447,3.454-4.893,5.15-7.3,4.28-6.077,8.694-12.35,13.117-18.383,12.838-17.518,28.488-37.009,47.213-48.9a92.875,92.875,0,0,1,29.784-12.254c19.311-4.352,39.71-3.168,59.441-2.011,9.167.524,18.638,1.081,27.905,1.077,23.572-.022,41.131-3.713,56.921-11.974,12.167-6.357,24.333-16.1,37.186-29.781,12.866-13.707,25.2-30.106,37.14-45.959C319,15.842,324.329,8.762,329.66,1.955q1.59-2.037,3.265-4.147V-.163q-1.343,1.7-2.632,3.347C324.975,9.982,319.648,17.06,314.5,23.9c-11.963,15.874-24.322,32.294-37.228,46.049C264.35,83.71,252.1,93.515,239.848,99.914c-15.9,8.324-33.555,12.038-57.238,12.062-9.278.014-18.76-.546-27.935-1.075-19.685-1.137-40.042-2.335-59.27,2a91.9,91.9,0,0,0-29.546,12.163c-18.6,11.8-34.164,31.2-46.935,48.623-4.411,6.021-8.825,12.294-13.093,18.361-1.919,2.73-3.868,5.5-5.83,8.272Zm0-7.9c1.657-2.322,3.3-4.641,4.926-6.932,17.744-25.01,36.085-50.877,58.261-65.41,28.606-18.744,60.405-16.753,91.162-14.832,27.464,1.715,55.851,3.5,82.073-9.373,29.615-14.556,54.235-46.6,78.032-77.593,6.074-7.912,12.208-15.9,18.472-23.666v1.935c-6.051,7.523-11.986,15.252-17.861,22.9C291.191,48.386,266.5,80.527,236.7,95.161c-26.385,12.947-54.864,11.172-82.407,9.439-30.645-1.921-62.335-3.9-90.74,14.724-22.018,14.44-40.3,40.2-57.982,65.131-1.832,2.584-3.693,5.206-5.567,7.828Z" transform="translate(307.061 239.285)" fill="#79de8d" opacity="0.5"/>
  </g>
</svg>
