<svg xmlns="http://www.w3.org/2000/svg" width="35" height="35" viewBox="0 0 35 35">
  <g id="Group_56754" data-name="Group 56754" transform="translate(-1232 -26)">
    <g id="Group_56753" data-name="Group 56753">
      <rect id="Rectangle_1644" data-name="Rectangle 1644" width="35" height="35" rx="4" transform="translate(1232 26)" fill="#e8e5e5"/>
      <g id="Group_57101" data-name="Group 57101">
        <rect id="base" width="25" height="25" transform="translate(1237 31)" fill="#fff" opacity="0"/>
        <g id="noun-notification-1594277" transform="translate(1280.03 -75.5)">
          <g id="Group_56751" data-name="Group 56751" transform="translate(-39.03 109.5)">
            <g id="Group_56750" data-name="Group 56750">
              <path id="Path_8056" data-name="Path 8056" d="M32.58,24.716A6.075,6.075,0,0,0,28.025,30.6v4.049a.676.676,0,0,1-.674.675,1.35,1.35,0,1,0,0,2.7h13.49a1.35,1.35,0,1,0,0-2.7.673.673,0,0,1-.674-.675V30.6a6.075,6.075,0,0,0-4.555-5.882v-.7a1.518,1.518,0,1,0-3.037,0ZM31.736,38.7H36.46a2.362,2.362,0,1,1-4.724,0Z" transform="translate(-26 -22.5)" fill="#222" fill-rule="evenodd"/>
            </g>
          </g>
        </g>
      </g>
    </g>
  </g>
</svg>
