<svg xmlns="http://www.w3.org/2000/svg" width="258.151" height="476.303" viewBox="0 0 258.151 476.303">
  <g id="Group_56838" data-name="Group 56838" transform="translate(-674.21 -78.902)">
    <g id="_24075671_sl_070720_32260_31_Converted_-01" data-name="24075671_sl_070720_32260_31 [Converted]-01" transform="translate(764.973 365.985)">
      <g id="Layer_1" transform="translate(-259.6 -248.292)">
        <path id="Path_8359" data-name="Path 8359" d="M561.9,212.783a.906.906,0,0,1-.93-.879V-70.146a.906.906,0,0,1,.93-.879.906.906,0,0,1,.93.879V211.9A.906.906,0,0,1,561.9,212.783Z" transform="translate(-372.855 32.233)" fill="#002735"/>
        <path id="Path_8360" data-name="Path 8360" d="M1520.257,184.573a.929.929,0,0,1-.929-.929V-65.92a.929.929,0,0,1,.929-.929.929.929,0,0,1,.929.929V183.644a.929.929,0,0,1-.929.929Z" transform="translate(-1101.801 29.015)" fill="#002735"/>
        <path id="Path_8361" data-name="Path 8361" d="M519.127,846.29v10.538c0,12.693-6.347,20.847-18.585,22.586s-18.584-4.612-18.584-17.3V820.861c0-12.692,6.347-20.846,18.584-22.584s18.585,4.611,18.585,17.3v7.706l-11.786,1.675v-8.5c0-5.666-2.493-7.464-6.459-6.9s-6.459,3.07-6.459,8.736v42.835c0,5.665,2.493,7.351,6.459,6.787s6.459-2.958,6.459-8.623V847.964l11.786-1.675Z" transform="translate(-311.954 -558.131)" fill="#002735"/>
        <path id="Path_8362" data-name="Path 8362" d="M672.739,793.586c0-12.692,6.685-20.894,18.924-22.633s18.922,4.564,18.922,17.255v41.248c0,12.693-6.685,20.895-18.922,22.634s-18.924-4.564-18.924-17.256V793.586ZM685.2,833.857c0,5.665,2.492,7.465,6.459,6.9s6.458-3.071,6.458-8.737V789.186c0-5.666-2.492-7.464-6.458-6.9s-6.459,3.071-6.459,8.737v42.835Z" transform="translate(-458.998 -537.07)" fill="#002735"/>
        <path id="Path_8363" data-name="Path 8363" d="M898.935,786.766l8.5-57.527,17.338-2.464V806.1l-11.784,1.675V750.887L904.374,809l-11.786,1.675L883.3,755.9v56.093l-10.879,1.546V734.214l17.338-2.464,9.178,55.016Z" transform="translate(-612.901 -503.239)" fill="#002735"/>
        <path id="Path_8364" data-name="Path 8364" d="M1140.3,715.206l12.463-1.771v79.323l-12.463,1.771Z" transform="translate(-819.37 -492.957)" fill="#002735"/>
        <path id="Path_8365" data-name="Path 8365" d="M1244.929,709.276v57.453l-11.217,1.594V689l15.637-2.222,12.8,45.661v-47.48l11.1-1.578V762.7l-12.8,1.82-15.524-55.247Z" transform="translate(-891.367 -469.793)" fill="#002735"/>
        <path id="Path_8366" data-name="Path 8366" d="M1460.52,697.916l17.45-2.479v25.157c0,12.693-6.347,20.847-18.584,22.585s-18.583-4.612-18.583-17.3V684.627c0-12.692,6.346-20.846,18.583-22.585s18.584,4.612,18.584,17.3v7.706l-11.786,1.675v-8.5c0-5.666-2.493-7.465-6.459-6.9s-6.458,3.071-6.458,8.736V724.9c0,5.665,2.491,7.351,6.458,6.787s6.459-2.957,6.459-8.623V708.444l-5.664.8Z" transform="translate(-1050.981 -453.128)" fill="#002735"/>
        <g id="Group_56837" data-name="Group 56837" transform="translate(168.837 286.55)">
          <path id="Path_8367" data-name="Path 8367" d="M495.725,1165.134c0-8.343,3.337-11.988,9.178-12.817s9.177,1.866,9.177,10.209v4.839l17.354-2.465v-3.671c0-18.688-9.178-28.064-27.032-25.527s-27.031,14.52-27.031,33.208c0,33.373,35.875,32.781,35.875,56.809,0,8.343-3.671,11.868-9.511,12.7s-9.511-1.652-9.511-9.995v-8.343l-17.354,2.465v7.175c0,18.688,9.344,28.04,27.365,25.48s27.366-14.567,27.366-33.256c0-33.372-35.875-32.78-35.875-56.808Z" transform="translate(-476.869 -1104.652)" fill="#002735"/>
          <path id="Path_8368" data-name="Path 8368" d="M782.759,1095.954c-18.02,2.561-27.864,14.638-27.864,33.327v60.738c0,18.688,9.845,27.969,27.864,25.408s27.866-14.639,27.866-33.327v-60.738C810.625,1102.673,800.781,1093.394,782.759,1095.954Zm9.512,89.922c0,8.342-3.672,12.035-9.512,12.865s-9.511-1.82-9.511-10.162v-63.074c0-8.343,3.671-12.035,9.511-12.865s9.512,1.819,9.512,10.162Z" transform="translate(-691.157 -1074.01)" fill="#002735"/>
          <path id="Path_8369" data-name="Path 8369" d="M1070.977,1055.014c-18.021,2.561-27.865,14.638-27.865,33.327v60.738c0,18.688,9.844,27.968,27.865,25.408s27.865-14.638,27.865-33.327v-60.738C1098.843,1061.733,1089,1052.453,1070.977,1055.014Zm9.512,89.922c0,8.342-3.672,12.035-9.512,12.865s-9.512-1.82-9.512-10.162v-63.074c0-8.343,3.672-12.035,9.512-12.865s9.512,1.819,9.512,10.162Z" transform="translate(-913.3 -1042.455)" fill="#002735"/>
          <path id="Path_8370" data-name="Path 8370" d="M1379.032,1003.965v69.915l-18.856-67.237-23.026,3.271v116.8l16.518-2.347v-84.6l22.861,81.35,18.856-2.678v-116.8Z" transform="translate(-1139.929 -1001.64)" fill="#002735"/>
        </g>
      </g>
    </g>
    <g id="_lt_Layer_gt_" data-name="&amp;lt;Layer&amp;gt;" transform="translate(356.719 20.549)">
      <g id="Group_56833" data-name="Group 56833" transform="translate(347.611 136.926)">
        <g id="Group_56836" data-name="Group 56836" transform="translate(26.424)">
          <g id="Group_56831" data-name="Group 56831" transform="translate(0 10.94)">
            <path id="Path_8139" data-name="Path 8139" d="M932.38,1074.045h0a5.03,5.03,0,0,1-5.6-4.391l-7.436-61.631a5.03,5.03,0,0,1,4.391-5.6h0a5.03,5.03,0,0,1,5.6,4.391l7.436,61.631A5.03,5.03,0,0,1,932.38,1074.045Z" transform="translate(-882.64 -935.497)" fill="#002735"/>
            <g id="Group_56830" data-name="Group 56830" transform="translate(0 0)">
              <path id="Path_8141" data-name="Path 8141" d="M622.234,860.519,596.463,866.5c-6.364,2-14.707-19.308-4.967-22.76l26.077-6.055,4.661,22.831Z" transform="translate(-587.04 -788.971)" fill="#002735"/>
              <path id="Path_8142" data-name="Path 8142" d="M928.831,533.031c-44.414-21.165-60.474-14.527-60.474-14.527L863.7,495.673s12.46-5.946,49.528-42.429l15.608,79.787Z" transform="translate(-833.163 -446.957)" fill="#002735"/>
              <ellipse id="Ellipse_13" data-name="Ellipse 13" cx="16.576" cy="42.917" rx="16.576" ry="42.917" transform="matrix(0.98, -0.198, 0.198, 0.98, 68.367, 6.577)" fill="#0b3a4b"/>
              <path id="Path_8145" data-name="Path 8145" d="M627.356,919.408c.035-.512,1.333-1.158,1.7-1.365a8.821,8.821,0,0,1,2.137-.848c1.492-.4.818-3.027-.678-2.626-2.136.572-5.36,1.947-5.554,4.812a1.2,1.2,0,1,0,2.4.027Z" transform="translate(-620.768 -857.331)" fill="#587488"/>
              <path id="Path_8146" data-name="Path 8146" d="M1538.474,946.241a27.939,27.939,0,0,1-.266,5.882c-.29,1.859,2.244,2.685,2.534.816a31.7,31.7,0,0,0,.348-6.669c-.106-1.9-2.722-1.939-2.616-.03Z" transform="translate(-1433.213 -879.288)" fill="#667d89"/>
              <g id="Group_56829" data-name="Group 56829" transform="translate(86.246 38.918)">
                <path id="Path_8147" data-name="Path 8147" d="M1369.259,748.951s7.93-.726,9.349,3.823-3.594,8.779-5.455,8.654S1366.715,755.674,1369.259,748.951Z" transform="translate(-1368.507 -748.908)" fill="#fff"/>
              </g>
              <ellipse id="Ellipse_478" data-name="Ellipse 478" cx="9.905" cy="25.644" rx="9.905" ry="25.644" transform="matrix(0.98, -0.198, 0.198, 0.98, 78.333, 22.183)" fill="#fff"/>
            </g>
          </g>
          <path id="Path_8165" data-name="Path 8165" d="M1618,302.569l-48.786,22.2a.987.987,0,0,1-1.307-.49h0a.987.987,0,0,1,.49-1.307l48.786-22.2a.987.987,0,0,1,1.307.49h0a.987.987,0,0,1-.49,1.307Z" transform="translate(-1459.572 -300.294)" fill="#002735"/>
          <rect id="Rectangle_1661" data-name="Rectangle 1661" width="26.499" height="1.974" rx="0.987" transform="matrix(0.799, -0.601, 0.601, 0.799, 101.761, 15.937)" fill="#002735"/>
          <path id="Path_8166" data-name="Path 8166" d="M1689.772,1082.683l-43.263-12.781a.907.907,0,0,0-1.127.613l-.045.153a.907.907,0,0,0,.613,1.127l43.263,12.781a.907.907,0,0,0,1.127-.613l.045-.153a.907.907,0,0,0-.613-1.127Z" transform="translate(-1528.505 -984.585)" fill="#002735"/>
          <path id="Path_8167" data-name="Path 8167" d="M1695.335,978.754l-24.778-3.492a.738.738,0,0,0-.833.628l-.069.494a.738.738,0,0,0,.628.833l24.778,3.492a.738.738,0,0,0,.833-.628l.07-.494A.738.738,0,0,0,1695.335,978.754Z" transform="translate(-1550.166 -900.417)" fill="#002735"/>
        </g>
      </g>
    </g>
  </g>
</svg>
