<svg xmlns="http://www.w3.org/2000/svg" width="18.689" height="16.062" viewBox="0 0 18.689 16.062">
  <g id="noun-headset-1001072" transform="translate(-225.599 -173.643)">
    <path id="Path_189" data-name="Path 189" d="M242.657,181.069v-.35h0a6.826,6.826,0,0,0-6.827-6.827H234.5a6.827,6.827,0,0,0-6.827,6.827v.213h0a2.313,2.313,0,0,0-1.826,2.317v3.84a2.187,2.187,0,1,0,4.369,0v-3.84a2.313,2.313,0,0,0-1.826-2.317v-.213h0a6.123,6.123,0,0,1,6.11-6.114h1.327a6.123,6.123,0,0,1,6.11,6.114v.183h-.1a2.278,2.278,0,0,0-2.185,2.351v3.84a2.193,2.193,0,1,0,4.373,0v-3.84a2.36,2.36,0,0,0-1.374-2.185Zm-13.171,2.185v3.84a1.472,1.472,0,1,1-2.935,0v-3.84a1.472,1.472,0,1,1,2.935,0Zm13.824,3.84a1.476,1.476,0,1,1-2.936,0v-3.84a1.476,1.476,0,1,1,2.936,0Z" transform="translate(0)" fill="#707070" stroke="#707070" stroke-width="0.5"/>
  </g>
</svg>
