<svg xmlns="http://www.w3.org/2000/svg" width="19.713" height="16.311" viewBox="0 0 19.713 16.311">
  <g id="Icon_feather-camera" data-name="Icon feather-camera" transform="translate(0.5 0.5)">
    <path id="Path_375" data-name="Path 375" d="M20.213,18.11a1.7,1.7,0,0,1-1.7,1.7H3.2a1.7,1.7,0,0,1-1.7-1.7V8.753a1.7,1.7,0,0,1,1.7-1.7H6.6L8.3,4.5h5.1l1.7,2.552h3.4a1.7,1.7,0,0,1,1.7,1.7Z" transform="translate(-1.5 -4.5)" fill="none" stroke="#222" stroke-linecap="round" stroke-linejoin="round" stroke-width="1"/>
    <path id="Path_376" data-name="Path 376" d="M18.8,16.9a3.4,3.4,0,1,1-3.4-3.4A3.4,3.4,0,0,1,18.8,16.9Z" transform="translate(-6.046 -8.396)" fill="none" stroke="#222" stroke-linecap="round" stroke-linejoin="round" stroke-width="1"/>
  </g>
</svg>
