<svg xmlns="http://www.w3.org/2000/svg" width="187.886" height="289.473" viewBox="0 0 187.886 289.473">
  <g id="Group_56838" data-name="Group 56838" transform="translate(-674.21 -180.561)">
    <g id="_24075671_sl_070720_32260_31_Converted_-01" data-name="24075671_sl_070720_32260_31 [Converted]-01" transform="translate(674.21 303.452)">
      <g id="Layer_1" transform="translate(0 0)">
        <path id="Path_8361" data-name="Path 8361" d="M509.01,833.144v7.67c0,9.238-4.619,15.173-13.526,16.438s-13.526-3.357-13.526-12.595V814.637c0-9.237,4.62-15.172,13.526-16.437s13.526,3.356,13.526,12.594V816.4l-8.578,1.219v-6.186c0-4.124-1.815-5.433-4.7-5.023s-4.7,2.235-4.7,6.359v31.176c0,4.123,1.815,5.35,4.7,4.94s4.7-2.153,4.7-6.276v-8.248l8.578-1.219Z" transform="translate(-481.109 -775.263)" fill="#002735"/>
        <path id="Path_8362" data-name="Path 8362" d="M672.739,787.348c0-9.237,4.866-15.207,13.773-16.473s13.772,3.321,13.772,12.559v30.021c0,9.238-4.866,15.208-13.772,16.473s-13.773-3.321-13.773-12.559V787.348Zm9.072,29.31c0,4.123,1.814,5.433,4.7,5.023s4.7-2.235,4.7-6.359V784.146c0-4.124-1.814-5.433-4.7-5.023s-4.7,2.235-4.7,6.359v31.176Z" transform="translate(-640.057 -752.497)" fill="#002735"/>
        <path id="Path_8363" data-name="Path 8363" d="M891.718,770.437l6.185-41.869,12.619-1.793v57.732l-8.576,1.219v-41.4l-6.269,42.293-8.578,1.219-6.762-39.865V788.8l-7.918,1.125V732.189l12.619-1.793Z" transform="translate(-806.42 -715.927)" fill="#002735"/>
        <path id="Path_8364" data-name="Path 8364" d="M1140.3,714.724l9.071-1.289v57.732l-9.071,1.289Z" transform="translate(-1029.604 -704.813)" fill="#002735"/>
        <path id="Path_8365" data-name="Path 8365" d="M1241.876,702.228v41.815l-8.164,1.16V687.47l11.381-1.617,9.32,33.233V684.529l8.081-1.148v57.733l-9.319,1.324-11.3-40.21Z" transform="translate(-1107.431 -679.773)" fill="#002735"/>
        <path id="Path_8366" data-name="Path 8366" d="M1455.153,688.075l12.7-1.8V704.58c0,9.238-4.62,15.173-13.526,16.438s-13.525-3.356-13.525-12.594V678.4c0-9.237,4.618-15.172,13.525-16.438s13.526,3.357,13.526,12.594v5.608l-8.578,1.219V675.2c0-4.124-1.815-5.433-4.7-5.023s-4.7,2.235-4.7,6.358v31.176c0,4.123,1.813,5.35,4.7,4.94s4.7-2.153,4.7-6.276v-10.64l-4.123.586Z" transform="translate(-1279.967 -661.759)" fill="#002735"/>
        <g id="Group_56837" data-name="Group 56837" transform="translate(0 56.71)">
          <path id="Path_8367" data-name="Path 8367" d="M490.592,1157.011c0-6.072,2.428-8.725,6.68-9.329s6.679,1.358,6.679,7.43v3.522l12.63-1.794v-2.672c0-13.6-6.68-20.425-19.674-18.579s-19.674,10.568-19.674,24.169c0,24.29,26.11,23.859,26.11,41.346,0,6.072-2.672,8.638-6.922,9.241s-6.922-1.2-6.922-7.274V1197l-12.631,1.794v5.222c0,13.6,6.8,20.408,19.917,18.544s19.917-10.6,19.917-24.2c0-24.289-26.111-23.858-26.111-41.346Z" transform="translate(-476.869 -1112.992)" fill="#002735"/>
          <path id="Path_8368" data-name="Path 8368" d="M775.175,1095.84c-13.115,1.864-20.28,10.654-20.28,24.256V1164.3c0,13.6,7.165,20.356,20.28,18.492s20.281-10.654,20.281-24.256v-44.206C795.456,1100.73,788.291,1093.976,775.175,1095.84Zm6.923,65.447c0,6.072-2.672,8.76-6.923,9.363s-6.922-1.324-6.922-7.4v-45.906c0-6.072,2.672-8.759,6.922-9.363s6.923,1.324,6.923,7.4Z" transform="translate(-708.505 -1079.869)" fill="#002735"/>
          <path id="Path_8369" data-name="Path 8369" d="M1063.392,1054.9c-13.116,1.864-20.281,10.654-20.281,24.256v44.206c0,13.6,7.165,20.356,20.281,18.492s20.281-10.654,20.281-24.256v-44.206C1083.673,1059.79,1076.508,1053.036,1063.392,1054.9Zm6.923,65.446c0,6.072-2.672,8.76-6.923,9.363s-6.923-1.325-6.923-7.4v-45.906c0-6.072,2.672-8.759,6.923-9.363s6.923,1.324,6.923,7.4Z" transform="translate(-948.633 -1045.76)" fill="#002735"/>
          <path id="Path_8370" data-name="Path 8370" d="M1367.632,1003.332v50.885l-13.724-48.936-16.759,2.381v85.012l12.022-1.708v-61.572l16.639,59.208,13.724-1.949V1001.64Z" transform="translate(-1193.609 -1001.64)" fill="#002735"/>
        </g>
      </g>
    </g>
    <g id="_lt_Layer_gt_" data-name="&amp;lt;Layer&amp;gt;" transform="translate(715.364 180.561)">
      <g id="Group_56833" data-name="Group 56833" transform="translate(0 0)">
        <g id="Group_56836" data-name="Group 56836" transform="translate(0 0)">
          <g id="Group_56831" data-name="Group 56831" transform="translate(0 7.962)">
            <path id="Path_8139" data-name="Path 8139" d="M928.823,1054.542h0a3.661,3.661,0,0,1-4.073-3.2l-5.412-44.856a3.66,3.66,0,0,1,3.2-4.073h0a3.66,3.66,0,0,1,4.073,3.2l5.412,44.856A3.661,3.661,0,0,1,928.823,1054.542Z" transform="translate(-892.622 -953.705)" fill="#002735"/>
            <g id="Group_56830" data-name="Group 56830" transform="translate(0 0)">
              <path id="Path_8141" data-name="Path 8141" d="M612.655,854.3,593.9,858.66c-4.632,1.457-10.7-14.053-3.615-16.565l18.979-4.407Z" transform="translate(-587.039 -802.231)" fill="#002735"/>
              <path id="Path_8142" data-name="Path 8142" d="M911.1,511.314c-32.325-15.4-44.013-10.573-44.013-10.573L863.7,484.124s9.068-4.328,36.047-30.88Z" transform="translate(-841.474 -448.668)" fill="#002735"/>
              <ellipse id="Ellipse_13" data-name="Ellipse 13" cx="12.064" cy="31.236" rx="12.064" ry="31.236" transform="matrix(0.98, -0.198, 0.198, 0.98, 49.758, 4.787)" fill="#0b3a4b"/>
              <path id="Path_8145" data-name="Path 8145" d="M626.7,918.08c.025-.373.971-.843,1.234-.994a6.417,6.417,0,0,1,1.555-.617c1.086-.291.6-2.2-.493-1.911-1.554.416-3.9,1.417-4.042,3.5a.876.876,0,1,0,1.746.02Z" transform="translate(-621.907 -872.899)" fill="#587488"/>
              <path id="Path_8146" data-name="Path 8146" d="M1538.4,945.856a20.349,20.349,0,0,1-.194,4.281c-.211,1.353,1.633,1.954,1.845.594a23.081,23.081,0,0,0,.253-4.853c-.077-1.382-1.981-1.411-1.9-.022Z" transform="translate(-1461.785 -897.127)" fill="#667d89"/>
              <g id="Group_56829" data-name="Group 56829" transform="translate(62.771 28.325)">
                <path id="Path_8147" data-name="Path 8147" d="M1369.054,748.939s5.772-.529,6.8,2.782-2.615,6.389-3.97,6.3S1367.2,753.833,1369.054,748.939Z" transform="translate(-1368.507 -748.908)" fill="#fff"/>
              </g>
              <ellipse id="Ellipse_478" data-name="Ellipse 478" cx="7.209" cy="18.664" rx="7.209" ry="18.664" transform="matrix(0.98, -0.198, 0.198, 0.98, 57.012, 16.145)" fill="#fff"/>
            </g>
          </g>
          <path id="Path_8165" data-name="Path 8165" d="M1604.337,302.056l-35.507,16.156a.718.718,0,0,1-.951-.356h0a.718.718,0,0,1,.356-.951l35.507-16.156a.718.718,0,0,1,.951.356h0A.718.718,0,0,1,1604.337,302.056Z" transform="translate(-1489.034 -300.4)" fill="#002735"/>
          <rect id="Rectangle_1661" data-name="Rectangle 1661" width="19.286" height="1.437" rx="0.718" transform="matrix(0.799, -0.601, 0.601, 0.799, 74.063, 11.599)" fill="#002735"/>
          <path id="Path_8166" data-name="Path 8166" d="M1677.667,1079.194l-31.487-9.3a.66.66,0,0,0-.82.446l-.033.111a.66.66,0,0,0,.446.82l31.487,9.3a.66.66,0,0,0,.82-.446l.033-.112a.66.66,0,0,0-.446-.82Z" transform="translate(-1560.295 -1007.797)" fill="#002735"/>
          <path id="Path_8167" data-name="Path 8167" d="M1688.343,977.8l-18.034-2.541a.537.537,0,0,0-.607.457l-.051.359a.537.537,0,0,0,.457.607l18.034,2.541a.537.537,0,0,0,.606-.457l.051-.359A.537.537,0,0,0,1688.343,977.8Z" transform="translate(-1582.686 -920.787)" fill="#002735"/>
        </g>
      </g>
    </g>
  </g>
</svg>
