<svg xmlns="http://www.w3.org/2000/svg" xmlns:xlink="http://www.w3.org/1999/xlink" width="38.381" height="39.361" viewBox="0 0 38.381 39.361">
  <defs>
    <clipPath id="clip-path">
      <path id="Path_7745" data-name="Path 7745" d="M47.578,48H85.96V87.361H47.578Zm0,0" transform="translate(-47.578 -48)" fill="#570026"/>
    </clipPath>
  </defs>
  <g id="Smaller_Logo_Dark_BG" data-name="Smaller Logo Dark BG" transform="translate(-12.204 0.107)">
    <g id="Group_54662" data-name="Group 54662" transform="translate(12.204 -0.107)" clip-path="url(#clip-path)">
      <path id="Path_7744" data-name="Path 7744" d="M59.056,48.864q.746-.186,1.506-.3t1.528-.152q.767-.04,1.535,0t1.529.144q.761.109,1.508.289t1.472.434q.725.253,1.422.573t1.36.707q.662.386,1.285.834t1.2.954q.575.507,1.1,1.065t.989,1.165q.466.608.87,1.255t.742,1.333q.34.685.609,1.4t.469,1.45q.038.135.072.276l-.242.083c-.025-.1-.05-.2-.077-.3q-.2-.73-.465-1.437t-.6-1.385q-.337-.678-.738-1.32t-.865-1.241q-.464-.6-.984-1.152t-1.092-1.051q-.572-.5-1.19-.94t-1.277-.82q-.659-.379-1.352-.693t-1.414-.559q-.721-.244-1.462-.418t-1.5-.275q-.755-.1-1.516-.128t-1.522.019q-.761.048-1.513.166t-1.489.313c.039-.1.076-.191.11-.289ZM47.82,67.817c.02.081.041.16.063.242q.2.731.466,1.44t.607,1.388q.337.679.741,1.323t.868,1.244q.466.6.988,1.153t1.1,1.052q.575.5,1.2.941t1.282.82q.661.379,1.356.691t1.419.556q.724.243,1.467.416t1.5.272q.758.1,1.521.124c.508.017,1.018.009,1.525-.024s1.014-.09,1.516-.172,1-.188,1.492-.318c-.04.1-.078.191-.114.289q-.746.189-1.508.3t-1.531.158q-.77.041-1.539.009T60.7,79.587q-.763-.107-1.512-.287t-1.476-.431q-.728-.251-1.427-.571t-1.365-.706q-.664-.385-1.288-.834t-1.2-.954q-.577-.507-1.1-1.066t-.992-1.167q-.467-.608-.873-1.257t-.745-1.335q-.34-.685-.611-1.4t-.47-1.452c-.02-.074-.039-.149-.058-.223Zm0,0" transform="translate(-43.72 -44.326)" fill="#570026" stroke="#570026" stroke-width="1" fill-rule="evenodd"/>
    </g>
    <g id="Group_54665" data-name="Group 54665" transform="translate(25.58 12.253)">
      <g id="Group_54664" data-name="Group 54664">
        <g id="Group_54663" data-name="Group 54663">
          <path id="Path_7746" data-name="Path 7746" d="M12.317,3a6.781,6.781,0,0,1-1.737.9,7.391,7.391,0,0,1-2.572.44A7.626,7.626,0,0,1,4.1,3.378,6.716,6.716,0,0,1,1.567.762,7.566,7.566,0,0,1,.688-2.866a8.216,8.216,0,0,1,.879-3.847A6.483,6.483,0,0,1,4.029-9.352,6.972,6.972,0,0,1,7.657-10.3a8.035,8.035,0,0,1,2.418.352,8.454,8.454,0,0,1,1.957.879L10.91-6.406A5.189,5.189,0,0,0,7.767-7.571,3.8,3.8,0,0,0,5.7-6.955,4.315,4.315,0,0,0,4.183-5.306a4.781,4.781,0,0,0-.55,2.286A5.388,5.388,0,0,0,4.161-.58,3.959,3.959,0,0,0,5.656,1.047a4.442,4.442,0,0,0,2.286.572,5.129,5.129,0,0,0,1.891-.33A4.3,4.3,0,0,0,11.152.476Zm0,0" transform="translate(-0.688 10.297)" fill="#570026"/>
        </g>
      </g>
    </g>
  </g>
</svg>
