<svg xmlns="http://www.w3.org/2000/svg" width="19.08" height="16.346" viewBox="0 0 19.08 16.346">
  <g id="noun-wallet-1573165" transform="translate(-120.201 -83.793)">
    <path id="Path_176" data-name="Path 176" d="M122,83.994a1.6,1.6,0,0,0-1.595,1.595V98.573a1.369,1.369,0,0,0,1.367,1.367h15.946a1.369,1.369,0,0,0,1.367-1.367V88.094a1.369,1.369,0,0,0-1.367-1.367h-1.367V84.221a.237.237,0,0,0-.228-.228Zm0,.456h13.9v2.278H122a1.139,1.139,0,0,1,0-2.278Zm-1.139,2.25a1.587,1.587,0,0,0,1.139.484h15.718a.9.9,0,0,1,.911.911V90.6h-6.378a.914.914,0,0,0-.911.911v3.645a.914.914,0,0,0,.911.911h6.378v2.506a.9.9,0,0,1-.911.911H121.768a.9.9,0,0,1-.911-.911Zm11.39,4.357h6.378v4.556h-6.378a.45.45,0,0,1-.456-.456V91.511A.45.45,0,0,1,132.247,91.055Zm1.822,1.36a.911.911,0,1,0,.911.911A.915.915,0,0,0,134.069,92.415Zm0,.456a.456.456,0,1,1-.456.456A.452.452,0,0,1,134.069,92.871Z" transform="translate(0 0)" fill="#707070" stroke="#707070" stroke-width="0.4"/>
  </g>
</svg>
