<svg xmlns="http://www.w3.org/2000/svg" width="20.306" height="27.743" viewBox="0 0 20.306 27.743">
  <g id="logo" transform="translate(24 -2.607)">
    <path id="Path_2" data-name="Path 2" d="M19.068,5.819a16.7,16.7,0,0,0-3.316-.654A23.726,23.726,0,0,0,3.9,6.325C.568,7.67-.835,11.039.5,13.943c.515,1.122,1.272,1.687,2.471,1.218,1.113-.436,1.118-1.211.78-2.328C2.99,10.322,3.7,8.988,6.352,8.5c2.607-.481,5.3-.479,8.444-.726-.326,2.913-.444,5.172-.9,7.363-.152.736-1.064,1.438-1.791,1.914-2.172,1.426-4.388,2.347-6.3,4.1a9.524,9.524,0,0,0-3.222,5.422c-.542,3.722,2.323,6.875,5.985,5.91a8.31,8.31,0,0,0,4.014-2.485,16.88,16.88,0,0,0,2.976-5.924c1.179-4.156,2.189-10.332,3.152-14.551.251-1.1.572-.655,1.18-1.606C20.633,6.756,20.389,6.257,19.068,5.819ZM10.082,28.026c-.767.98-1.792,1.9-3.113,1.228-1.427-.723-1.3-2.1-.854-3.409,1.1-3.236,3.721-4.7,6.953-6.109C12.573,23,11.884,25.719,10.082,28.026Z" transform="translate(-24 -2.305)" fill="#e53935"/>
  </g>
</svg>
