<svg xmlns="http://www.w3.org/2000/svg" width="12.148" height="16.597" viewBox="0 0 12.148 16.597">
  <g id="menu_logo" transform="translate(0 -1.56)">
    <path id="Path_2" data-name="Path 2" d="M11.407,5.455a9.99,9.99,0,0,0-1.984-.391,14.194,14.194,0,0,0-7.088.694A3.379,3.379,0,0,0,.3,10.315c.308.671.761,1.01,1.479.729.666-.261.669-.724.466-1.393-.456-1.5-.03-2.3,1.556-2.594,1.56-.288,3.173-.287,5.052-.435-.2,1.743-.266,3.094-.538,4.4-.091.441-.637.86-1.071,1.145a26.871,26.871,0,0,0-3.766,2.454,5.7,5.7,0,0,0-1.928,3.243c-.324,2.227,1.39,4.113,3.58,3.535a4.971,4.971,0,0,0,2.4-1.487,10.1,10.1,0,0,0,1.781-3.544c.705-2.486,1.31-6.181,1.886-8.705.15-.656.342-.392.706-.961C12.344,6.015,12.2,5.717,11.407,5.455ZM6.031,18.74c-.459.586-1.072,1.136-1.863.735-.854-.432-.778-1.255-.511-2.04.657-1.936,2.226-2.812,4.159-3.655A10.117,10.117,0,0,1,6.031,18.74Z" transform="translate(0 -3.352)" fill="#e53935"/>
  </g>
</svg>
