<svg xmlns="http://www.w3.org/2000/svg" width="44.868" height="23.929" viewBox="0 0 44.868 23.929">
  <g id="menu_logo" transform="translate(0 0)">
    <path id="Path_1" data-name="Path 1" d="M69.767,12.214c-.337-.608-.959-1.1-1.164-1.775a2.061,2.061,0,0,1,.081-1.011c.074-.3.237-.574.317-.875a.548.548,0,0,0,0-.376.852.852,0,0,0-.772-.457c-.61,0-.942.582-1.194,1.056-.317.6-.743,1.86-1.108,2.429a16.2,16.2,0,0,1-2.053,2.76,1.293,1.293,0,0,1-1.945-.255c-.675-1.079-.635-.576.012-1.418a7.716,7.716,0,0,0,.518-.759,18.834,18.834,0,0,0,3.061-7.308,7.392,7.392,0,0,0-.125-2.786A1.591,1.591,0,0,0,62.63.514a6.573,6.573,0,0,0-1.571,2.114,17.354,17.354,0,0,0-1.92,8.061c.04,2.077-1.067,2.641-2.652,3.517.245-1.456.487-2.684.639-3.922.052-.432.193-1.414-.067-1.648-1.007-.906-2.933-.554-4.193.251a5.937,5.937,0,0,0-2.471,3.7,5.4,5.4,0,0,1-.351,1.283,3.078,3.078,0,0,1-1.79.611c-.151-.026-.19-.8-.151-1.117.119-.988.256-1.856.424-2.84.123-.713.481-1.507-.306-1.987a1.98,1.98,0,0,0-2.386.453,5.55,5.55,0,0,0-1.781,2.24.021.021,0,0,1,0-.009c.131-1.069.213-1.736.356-2.877-1.093-.243-1.758.073-2,1.06a17.351,17.351,0,0,0-.561,2.926,2.612,2.612,0,0,1-1.356,1.99c-.5.362-.946.131-1.061-.438a4.059,4.059,0,0,1,.026-1.394c.167-1.089.431-2.163.569-3.254.125-.986-.811-1.439-1.643-.57a1.3,1.3,0,0,0-.319.61,30.762,30.762,0,0,0-.668,3.762c-.112,1.1-.091,2.266,1,2.964a2.094,2.094,0,0,0,2.344-.073l.012-.007.013-.009c.152-.1.985-.665,1.134-1.28a1.735,1.735,0,0,0,.56,1.411l0,0c.847.576,1.286.173,1.768-1.312a13.59,13.59,0,0,1,.784-2.1c.332-.668.98-1.378,1.408-2.073a.112.112,0,0,1,.207.071c-.122,1.2-.364,2.394-.412,3.6-.065,1.664.933,2.429,2.524,1.955a15.545,15.545,0,0,0,1.946-.888c.945,1.158,2.5.963,3.768.342a.014.014,0,0,1,.017,0,.014.014,0,0,1,0,.017c-.908,1.055-2.007,1.736-2.853,2.8a8.166,8.166,0,0,0-1.581,2.383,2.945,2.945,0,0,0-.02,2A1.91,1.91,0,0,0,51.8,23.929a3.178,3.178,0,0,0,2.585-2.061,34.521,34.521,0,0,0,1.776-5.574l1.831-1.165.015-.009c.476-.312.958-.617,1.432-.933a.237.237,0,0,1,.086-.036.234.234,0,0,1,.242.1c1.479,2.3,3.063,2.688,5.046.968a9.113,9.113,0,0,0,1.3-1.551c.353-.48.642-1.006,1.122-1.782a3.316,3.316,0,0,1,1.226,2.137.149.149,0,0,1,0,.069.154.154,0,0,1-.027.063.152.152,0,0,1-.12.061c-.429,0-.642,0-.857,0-.709.02-1.216.34-1.271,1.056a1.056,1.056,0,0,0,.955,1.147,3.452,3.452,0,0,0,1.692-.136C70.679,15.675,70.666,13.84,69.767,12.214Zm-15.838,6.5c-.034.119-.307,1.016-.355,1.131-.177.43-.28.69-.467,1.115a3.619,3.619,0,0,1-.673,1.028.554.554,0,0,1-.793.07c-.58-.6.049-1.634.426-2.147a6.646,6.646,0,0,1,.887-.964c.085-.08,1.2-1.248,1.21-1.193A4.305,4.305,0,0,1,53.929,18.71Zm.4-5.121a1.112,1.112,0,0,1-.6.5.78.78,0,0,1-1.048-.355,1.54,1.54,0,0,1-.184-.629A3.245,3.245,0,0,1,55.23,9.755,35.949,35.949,0,0,1,54.326,13.589ZM61.12,10.71a20.355,20.355,0,0,1,2.235-9.1c1.265,1.99.181,6.233-2.193,9.116a.024.024,0,0,1-.026.007.024.024,0,0,1-.011-.009A.025.025,0,0,1,61.12,10.71Z" transform="translate(-25.492 0)" fill="#e53935"/>
    <path id="Path_2" data-name="Path 2" d="M11.407,5.455a9.99,9.99,0,0,0-1.984-.391,14.194,14.194,0,0,0-7.088.694A3.379,3.379,0,0,0,.3,10.315c.308.671.761,1.01,1.479.729.666-.261.669-.724.466-1.393-.456-1.5-.03-2.3,1.556-2.594,1.56-.288,3.173-.287,5.052-.435-.2,1.743-.266,3.094-.538,4.4-.091.441-.637.86-1.071,1.145a26.871,26.871,0,0,0-3.766,2.454,5.7,5.7,0,0,0-1.928,3.243c-.324,2.227,1.39,4.113,3.58,3.535a4.971,4.971,0,0,0,2.4-1.487,10.1,10.1,0,0,0,1.781-3.544c.705-2.486,1.31-6.181,1.886-8.705.15-.656.342-.392.706-.961C12.344,6.015,12.2,5.717,11.407,5.455ZM6.031,18.74c-.459.586-1.072,1.136-1.863.735-.854-.432-.778-1.255-.511-2.04.657-1.936,2.226-2.812,4.159-3.655A10.117,10.117,0,0,1,6.031,18.74Z" transform="translate(0 -3.352)" fill="#e53935"/>
    <path id="Path_3" data-name="Path 3" d="M43.056,14.195a1.49,1.49,0,0,1-1.7,1.386,1.182,1.182,0,0,1-1.215-1.3,1.5,1.5,0,0,1,1.7-1.381C42.588,12.991,43.1,13.349,43.056,14.195Z" transform="translate(-27.368 -8.751)" fill="#e53935"/>
  </g>
</svg>
